<?xml version="1.0" standalone="no"?>
<!DOCTYPE svg PUBLIC "-//W3C//DTD SVG 1.1//EN" "http://www.w3.org/Graphics/SVG/1.1/DTD/svg11.dtd" >
<svg xmlns="http://www.w3.org/2000/svg">
<metadata></metadata>
<defs>
<font id="gandhi_sansitalic" horiz-adv-x="1126" >
<font-face units-per-em="2048" ascent="1567" descent="-481" />
<missing-glyph horiz-adv-x="450" />
<glyph horiz-adv-x="2048" />
<glyph horiz-adv-x="2048" />
<glyph unicode="&#xd;" horiz-adv-x="2048" />
<glyph unicode=" "  horiz-adv-x="450" />
<glyph unicode="&#x09;" horiz-adv-x="450" />
<glyph unicode="&#xa0;" horiz-adv-x="450" />
<glyph unicode="!" horiz-adv-x="491" d="M51 88q0 53 36.5 93t92.5 40q55 0 87 -34.5t32 -84.5q0 -59 -40.5 -95t-90.5 -36q-52 0 -84.5 35t-32.5 82zM182 397l88 975h238l-238 -975h-88z" />
<glyph unicode="&#x22;" horiz-adv-x="763" d="M225 864l37 459h170l-123 -459h-84zM532 864l37 459h170l-123 -459h-84z" />
<glyph unicode="#" d="M35 383l18 104h234l90 277h-248l18 104h263l108 332h109l-109 -332h283l108 332h109l-109 -332h226l-19 -104h-239l-91 -277h254l-18 -104h-270l-107 -332h-108l106 332h-283l-106 -332h-109l107 332h-217zM395 487h283l90 277h-283z" />
<glyph unicode="$" d="M76 72l49 141q64 -44 154.5 -73.5t181.5 -30.5l90 509l-49 31q-55 33 -92.5 61.5t-71.5 66t-51 84t-17 102.5q0 90 33 161.5t91.5 117t131.5 71.5t158 33l39 221h104l-39 -219q144 -6 287 -66l-49 -143q-103 57 -262 67l-82 -471q51 -31 85 -54t77.5 -59.5t69.5 -70.5 t44.5 -81t18.5 -97q0 -163 -116 -271t-318 -127l-37 -208h-105l35 204q-103 4 -203 34.5t-157 66.5zM434 977q0 -60 38.5 -101.5t113.5 -84.5l71 409q-99 -13 -161 -68t-62 -155zM567 115q112 18 178 74t66 149q0 63 -41.5 113.5t-124.5 107.5z" />
<glyph unicode="%" horiz-adv-x="1601" d="M193 47l1200 1305l86 -76l-1200 -1305zM199 958q0 173 98 283.5t258 110.5q126 0 195 -68t69 -188q0 -174 -98 -284t-258 -110q-125 0 -194.5 68.5t-69.5 187.5zM326 963q0 -72 36.5 -115t112.5 -43q89 0 152 76.5t63 210.5q0 72 -35.5 114.5t-111.5 42.5 q-89 0 -153 -75.5t-64 -210.5zM850 227q0 173 98 283.5t258 110.5q126 0 195 -68t69 -188q0 -174 -98 -284t-258 -110q-125 0 -194.5 68.5t-69.5 187.5zM977 231q0 -72 36.5 -114.5t112.5 -42.5q89 0 152 76t63 210q0 72 -35.5 115t-111.5 43q-89 0 -153 -76t-64 -211z" />
<glyph unicode="&#x26;" horiz-adv-x="1345" d="M82 279q0 85 31 159t88 132t126.5 102.5t155.5 79.5q-86 151 -86 258q0 144 95.5 235.5t250.5 91.5q136 0 222 -67t86 -185q0 -71 -31 -133t-85.5 -108.5t-114.5 -80.5t-132 -61l209 -362q153 192 201 399h145q-29 -131 -103.5 -274t-172.5 -246q37 -62 60 -76t89 -14h35 v-129q-72 -14 -104 -14q-70 0 -114.5 29t-84.5 100q-193 -144 -428 -144q-145 0 -241.5 85t-96.5 223zM231 293q0 -90 55.5 -140.5t159.5 -50.5q176 0 336 129l-239 418q-61 -25 -113 -58t-98.5 -77t-73.5 -101t-27 -120zM543 1014q0 -29 14 -67.5t29 -66.5t45 -81 q46 17 89 41t86 57.5t69 78t26 93.5q0 67 -47.5 105t-120.5 38q-34 0 -65.5 -10t-60.5 -31.5t-46.5 -62t-17.5 -94.5z" />
<glyph unicode="'" horiz-adv-x="456" d="M225 864l37 459h170l-123 -459h-84z" />
<glyph unicode="(" horiz-adv-x="915" d="M127 446q0 372 210 682t568 482l53 -105q-149 -81 -271.5 -190.5t-213 -241t-140.5 -288t-50 -322.5q0 -459 372 -684l-57 -103q-224 117 -347.5 322t-123.5 448z" />
<glyph unicode=")" horiz-adv-x="915" d="M-16 -219q149 81 271.5 190.5t213 241t140.5 288t50 322.5q0 459 -372 684l57 103q224 -117 347.5 -322t123.5 -448q0 -372 -210 -682t-568 -482z" />
<glyph unicode="*" horiz-adv-x="884" d="M141 866l310 133l-261 134l76 108l230 -180l30 311h129l-82 -309l279 172l57 -109l-309 -133l260 -133l-76 -108l-229 180l-31 -311h-129l82 309l-278 -172z" />
<glyph unicode="+" d="M133 569v107h406v401h110v-401h406v-107h-406v-403h-110v403h-406z" />
<glyph unicode="," horiz-adv-x="512" d="M-55 -217q92 74 138 162t46 207v57h178v-39q0 -270 -299 -461z" />
<glyph unicode="-" horiz-adv-x="716" d="M63 451l23 122h573l-22 -122h-574z" />
<glyph unicode="." horiz-adv-x="512" d="M72 90q0 59 40.5 95t90.5 36q52 0 84 -35t32 -82q0 -53 -36.5 -93t-92.5 -40q-55 0 -86.5 34.5t-31.5 84.5z" />
<glyph unicode="/" horiz-adv-x="1097" d="M-125 -481l1178 2068h129l-1180 -2068h-127z" />
<glyph unicode="0" d="M109 453q0 96 16 197t47 202.5t82 191t116.5 158.5t155.5 109.5t193 40.5q181 0 272.5 -125.5t91.5 -349.5q0 -120 -20.5 -242t-68 -243t-116 -213.5t-173 -150t-230.5 -57.5q-172 0 -269 129t-97 353zM268 451q0 -349 219 -349q90 0 165.5 51t124.5 132.5t83.5 185 t49 205t14.5 196.5q0 192 -56 270.5t-172 78.5q-76 0 -141 -37t-110.5 -99.5t-80.5 -141t-55.5 -166.5t-30.5 -169.5t-10 -156.5z" />
<glyph unicode="1" d="M150 0l22 115l307 8l189 1055l-316 -33l21 115l387 75h90l-213 -1212l293 -8l-23 -115h-757z" />
<glyph unicode="2" d="M33 0v63q347 285 476 405q261 243 330 414q31 74 31 144q0 93 -51 139.5t-135 46.5q-186 0 -379 -155l-69 119q96 77 215.5 126.5t240.5 49.5q160 0 251 -77.5t91 -234.5q0 -80 -30.5 -165t-85 -164t-120 -154.5t-144.5 -147.5t-149.5 -132t-143.5 -120q-9 -7 -13 -10 h582l-33 -147h-864z" />
<glyph unicode="3" d="M70 129l86 109q75 -63 164.5 -97.5t175.5 -34.5q125 0 208.5 68t83.5 195q0 57 -25.5 100t-62.5 67t-88.5 38.5t-94.5 19t-89 4.5h-84l23 129q209 13 347 95t138 218q0 80 -59 126t-140 46q-82 0 -167 -40t-156 -101l-64 111q77 74 190 122t230 48q143 0 235.5 -81 t92.5 -212q0 -133 -85 -230.5t-222 -146.5q104 -26 174.5 -106.5t70.5 -192.5q0 -122 -64 -217.5t-167.5 -145t-224.5 -49.5q-114 0 -225.5 40.5t-200.5 117.5z" />
<glyph unicode="4" d="M43 379v65l840 891h108l-145 -819h227l-24 -137h-228l-65 -379h-158l70 379h-625zM299 516h393l99 528z" />
<glyph unicode="5" d="M78 123l98 113q54 -56 137 -90.5t170 -34.5q152 0 244 78.5t92 209.5q0 70 -32.5 120t-89 76.5t-119 38t-134.5 11.5h-215l181 678h649l-33 -145h-510l-98 -390h71q79 0 150 -13t134.5 -42t109.5 -71.5t73 -106t27 -141.5q0 -132 -69 -234.5t-179.5 -155.5t-240.5 -53 q-132 0 -240 42.5t-176 109.5z" />
<glyph unicode="6" d="M113 399q0 151 50 289.5t137.5 246.5t205 194t253.5 142t283 81l21 -131q-265 -57 -443 -178t-266 -289q145 69 299 69q165 0 266 -95.5t101 -242.5q0 -137 -66.5 -254.5t-186.5 -188.5t-265 -71q-181 0 -285 120t-104 308zM272 410q0 -145 61 -224.5t175 -79.5 q138 0 243 102t105 255q0 108 -62 163.5t-169 55.5q-165 0 -330 -84q-23 -88 -23 -188z" />
<glyph unicode="7" d="M137 0l807 1176h-688l35 147h850v-92l-828 -1231h-176z" />
<glyph unicode="8" d="M92 299q0 253 348 401q-182 117 -182 277q0 168 129 271.5t315 103.5q159 0 263 -80.5t104 -212.5q0 -66 -27.5 -126t-75 -104.5t-103 -77.5t-118.5 -55q52 -32 89 -62t72 -70t53 -89.5t18 -107.5q0 -173 -127.5 -284.5t-355.5 -111.5q-107 0 -197.5 38.5t-147.5 114.5 t-57 175zM256 311q0 -92 75 -150.5t181 -58.5q132 0 218.5 69.5t86.5 178.5q0 76 -66 143t-188 138q-63 -20 -114.5 -47.5t-96.5 -66t-70.5 -91.5t-25.5 -115zM420 991q0 -62 45.5 -108t152.5 -111q51 12 100 35t93.5 56.5t72 81.5t27.5 102q0 82 -62.5 127t-164.5 45 q-110 0 -187 -61t-77 -167z" />
<glyph unicode="9" d="M121 102q263 57 440.5 177.5t265.5 287.5q-137 -67 -297 -67q-165 0 -265.5 95.5t-100.5 242.5q0 137 66.5 254.5t186.5 188.5t265 71q181 0 285 -120t104 -308q0 -151 -50 -289.5t-137.5 -246.5t-205.5 -194t-254 -142t-283 -81zM328 860q0 -108 62 -163.5t169 -55.5 q169 0 330 82q22 96 22 190q0 145 -61 224.5t-174 79.5q-138 0 -243 -102t-105 -255z" />
<glyph unicode=":" horiz-adv-x="512" d="M72 90q0 59 40.5 95t90.5 36q52 0 84 -35t32 -82q0 -53 -36.5 -93t-92.5 -40q-55 0 -86.5 34.5t-31.5 84.5zM182 725q0 59 40.5 95t90.5 36q52 0 84.5 -35t32.5 -82q0 -53 -36.5 -93t-92.5 -40q-55 0 -87 34.5t-32 84.5z" />
<glyph unicode=";" horiz-adv-x="512" d="M-55 -217q92 74 138 162t46 207v57h178v-39q0 -270 -299 -461zM182 725q0 59 40.5 95t90.5 36q52 0 84.5 -35t32.5 -82q0 -53 -36.5 -93t-92.5 -40q-55 0 -87 34.5t-32 84.5z" />
<glyph unicode="&#x3c;" d="M195 573v103l749 399l55 -100l-663 -350l663 -351l-55 -100z" />
<glyph unicode="=" d="M133 375v106h922v-106h-922zM133 764v106h922v-106h-922z" />
<glyph unicode="&#x3e;" d="M195 268l663 350l-663 351l55 100l749 -399v-103l-749 -399z" />
<glyph unicode="?" horiz-adv-x="839" d="M176 90q0 59 40.5 95t90.5 36q52 0 83.5 -35t31.5 -82q0 -53 -36.5 -93t-92.5 -40q-53 0 -85 35t-32 84zM223 1294q71 51 163.5 79t166.5 28q150 0 229.5 -70.5t79.5 -177.5q0 -69 -26 -127t-67.5 -99.5t-92 -79t-100.5 -74t-91.5 -75t-67.5 -91.5t-26 -115v-54h-139v76 q0 66 24.5 124.5t64 102t87.5 83t96 75t87.5 70.5t64 77t24.5 87q0 59 -43 96t-116 37q-59 0 -131 -23.5t-131 -60.5z" />
<glyph unicode="@" horiz-adv-x="1968" d="M102 287q0 166 40.5 323t125 295.5t204.5 242t290.5 164t370.5 60.5q106 0 206.5 -18.5t201.5 -65.5t176 -117.5t122 -184t47 -255.5q0 -116 -24 -224t-75.5 -206t-126.5 -171t-183.5 -116t-239.5 -43q-60 0 -92.5 18.5t-32.5 67.5q0 21 10 86q-69 -81 -153.5 -126.5 t-159.5 -45.5q-129 0 -197.5 95t-68.5 256q0 184 64 337.5t185.5 246.5t278.5 93q175 0 320 -94l-113 -674q-14 -86 -14 -104q0 -25 15.5 -34t49.5 -9q124 0 229 85.5t165.5 231.5t60.5 316q0 97 -22 177.5t-59 138t-89.5 102.5t-110 72.5t-125 45t-129 24.5t-127.5 7 q-175 0 -325 -54t-257 -148.5t-183 -222.5t-113 -275.5t-37 -307.5q0 -301 180.5 -473.5t519.5 -173.5q163 0 334.5 55.5t306.5 143.5l41 -82q-135 -91 -331 -148t-371 -57q-161 1 -292.5 39.5t-222 106.5t-152 162.5t-90 204t-28.5 233.5zM692 334q0 -104 36.5 -166 t109.5 -62q76 0 162 72t149 168l82 485q-60 43 -166 43q-105 0 -190.5 -72t-134 -195.5t-48.5 -272.5z" />
<glyph unicode="A" horiz-adv-x="1312" d="M-18 0l772 1372h104l313 -1372h-184l-78 393h-526l-211 -393h-190zM459 532h422l-113 572z" />
<glyph unicode="B" horiz-adv-x="1165" d="M86 0l242 1372h377q182 0 275 -73.5t93 -208.5q0 -260 -252 -353q106 -25 164.5 -100.5t58.5 -185.5q0 -205 -130 -328t-343 -123h-485zM272 137h258q157 0 252 77t95 228q0 102 -81.5 156.5t-230.5 54.5h-200zM389 791h158q96 0 177 30.5t133 93.5t52 148 q0 97 -57 134.5t-174 37.5h-211z" />
<glyph unicode="C" horiz-adv-x="1296" d="M133 565q0 134 33.5 258t101 229t161.5 183t222.5 122t276.5 44q195 0 348 -80l-49 -143q-135 75 -307 75q-189 0 -330 -89t-214 -243.5t-73 -353.5q0 -215 114.5 -328.5t323.5 -113.5q88 0 191.5 24.5t181.5 61.5l25 -150q-84 -38 -209 -64t-230 -26q-267 0 -417 164.5 t-150 429.5z" />
<glyph unicode="D" horiz-adv-x="1425" d="M86 0l242 1372h411q305 0 460 -139t155 -428q0 -138 -30.5 -258t-95.5 -221t-159.5 -173t-228.5 -112.5t-297 -40.5h-457zM272 137h279q140 0 255.5 42.5t200 124.5t131 211t46.5 294q0 94 -23 169t-72.5 134t-135.5 91t-205 32h-281z" />
<glyph unicode="E" horiz-adv-x="1054" d="M86 0l242 1372h772l-23 -137h-610l-78 -444h490l-23 -138h-491l-91 -516h613l-23 -137h-778z" />
<glyph unicode="F" horiz-adv-x="1034" d="M86 0l242 1372h772l-23 -137h-610l-80 -453h506l-23 -137h-508l-112 -645h-164z" />
<glyph unicode="G" horiz-adv-x="1400" d="M133 555q0 177 58.5 331t165 268.5t267.5 180.5t355 66q219 0 391 -86l-49 -141q-158 79 -356 79q-200 0 -352 -90.5t-231 -246t-79 -351.5q0 -222 121.5 -333t341.5 -111q153 0 270 45l66 369h-264l22 137h428l-106 -615q-84 -36 -211.5 -61t-257.5 -25 q-267 0 -423.5 161.5t-156.5 422.5z" />
<glyph unicode="H" horiz-adv-x="1472" d="M86 0l242 1372h164l-105 -584h793l104 584h164l-242 -1372h-164l115 651h-792l-115 -651h-164z" />
<glyph unicode="I" horiz-adv-x="516" d="M86 0l242 1372h164l-242 -1372h-164z" />
<glyph unicode="J" horiz-adv-x="559" d="M-127 -104q156 73 219 159.5t94 268.5l181 1048h161l-176 -1034q-20 -117 -48.5 -199t-77.5 -152t-122 -120t-180 -92z" />
<glyph unicode="K" horiz-adv-x="1234" d="M86 0l242 1372h164l-242 -1372h-164zM416 715l639 657h213l-666 -661l340 -523q25 -38 45 -48.5t62 -10.5h38v-129q-57 -14 -100 -14q-64 0 -98.5 26t-79.5 94z" />
<glyph unicode="L" horiz-adv-x="1044" d="M86 0l242 1372h164l-218 -1237h633l-22 -135h-799z" />
<glyph unicode="M" horiz-adv-x="1703" d="M86 0l242 1372h186l293 -1118l690 1118h182l-239 -1372h-164l186 1038l-647 -1038h-102l-279 1047l-184 -1047h-164z" />
<glyph unicode="N" horiz-adv-x="1417" d="M86 0l242 1372h172l553 -1028l176 1028h164l-242 -1372h-98l-604 1133l-199 -1133h-164z" />
<glyph unicode="O" horiz-adv-x="1482" d="M133 522q0 132 31 258.5t94.5 239t152 197.5t212.5 134.5t268 49.5q134 0 236 -41.5t163 -115.5t91 -168t30 -206q0 -142 -32 -274t-96.5 -246t-155.5 -198.5t-216.5 -132.5t-271.5 -48q-107 0 -192.5 28.5t-143.5 78.5t-96.5 120t-56 150.5t-17.5 173.5zM303 526 q0 -205 88 -307t273 -102q117 0 214.5 44t163.5 117t111.5 169t66.5 199t21 208q0 203 -92 302t-283 99q-108 0 -200.5 -41t-158.5 -111.5t-112.5 -163.5t-69 -198t-22.5 -215z" />
<glyph unicode="P" horiz-adv-x="1114" d="M86 0l242 1372h407q176 0 272.5 -86t96.5 -233q0 -241 -149 -360.5t-433 -119.5h-172l-100 -573h-164zM375 711h182q182 0 283.5 80.5t101.5 246.5q0 197 -254 197h-221z" />
<glyph unicode="Q" horiz-adv-x="1482" d="M133 522q0 132 31 258.5t94.5 239t152 197.5t212.5 134.5t268 49.5q134 0 236 -41.5t163 -115.5t91 -168t30 -206q0 -130 -26.5 -251.5t-80.5 -229t-130.5 -191.5t-181.5 -141t-228 -75q97 -171 172.5 -245.5t157.5 -74.5h57v-127q-47 -16 -119 -16q-38 0 -77 16 t-72 39.5t-68.5 63t-62.5 75t-59 87t-52.5 87t-48.5 86.5q-120 7 -210.5 53t-143.5 121.5t-79 169t-26 205.5zM303 526q0 -205 88 -307t273 -102q117 0 214.5 44t163.5 117t111.5 169t66.5 199t21 208q0 203 -92 302t-283 99q-108 0 -200.5 -41t-158.5 -111.5t-112.5 -163.5 t-69 -198t-22.5 -215z" />
<glyph unicode="R" horiz-adv-x="1222" d="M86 0l242 1372h405q180 0 276.5 -84t96.5 -239q0 -168 -102 -281.5t-277 -142.5q61 -35 98 -133l117 -293q17 -41 34.5 -55.5t49.5 -14.5h57v-129q-51 -14 -122 -14q-61 0 -95.5 29t-66.5 108l-144 360q-27 66 -60 94.5t-110 28.5h-129l-106 -606h-164zM381 750h246 q136 0 225.5 76t89.5 210q0 199 -250 199h-225z" />
<glyph unicode="S" horiz-adv-x="1040" d="M10 74l51 147q162 -108 345 -108q59 0 116.5 14.5t108 43.5t81.5 79.5t31 114.5q0 25 -7 47.5t-15.5 40.5t-29.5 39t-35 34t-47 35.5t-50.5 33.5t-61 38t-63.5 39q-55 34 -91.5 63t-70.5 67.5t-50.5 86.5t-16.5 106q0 101 38.5 180.5t105 127.5t149.5 73t178 25 q207 0 334 -76l-49 -143q-112 75 -283 75q-59 0 -112 -13t-98.5 -41t-72 -77.5t-26.5 -115.5q0 -25 6.5 -47.5t21.5 -42.5t29 -35t41 -33.5t44 -29.5t51.5 -31.5t51.5 -30.5q130 -81 180 -126q115 -103 115 -235q0 -198 -138.5 -313t-381.5 -115q-114 0 -215 31t-164 72z " />
<glyph unicode="T" horiz-adv-x="1267" d="M209 1235l24 137h1094l-24 -137h-465l-217 -1235h-164l217 1235h-465z" />
<glyph unicode="U" horiz-adv-x="1366" d="M143 348q0 52 9 107l161 917h164l-158 -891q-10 -55 -10 -110q0 -254 332 -254q326 0 395 383l156 872h164l-162 -917q-86 -484 -590 -484q-205 0 -333 97.5t-128 279.5z" />
<glyph unicode="V" horiz-adv-x="1277" d="M199 1372h174l219 -1081l582 1081h180l-758 -1372h-92z" />
<glyph unicode="W" horiz-adv-x="1882" d="M209 1372h172l145 -1081l430 833l-43 248h177l165 -1079l519 1079h174l-691 -1372h-98l-162 901l-473 -901h-96z" />
<glyph unicode="X" horiz-adv-x="1320" d="M0 0l600 733l-307 639h188l236 -526l416 526h198l-549 -663l357 -709h-193l-280 596l-459 -596h-207z" />
<glyph unicode="Y" horiz-adv-x="1218" d="M209 1372h176l254 -676l461 676h188l-592 -833l-92 -539h-164l97 549z" />
<glyph unicode="Z" horiz-adv-x="1243" d="M31 0v82l966 1153h-723l25 137h944v-86l-969 -1149h795l-22 -137h-1016z" />
<glyph unicode="[" horiz-adv-x="821" d="M29 -322l342 1942h549l-21 -115h-397l-301 -1712h397l-20 -115h-549z" />
<glyph unicode="\" horiz-adv-x="1097" d="M270 1587h123l576 -2068h-125z" />
<glyph unicode="]" horiz-adv-x="821" d="M-51 -322l18 115h398l301 1712h-398l21 115h549l-342 -1942h-547z" />
<glyph unicode="^" d="M143 602l400 750h102l399 -750l-100 -55l-350 663l-350 -663z" />
<glyph unicode="_" d="M-141 -326l20 107h1145l-20 -107h-1145z" />
<glyph unicode="`" horiz-adv-x="819" d="M344 1473l180 53l172 -346l-69 -37z" />
<glyph unicode="a" horiz-adv-x="1056" d="M96 322q0 184 63.5 337.5t186 246.5t279.5 93q174 0 319 -94l-113 -667q-14 -86 -14 -105q0 -28 23 -37.5t88 -11.5v-84q-99 -29 -172 -29q-50 0 -70 19.5t-20 60.5q0 36 10 92q-68 -80 -153 -126t-161 -46q-129 0 -197.5 95t-68.5 256zM246 334q0 -104 36 -166t109 -62 q76 0 162 72t149 168l82 485q-60 43 -166 43q-105 0 -190.5 -72t-133.5 -195.5t-48 -272.5z" />
<glyph unicode="b" horiz-adv-x="1036" d="M86 66l242 1388l153 33l-114 -645q70 74 152.5 115.5t156.5 41.5q129 0 198.5 -94.5t69.5 -255.5q0 -178 -62.5 -331t-185.5 -250t-282 -97q-182 0 -328 95zM244 139q23 -17 70.5 -30t103.5 -13q107 0 194 75t135 198.5t48 267.5q0 101 -38 163t-112 62q-78 0 -167.5 -71 t-147.5 -162z" />
<glyph unicode="c" horiz-adv-x="901" d="M92 324q0 137 40.5 260.5t111 215t173.5 145.5t222 54q62 0 121.5 -19t99.5 -50l-51 -121q-77 65 -188 65q-101 0 -189 -76t-139 -199t-51 -259q0 -236 209 -236q132 0 272 93l35 -123q-56 -39 -154.5 -71t-173.5 -32q-70 0 -127.5 17t-106.5 55.5t-76.5 109.5t-27.5 171 z" />
<glyph unicode="d" horiz-adv-x="1095" d="M96 326q0 146 42 272t113.5 213.5t169.5 137.5t208 50q108 0 196 -30l84 485l154 33l-219 -1249q-15 -92 -15 -107q0 -26 23.5 -35.5t87.5 -11.5v-84q-85 -29 -172 -29q-51 0 -70.5 18.5t-19.5 63.5q0 32 10 90q-69 -76 -155.5 -124t-161.5 -48q-132 0 -203.5 92 t-71.5 263zM246 340q0 -110 36.5 -172t110.5 -62q71 0 165 70.5t159 175.5l84 477q-73 45 -172 45q-110 0 -198.5 -73t-136.5 -195t-48 -266z" />
<glyph unicode="e" horiz-adv-x="921" d="M92 326q0 148 45.5 276t120 213.5t170.5 134.5t197 49q112 0 184 -54t72 -150q0 -168 -161 -275.5t-478 -116.5q-2 -18 -2 -55q0 -124 46.5 -184t164.5 -60q68 0 153.5 29.5t155.5 79.5l35 -125q-92 -65 -191 -91t-176 -26q-175 0 -255.5 95t-80.5 260zM264 520 q80 3 155 18t147.5 43t116.5 79t44 118q0 45 -30 69.5t-87 24.5q-106 0 -204.5 -100.5t-141.5 -251.5z" />
<glyph unicode="f" horiz-adv-x="694" d="M-195 -446l39 120q54 -28 111 -28q34 0 59.5 11t42 29.5t29.5 50.5t21 64.5t16 81.5l166 961h-160l25 127h157l15 86q16 99 48.5 176.5t71 124t86.5 76.5t92 41.5t91 11.5q37 0 77 -10t60 -23l-49 -119q-39 25 -92 25q-188 0 -244 -328l-10 -61h233l-20 -127h-236 l-166 -969q-31 -180 -99.5 -268t-207.5 -88q-91 0 -156 35z" />
<glyph unicode="g" horiz-adv-x="1038" d="M51 -406l39 127q57 -31 137.5 -53t147.5 -22q116 0 180.5 84t95.5 268l23 133q-72 -76 -150 -118t-149 -42q-138 0 -208.5 93.5t-70.5 267.5q0 189 72 343t194.5 239t268.5 85q89 0 175.5 -26t149.5 -66l-157 -903q-16 -90 -36 -159.5t-53.5 -133t-77 -104t-107.5 -64.5 t-144 -24q-84 0 -174.5 20t-155.5 55zM246 340q0 -104 35 -169t108 -65q78 0 168 70t154 166l86 487q-55 45 -162 45q-168 0 -278.5 -153t-110.5 -381z" />
<glyph unicode="h" horiz-adv-x="1083" d="M82 0l252 1454l153 33l-112 -647q142 159 315 159q115 0 182.5 -72t67.5 -192q0 -88 -22 -217l-52 -305q-10 -59 -10 -82q0 -29 27 -38t84 -9v-84q-104 -29 -181 -29q-50 0 -70 19.5t-20 60.5q0 8 17 123l53 315q29 183 29 228q0 63 -34 105t-102 42q-85 0 -174 -71 t-147 -164l-109 -629h-147z" />
<glyph unicode="i" horiz-adv-x="528" d="M121 49q0 30 16 123l101 576q12 75 12 88q0 29 -26.5 39t-84.5 12l17 84q96 28 176 28q47 0 62.5 -16t15.5 -49q0 -44 -19 -156l-102 -565q-10 -64 -10 -82q0 -28 27.5 -37.5t82.5 -9.5v-84q-34 -13 -89 -21t-89 -8q-90 0 -90 78zM281 1313q0 51 35 82.5t79 31.5 q46 0 74.5 -30.5t28.5 -71.5q0 -48 -32 -83.5t-81 -35.5q-48 0 -76 31t-28 76z" />
<glyph unicode="j" horiz-adv-x="493" d="M-215 -444l37 118q63 -26 117 -26q69 0 104.5 54.5t58.5 180.5l150 860q12 81 12 88q0 31 -24 42.5t-86 13.5l16 84q86 28 178 28q44 0 60 -16.5t16 -48.5q0 -50 -18 -156l-158 -897q-33 -185 -104.5 -273.5t-200.5 -88.5q-39 0 -87 10.5t-71 26.5zM287 1323q0 51 35 83 t79 32q46 0 74.5 -30.5t28.5 -72.5q0 -48 -32 -83t-81 -35q-48 0 -76 30.5t-28 75.5z" />
<glyph unicode="k" horiz-adv-x="1003" d="M82 0l252 1454l153 33l-258 -1487h-147zM375 530l399 441h199l-434 -451l184 -373q20 -39 47.5 -51t91.5 -12v-84q-74 -29 -137 -29q-51 0 -79.5 24.5t-53.5 78.5z" />
<glyph unicode="l" horiz-adv-x="505" d="M92 45q0 28 17 127l225 1282l153 33l-225 -1272q-10 -59 -10 -84q0 -29 27 -38t86 -9v-84q-34 -10 -92 -19.5t-89 -9.5q-92 0 -92 74z" />
<glyph unicode="m" horiz-adv-x="1654" d="M109 0l129 748q12 75 12 88q0 29 -24.5 39t-86.5 12l17 84q110 28 174 28q47 0 63.5 -16t16.5 -49q0 -18 -9 -92q140 157 295 157q98 0 160.5 -58.5t75.5 -147.5q78 94 159 150t175 56q106 0 175.5 -70t69.5 -198q0 -74 -24 -225l-49 -293q-11 -65 -11 -82q0 -29 27 -38 t84 -9v-84q-104 -29 -176 -29q-51 0 -72.5 19t-21.5 59t16 123l53 320q29 174 29 219q0 70 -33.5 111.5t-91.5 41.5q-82 0 -170 -75t-139 -168l-103 -621h-147l82 489q29 179 29 224q0 70 -33 110.5t-92 40.5q-80 0 -163 -69t-140 -160l-111 -635h-145z" />
<glyph unicode="n" horiz-adv-x="1107" d="M109 0l129 748q12 75 12 88q0 29 -24.5 39t-86.5 12l17 84q110 28 174 28q47 0 63.5 -16t16.5 -49q0 -18 -9 -92q144 157 314 157q115 0 182.5 -72t67.5 -192q0 -82 -23 -217l-51 -305q-10 -59 -10 -82q0 -29 26.5 -38t83.5 -9v-84q-104 -29 -180 -29q-50 0 -70 19.5 t-20 60.5q0 15 16 123l54 315q28 176 28 228q0 64 -33.5 105.5t-101.5 41.5q-84 0 -172.5 -70t-146.5 -161l-111 -633h-145z" />
<glyph unicode="o" horiz-adv-x="1017" d="M92 336q0 97 19 190.5t60.5 179.5t100 151t143.5 103.5t185 38.5q151 0 238.5 -94t87.5 -270q0 -97 -19 -191t-60.5 -180t-100 -151t-143.5 -103.5t-185 -38.5q-151 0 -238.5 94t-87.5 271zM242 344q0 -248 200 -248q135 0 234.5 151.5t99.5 379.5q0 247 -201 247 q-135 0 -234 -151t-99 -379z" />
<glyph unicode="p" horiz-adv-x="1067" d="M31 -453l205 1201q12 75 12 90q0 29 -26 38t-85 11l17 84q109 28 182 28q42 0 57 -17.5t15 -49.5q0 -20 -9 -90q61 67 142.5 112t165.5 45q132 0 200 -96.5t68 -247.5q0 -141 -38.5 -266t-107 -217.5t-169 -146.5t-218.5 -54q-93 0 -188 29l-78 -453h-145zM276 137 q25 -18 74 -29.5t92 -11.5q113 0 201.5 76.5t135 199.5t46.5 267q0 98 -36 161.5t-113 63.5t-169 -73t-142 -158z" />
<glyph unicode="q" horiz-adv-x="1038" d="M96 322q0 190 67 344t191 243.5t283 89.5q180 0 319 -94l-227 -1358h-149l100 588q-70 -76 -151.5 -120t-155.5 -44q-132 0 -204.5 91.5t-72.5 259.5zM246 334q0 -107 37.5 -167.5t111.5 -60.5q78 0 169 74t153 168l82 483q-78 43 -168 43q-162 0 -273.5 -152 t-111.5 -388z" />
<glyph unicode="r" horiz-adv-x="747" d="M109 0l129 748q12 75 12 88q0 29 -24.5 39t-86.5 12l17 84q110 28 174 28q47 0 63.5 -16t16.5 -49q0 -36 -13 -121q158 186 277 186q21 0 39.5 -10t23.5 -20l-37 -148q-18 6 -51 6q-58 0 -125 -45.5t-157 -144.5l-113 -637h-145z" />
<glyph unicode="s" horiz-adv-x="770" d="M0 70l57 116q42 -35 114 -63.5t144 -28.5q85 0 140 45t55 115q0 36 -21 67t-55 55t-74.5 48t-81.5 51t-75 58t-55 76t-21 98q0 135 95 213.5t239 78.5q68 0 135 -17.5t113 -45.5l-52 -119q-36 24 -91 42t-111 18q-87 0 -137 -43t-50 -109q0 -36 21 -67t55 -54.5 t74.5 -47.5t81.5 -51.5t75 -59.5t55 -78.5t21 -102.5q0 -133 -92.5 -213t-255.5 -80q-168 0 -303 99z" />
<glyph unicode="t" horiz-adv-x="729" d="M113 844l24 127h148l86 256h104l-45 -256h258l-20 -127h-258l-99 -580q-12 -74 -12 -108q0 -25 21.5 -41.5t54.5 -16.5q38 0 91.5 16.5t90.5 37.5l29 -115q-45 -24 -117 -45t-129 -21q-86 0 -137 41.5t-51 126.5q0 55 12 125l96 580h-147z" />
<glyph unicode="u" horiz-adv-x="1095" d="M102 887l17 84q86 28 174 28q82 0 82 -67q0 -31 -21 -154l-65 -389q-17 -122 -17 -149q0 -60 37 -97t97 -37q88 0 176 73t151 171l103 621h147l-129 -758q-8 -47 -8 -82q0 -28 28 -37.5t82 -9.5v-84q-107 -29 -168 -29q-51 0 -72.5 19.5t-21.5 58.5q0 5 11 96 q-70 -80 -156 -127t-166 -47q-116 0 -185 68.5t-69 185.5q0 72 12 154l60 369q12 75 12 88q0 29 -26.5 39t-84.5 12z" />
<glyph unicode="v" horiz-adv-x="937" d="M72 887l16 84q72 28 131 28q61 0 79.5 -31.5t31.5 -129.5l84 -586l202 326q81 132 107.5 191t26.5 110q0 41 -13 82l125 40q35 -64 35 -122q0 -119 -133 -324l-361 -555h-90l-123 813q-6 45 -26 59t-92 15z" />
<glyph unicode="w" horiz-adv-x="1390" d="M72 887l16 84q74 28 129 28q61 0 80.5 -30t32.5 -125l76 -570l196 398q68 143 68 207q0 38 -8 82l141 38l100 -737l184 311q117 199 117 304q0 37 -14 84l127 40q33 -60 33 -120q0 -68 -25.5 -140t-95.5 -188l-338 -553h-88l-84 625l-311 -625h-95l-123 809q-6 36 -13 49 t-29.5 20t-75.5 9z" />
<glyph unicode="x" horiz-adv-x="962" d="M0 0l406 502l-117 291q-17 42 -28 58t-37.5 25t-82.5 11l17 84q62 28 129 28q43 0 65 -28t51 -99l107 -262l260 361h172l-381 -486l129 -313q22 -54 49.5 -70t96.5 -18v-84q-65 -29 -119 -29q-58 0 -92 34.5t-70 125.5l-96 240l-287 -371h-172z" />
<glyph unicode="y" horiz-adv-x="937" d="M-82 -418l37 121q53 -31 108 -31q35 0 67 15.5t55.5 37t51 62.5t45 74t46.5 90l34 69l-163 793q-9 47 -27.5 59t-91.5 15l16 84q68 28 133 28q52 0 72 -26t39 -117l125 -653l180 362q94 189 94 307q0 53 -14 93l129 36q33 -59 33 -137q0 -140 -111 -350l-325 -620 q-27 -52 -40.5 -77t-40.5 -69.5t-45.5 -67t-48.5 -52.5t-58 -44.5t-65.5 -25.5t-78.5 -11q-88 0 -156 35z" />
<glyph unicode="z" horiz-adv-x="921" d="M31 0v70l600 774h-488l21 127h686v-74l-610 -770h561l-21 -127h-749z" />
<glyph unicode="{" horiz-adv-x="903" d="M68 590l22 121q109 18 166 47.5t86 82t47 154.5l53 314q17 96 48 157t84.5 95t119.5 46.5t166 12.5h119l-21 -113h-94q-61 0 -100 -6.5t-75 -27t-58 -61t-33 -105.5l-55 -310q-16 -89 -35.5 -144.5t-55 -99t-88 -68t-133.5 -40.5q108 -34 154.5 -88t46.5 -149 q0 -73 -37 -257t-37 -237q0 -73 48 -98t151 -25h100l-20 -113h-129q-165 0 -236 46.5t-71 162.5q0 72 37.5 266.5t37.5 258.5q0 84 -45 120.5t-163 57.5z" />
<glyph unicode="|" horiz-adv-x="614" d="M266 -481v2068h123v-2068h-123z" />
<glyph unicode="}" horiz-adv-x="903" d="M-61 -322l20 113h94q61 0 100.5 7t75 27.5t57.5 61t33 105.5l56 309q16 89 35.5 144.5t54.5 99t87.5 68t133.5 40.5q-108 34 -154.5 88.5t-46.5 149.5q0 73 37 256.5t37 236.5q0 73 -48 98t-151 25h-100l21 113h129q165 0 236 -46.5t71 -162.5q0 -72 -38 -266t-38 -258 q0 -84 45.5 -120.5t163.5 -57.5l-23 -121q-109 -18 -166 -48t-86 -82.5t-47 -154.5l-53 -313q-17 -96 -48 -157.5t-84.5 -95.5t-119.5 -46.5t-166 -12.5h-118z" />
<glyph unicode="~" d="M133 502q27 111 86.5 173t147.5 62q47 0 112.5 -20t121 -43.5t117.5 -43.5t101 -20q56 0 86 36t49 108l101 -27q-27 -111 -86.5 -173t-147.5 -62q-58 0 -146.5 31.5t-172.5 63t-133 31.5q-56 0 -86.5 -36t-49.5 -107z" />
<glyph unicode="&#xa1;" horiz-adv-x="450" d="M-47 -401l237 974h89l-89 -974h-237zM162 868q0 59 40.5 95t90.5 36q52 0 84.5 -35t32.5 -81q0 -53 -36.5 -93t-92.5 -40q-55 0 -87 34t-32 84z" />
<glyph unicode="&#xa2;" d="M174 352q0 252 134 429.5t351 209.5l39 223h107l-39 -215q131 -6 242 -65l-52 -119q-41 24 -100 41t-113 18l-135 -770q120 10 262 91l35 -119q-56 -35 -143.5 -63.5t-175.5 -37.5l-37 -208h-107l37 206q-145 15 -225 115.5t-80 263.5zM324 369q0 -225 180 -258l131 749 q-99 -27 -172 -109t-106 -181t-33 -201z" />
<glyph unicode="&#xa3;" d="M51 0v72q68 35 129 80t116 103t87.5 131t32.5 149q0 25 -8 79h-236l18 101h197q-16 72 -16 149q0 223 131.5 355.5t333.5 132.5q125 0 219 -25l-43 -139q-82 20 -176 20q-142 0 -221.5 -82.5t-79.5 -251.5q0 -66 22 -159h375l-19 -101h-338q5 -50 5 -61 q0 -131 -70.5 -228t-208.5 -178h596l-31 -147h-815z" />
<glyph unicode="&#xa4;" d="M98 256l162 137q-35 63 -35 156q0 163 101 282l-131 150l92 78l127 -148q106 72 235 72q118 0 197 -57l166 141l67 -84l-161 -137q34 -61 34 -150q0 -169 -100 -290l131 -148l-92 -78l-127 146q-107 -70 -242 -70q-116 0 -190 55l-166 -139zM375 557q0 -83 43.5 -132.5 t126.5 -49.5q115 0 187.5 93t72.5 218q0 85 -45 131.5t-131 46.5q-113 0 -183.5 -92.5t-70.5 -214.5z" />
<glyph unicode="&#xa5;" d="M170 354l18 101h287l25 141h-287l18 100h232l-268 627h178l227 -590l428 590h189l-484 -627h240l-19 -100h-290l-25 -141h291l-19 -101h-290l-62 -354h-164l62 354h-287z" />
<glyph unicode="&#xa6;" horiz-adv-x="614" d="M266 276h123v-757h-123v757zM266 829v758h123v-758h-123z" />
<glyph unicode="&#xa7;" horiz-adv-x="964" d="M72 -135l49 112q108 -53 217 -53q84 0 143.5 37t59.5 107q0 40 -30.5 80t-76 71t-98.5 69.5t-98.5 75.5t-76 89t-30.5 110q0 122 92.5 203.5t239.5 112.5q-47 33 -78.5 64.5t-54.5 77.5t-23 99q0 72 28.5 127.5t77.5 88t109 49t129 16.5q148 0 267 -64l-50 -112 q-108 53 -217 53q-84 0 -143 -36.5t-59 -106.5q0 -40 30.5 -80t75.5 -71t98.5 -70t98.5 -76t75.5 -89t30.5 -110q0 -121 -93 -202.5t-239 -112.5q73 -54 114.5 -111t41.5 -131q0 -72 -28.5 -127.5t-77.5 -88t-109 -49t-129 -16.5q-147 0 -266 64zM279 586q0 -54 34 -96.5 t99 -88.5q52 8 101.5 24.5t95.5 42t74 64t28 84.5q0 53 -35 96t-98 87q-53 -8 -102.5 -24t-95.5 -41t-73.5 -63.5t-27.5 -84.5z" />
<glyph unicode="&#xa8;" horiz-adv-x="819" d="M250 1313q0 49 33 78.5t75 29.5q43 0 70 -29t27 -67q0 -44 -30.5 -78.5t-76.5 -34.5q-44 0 -71 29.5t-27 71.5zM659 1313q0 48 33 78t76 30t69.5 -28.5t26.5 -67.5q0 -45 -30 -79t-76 -34q-44 0 -71.5 30t-27.5 71z" />
<glyph unicode="&#xa9;" horiz-adv-x="1658" d="M143 688q0 145 57 277.5t153 227.5t228.5 151.5t278.5 56.5t278.5 -56.5t228.5 -151.5t153 -227.5t57 -277.5q0 -147 -57 -280t-153 -228.5t-228.5 -152t-278.5 -56.5t-278.5 56.5t-228.5 152t-153 228.5t-57 280zM236 688q0 -128 50 -244.5t133.5 -200t199 -133 t241.5 -49.5q170 0 314 83.5t227.5 228t83.5 315.5q0 169 -83.5 313t-227.5 228t-314 84q-168 0 -312 -84t-228 -228t-84 -313zM492 674q0 186 108 297.5t291 111.5q115 0 209 -51l-21 -114q-86 51 -182 51q-136 0 -208.5 -81t-72.5 -214q0 -135 77.5 -205t215.5 -70 q111 0 195 43l12 -106q-41 -24 -103 -37.5t-120 -13.5q-181 0 -291 101t-110 288z" />
<glyph unicode="&#xaa;" horiz-adv-x="802" d="M174 922q0 131 47 239t139 174t211 66q131 0 242 -66l-84 -454q-10 -55 -10 -74q0 -22 16 -28.5t66 -6.5v-78q-66 -20 -133 -20q-78 0 -78 57q0 25 2 45q-97 -102 -217 -102q-96 0 -148.5 67.5t-52.5 180.5zM297 930q0 -146 96 -146q54 0 115.5 41.5t105.5 100.5l60 342 q-47 28 -111 28q-63 0 -114.5 -33t-84 -86.5t-50 -117.5t-17.5 -129z" />
<glyph unicode="&#xab;" horiz-adv-x="1099" d="M102 487l439 424l77 -71l-342 -361l226 -348l-94 -68zM502 487l438 424l78 -71l-342 -361l225 -348l-94 -68z" />
<glyph unicode="&#xac;" d="M133 764v106h922v-495h-111v389h-811z" />
<glyph unicode="&#xad;" horiz-adv-x="716" d="M63 451l23 122h573l-22 -122h-574z" />
<glyph unicode="&#xae;" horiz-adv-x="1658" d="M143 688q0 145 57 277.5t153 227.5t228.5 151.5t278.5 56.5t278.5 -56.5t228.5 -151.5t153 -227.5t57 -277.5q0 -147 -57 -280t-153 -228.5t-228.5 -152t-278.5 -56.5t-278.5 56.5t-228.5 152t-153 228.5t-57 280zM236 688q0 -128 50 -244.5t133.5 -200t199 -133 t241.5 -49.5q170 0 314 83.5t227.5 228t83.5 315.5q0 169 -83.5 313t-227.5 228t-314 84q-168 0 -312 -84t-228 -228t-84 -313zM627 305v760h252q112 0 177.5 -54.5t65.5 -158.5q0 -82 -42 -140.5t-128 -82.5q39 -19 78 -78l80 -131q23 -39 55 -39h33v-84q-32 -8 -65 -8 q-71 0 -123 80l-131 204q-26 43 -76 43h-58v-311h-118zM745 725h115q69 0 106.5 34t37.5 87q0 56 -36 86.5t-102 30.5h-121v-238z" />
<glyph unicode="&#xaf;" horiz-adv-x="819" d="M266 1221l21 122h553l-21 -122h-553z" />
<glyph unicode="&#xb0;" d="M317 995q0 153 99.5 255t259.5 102q130 0 213.5 -82.5t83.5 -216.5q0 -153 -99.5 -254t-259.5 -101q-130 0 -213.5 81.5t-83.5 215.5zM438 989q0 -82 53.5 -137t126.5 -55q100 0 167 72t67 190q0 82 -53.5 138t-126.5 56q-100 0 -167 -73t-67 -191z" />
<glyph unicode="&#xb1;" d="M133 0v106h922v-106h-922zM133 631v106h406v361h110v-361h406v-106h-406v-363h-110v363h-406z" />
<glyph unicode="&#xb2;" horiz-adv-x="819" d="M111 670v63q105 65 178 113t155 110t132 112.5t83 107.5t33 108q0 105 -123 105q-126 0 -256 -93l-59 101q64 46 152 78t178 32q116 0 184 -55t68 -162q0 -50 -19.5 -100.5t-56.5 -97t-77 -86.5t-96 -82t-97 -70t-95 -63h363l-27 -121h-620z" />
<glyph unicode="&#xb3;" horiz-adv-x="819" d="M133 752l78 96q115 -82 229 -82q82 0 135.5 31.5t53.5 97.5q0 39 -24.5 67t-63.5 42t-77.5 20t-76.5 6h-53l18 103q326 18 326 172q0 86 -119 86q-57 0 -120 -22.5t-107 -57.5l-56 94q55 45 137 73.5t167 28.5q106 0 172.5 -48.5t66.5 -137.5q0 -87 -60.5 -149.5 t-156.5 -88.5q71 -20 118.5 -70t47.5 -116q0 -80 -45 -137.5t-116 -84t-158 -26.5q-85 0 -169.5 28.5t-146.5 74.5z" />
<glyph unicode="&#xb4;" horiz-adv-x="819" d="M348 1184l250 342l170 -62l-350 -321z" />
<glyph unicode="&#xb5;" horiz-adv-x="1130" d="M80 -225q0 65 12 129l144 844q12 75 12 88q0 29 -26.5 39t-84.5 12l17 84q86 28 174 28q82 0 82 -67q0 -31 -21 -154l-65 -389q-17 -122 -17 -149q0 -60 36.5 -97t96.5 -37q88 0 177 73t151 171l102 621h148l-129 -758q-8 -47 -8 -82q0 -28 28.5 -37.5t81.5 -9.5v-84 q-107 -29 -168 -29q-51 0 -72.5 19.5t-21.5 58.5q0 14 10 96q-71 -80 -156 -127t-165 -47q-53 0 -97 15t-65 34l-16 -94q-15 -79 -15 -131q0 -67 22.5 -104t71.5 -68l-67 -104q-172 44 -172 256z" />
<glyph unicode="&#xb6;" horiz-adv-x="1337" d="M188 895q0 225 150.5 351t398.5 126h637l-22 -121h-172l-250 -1423h-146l250 1425h-180l-250 -1425h-145l127 723q-194 0 -296 96.5t-102 247.5zM330 897q0 -113 71 -172t205 -59l103 587q-173 -3 -276 -92.5t-103 -263.5z" />
<glyph unicode="&#xb7;" horiz-adv-x="512" d="M160 616q0 59 40.5 95.5t90.5 36.5q52 0 84.5 -35t32.5 -82q0 -53 -36.5 -93t-92.5 -40q-55 0 -87 34t-32 84z" />
<glyph unicode="&#xb8;" horiz-adv-x="819" d="M51 -442l29 71q59 -32 131 -32q52 0 83.5 20.5t31.5 58.5q0 43 -44 63t-137 23l-8 37l195 201h112l-133 -131q84 -1 124 -39t40 -98q0 -89 -78.5 -151t-183.5 -62q-92 0 -162 39z" />
<glyph unicode="&#xb9;" horiz-adv-x="819" d="M190 670l19 98l211 8l123 594l-213 -20l18 100l281 47h76l-148 -721l201 -8l-19 -98h-549z" />
<glyph unicode="&#xba;" horiz-adv-x="819" d="M172 954q0 195 103 321t272 126q127 0 199.5 -77t72.5 -204q0 -195 -103 -320.5t-272 -125.5q-127 0 -199.5 76.5t-72.5 203.5zM295 971q0 -195 156 -195q105 0 175 92t70 236q0 194 -155 194q-105 0 -175.5 -92t-70.5 -235z" />
<glyph unicode="&#xbb;" horiz-adv-x="1099" d="M82 135l342 361l-225 348l94 67l305 -424l-438 -424zM481 135l342 361l-225 348l94 67l305 -424l-438 -424z" />
<glyph unicode="&#xbc;" horiz-adv-x="2048" d="M102 508l19 98l211 8l123 594l-213 -20l18 100l281 47h75l-147 -721l201 -8l-19 -98h-549zM444 47l1201 1305l86 -76l-1201 -1305zM1212 213v70l603 544h92l-103 -501h142l-21 -113h-143l-43 -213h-140l43 213h-430zM1417 326h250l57 280z" />
<glyph unicode="&#xbd;" horiz-adv-x="2048" d="M102 508l19 98l211 8l123 594l-213 -20l18 100l281 47h75l-147 -721l201 -8l-19 -98h-549zM389 47l1200 1305l86 -76l-1200 -1305zM1221 0v63q105 65 178 113t155 110t132 112.5t83 107.5t33 108q0 105 -123 105q-128 0 -256 -92l-59 100q64 46 152 78.5t178 32.5 q116 0 184 -55t68 -162q0 -59 -30 -121t-72.5 -111t-108 -103.5t-115 -88.5t-115.5 -76h363l-27 -121h-620z" />
<glyph unicode="&#xbe;" horiz-adv-x="2048" d="M102 580l78 96q115 -82 230 -82q82 0 135 31.5t53 97.5q0 39 -24.5 67t-63.5 42t-77.5 20t-76.5 6h-53l19 103q325 18 325 172q0 86 -119 86q-57 0 -120 -22.5t-107 -57.5l-55 94q55 45 136.5 73.5t166.5 28.5q106 0 172.5 -48.5t66.5 -137.5q0 -87 -60.5 -149.5 t-156.5 -88.5q71 -20 118.5 -70t47.5 -116q0 -80 -45 -137.5t-116 -84t-158 -26.5q-85 0 -169.5 28.5t-146.5 74.5zM465 47l1200 1305l86 -76l-1200 -1305zM1212 213v70l603 544h92l-103 -501h142l-21 -113h-143l-43 -213h-140l43 213h-430zM1417 326h250l57 280z" />
<glyph unicode="&#xbf;" horiz-adv-x="778" d="M-61 -182q0 69 26 127t67.5 99.5t92 79t100.5 74t91.5 75t67.5 91.5t26 115v53h139v-75q0 -66 -25 -124.5t-64.5 -102t-87.5 -83t-95.5 -75t-87 -70.5t-64.5 -77t-25 -87q0 -59 43.5 -96t116.5 -37q59 0 131 23.5t131 60.5l56 -113q-70 -51 -163 -78.5t-167 -27.5 q-150 0 -229.5 70.5t-79.5 177.5zM379 866q0 53 36.5 93t92.5 40q54 0 85.5 -34.5t31.5 -83.5q0 -59 -40.5 -95t-90.5 -36q-52 0 -83.5 34.5t-31.5 81.5z" />
<glyph unicode="&#xc0;" horiz-adv-x="1312" d="M-18 0l772 1372h104l313 -1372h-184l-78 393h-526l-211 -393h-190zM457 1673l143 113l320 -240l-54 -59zM459 532h422l-113 572z" />
<glyph unicode="&#xc1;" horiz-adv-x="1312" d="M-18 0l772 1372h104l313 -1372h-184l-78 393h-526l-211 -393h-190zM459 532h422l-113 572zM670 1546l319 240l144 -113l-410 -186z" />
<glyph unicode="&#xc2;" horiz-adv-x="1312" d="M-18 0l772 1372h104l313 -1372h-184l-78 393h-526l-211 -393h-190zM459 532h422l-113 572zM543 1522l284 290h86l158 -290l-70 -35l-155 151l-236 -151z" />
<glyph unicode="&#xc3;" horiz-adv-x="1312" d="M-18 0l772 1372h104l313 -1372h-184l-78 393h-526l-211 -393h-190zM459 532h422l-113 572zM522 1528q72 241 205 241q43 0 141.5 -45t124.5 -45q32 0 54.5 30t44.5 87l73 -24q-73 -242 -204 -242q-43 0 -142 45t-125 45q-32 0 -54 -29.5t-44 -87.5z" />
<glyph unicode="&#xc4;" horiz-adv-x="1312" d="M-18 0l772 1372h104l313 -1372h-184l-78 393h-526l-211 -393h-190zM459 532h422l-113 572zM520 1647q0 48 33 78t76 30t69.5 -28.5t26.5 -67.5q0 -44 -30.5 -78.5t-76.5 -34.5q-44 0 -71 29.5t-27 71.5zM930 1647q0 49 33 78.5t75 29.5q43 0 70 -29t27 -67 q0 -44 -30.5 -78.5t-76.5 -34.5q-44 0 -71 29.5t-27 71.5z" />
<glyph unicode="&#xc5;" horiz-adv-x="1312" d="M-18 0l772 1372h104l313 -1372h-184l-78 393h-526l-211 -393h-190zM459 532h422l-113 572zM647 1620q0 95 62 164t163 69q78 0 126.5 -43.5t48.5 -113.5q0 -95 -62.5 -164.5t-163.5 -69.5q-78 0 -126 43.5t-48 114.5zM752 1630q0 -38 22.5 -58t56.5 -20q51 0 81 40t30 94 q0 38 -22.5 57.5t-57.5 19.5q-51 0 -80.5 -39t-29.5 -94z" />
<glyph unicode="&#xc6;" horiz-adv-x="1845" d="M-29 0l1141 1372h778l-22 -137h-611l-77 -444h489l-22 -138h-492l-92 -516h614l-22 -137h-778l69 393h-450l-324 -393h-201zM608 530h363l98 562z" />
<glyph unicode="&#xc7;" horiz-adv-x="1296" d="M133 565q0 134 33.5 258t101 229t161.5 183t222.5 122t276.5 44q195 0 348 -80l-49 -143q-135 75 -307 75q-189 0 -330 -89t-214 -243.5t-73 -353.5q0 -215 114.5 -328.5t323.5 -113.5q88 0 191.5 24.5t181.5 61.5l25 -150q-74 -35 -185.5 -59t-214.5 -29l-104 -104 q84 -1 124 -39t40 -98q0 -89 -78.5 -151t-183.5 -62q-92 0 -162 39l28 71q59 -32 132 -32q51 0 82.5 20.5t31.5 58.5q0 43 -43.5 63t-136.5 23l-8 37l170 176q-158 14 -271.5 94t-170 207t-56.5 289z" />
<glyph unicode="&#xc8;" horiz-adv-x="1054" d="M86 0l242 1372h772l-23 -137h-610l-78 -444h490l-23 -138h-491l-91 -516h613l-23 -137h-778zM389 1673l143 113l320 -240l-53 -59z" />
<glyph unicode="&#xc9;" horiz-adv-x="1054" d="M86 0l242 1372h772l-23 -137h-610l-78 -444h490l-23 -138h-491l-91 -516h613l-23 -137h-778zM514 1546l320 240l143 -113l-410 -186z" />
<glyph unicode="&#xca;" horiz-adv-x="1054" d="M86 0l242 1372h772l-23 -137h-610l-78 -444h490l-23 -138h-491l-91 -516h613l-23 -137h-778zM459 1522l284 290h86l158 -290l-69 -35l-156 151l-236 -151z" />
<glyph unicode="&#xcb;" horiz-adv-x="1054" d="M86 0l242 1372h772l-23 -137h-610l-78 -444h490l-23 -138h-491l-91 -516h613l-23 -137h-778zM412 1647q0 49 33 78.5t75 29.5q43 0 69.5 -28.5t26.5 -67.5q0 -45 -30 -79t-76 -34q-44 0 -71 29.5t-27 71.5zM821 1647q0 48 33 78t76 30t69.5 -28.5t26.5 -67.5 q0 -45 -30 -79t-76 -34q-44 0 -71.5 30t-27.5 71z" />
<glyph unicode="&#xcc;" horiz-adv-x="516" d="M68 1673l143 113l319 -240l-53 -59zM86 0l242 1372h164l-242 -1372h-164z" />
<glyph unicode="&#xcd;" horiz-adv-x="516" d="M86 0l242 1372h164l-242 -1372h-164zM313 1546l320 240l143 -113l-409 -186z" />
<glyph unicode="&#xce;" horiz-adv-x="516" d="M86 0l242 1372h164l-242 -1372h-164zM166 1522l285 290h86l157 -290l-69 -35l-156 151l-236 -151z" />
<glyph unicode="&#xcf;" horiz-adv-x="516" d="M86 0l242 1372h164l-242 -1372h-164zM154 1647q0 49 33 78.5t75 29.5q43 0 69.5 -28.5t26.5 -67.5q0 -45 -30 -79t-76 -34q-44 0 -71 29.5t-27 71.5zM563 1647q0 48 33 78t76 30t69.5 -28.5t26.5 -67.5q0 -45 -30 -79t-76 -34q-44 0 -71.5 30t-27.5 71z" />
<glyph unicode="&#xd0;" horiz-adv-x="1472" d="M72 664l20 110h176l107 598h411q305 0 460 -139t155 -428q0 -138 -30.5 -258t-95.5 -221t-159.5 -173t-228.5 -112.5t-297 -40.5h-457l117 664h-178zM319 137h279q140 0 255.5 42.5t200 124.5t131 211t46.5 294q0 94 -23 169t-72.5 134t-135.5 91t-205 32h-281l-82 -461 h303l-18 -110h-305z" />
<glyph unicode="&#xd1;" horiz-adv-x="1417" d="M86 0l242 1372h172l553 -1028l176 1028h164l-242 -1372h-98l-604 1133l-199 -1133h-164zM586 1528q72 241 205 241q43 0 141.5 -45t124.5 -45q32 0 54 29.5t44 87.5l74 -24q-73 -242 -205 -242q-43 0 -141.5 45t-124.5 45q-32 0 -54.5 -30t-44.5 -87z" />
<glyph unicode="&#xd2;" horiz-adv-x="1482" d="M133 522q0 132 31 258.5t94.5 239t152 197.5t212.5 134.5t268 49.5q134 0 236 -41.5t163 -115.5t91 -168t30 -206q0 -142 -32 -274t-96.5 -246t-155.5 -198.5t-216.5 -132.5t-271.5 -48q-107 0 -192.5 28.5t-143.5 78.5t-96.5 120t-56 150.5t-17.5 173.5zM303 526 q0 -205 88 -307t273 -102q117 0 214.5 44t163.5 117t111.5 169t66.5 199t21 208q0 203 -92 302t-283 99q-108 0 -200.5 -41t-158.5 -111.5t-112.5 -163.5t-69 -198t-22.5 -215zM530 1673l144 113l319 -240l-53 -59z" />
<glyph unicode="&#xd3;" horiz-adv-x="1482" d="M133 522q0 132 31 258.5t94.5 239t152 197.5t212.5 134.5t268 49.5q134 0 236 -41.5t163 -115.5t91 -168t30 -206q0 -142 -32 -274t-96.5 -246t-155.5 -198.5t-216.5 -132.5t-271.5 -48q-107 0 -192.5 28.5t-143.5 78.5t-96.5 120t-56 150.5t-17.5 173.5zM303 526 q0 -205 88 -307t273 -102q117 0 214.5 44t163.5 117t111.5 169t66.5 199t21 208q0 203 -92 302t-283 99q-108 0 -200.5 -41t-158.5 -111.5t-112.5 -163.5t-69 -198t-22.5 -215zM653 1546l320 240l143 -113l-409 -186z" />
<glyph unicode="&#xd4;" horiz-adv-x="1482" d="M133 522q0 132 31 258.5t94.5 239t152 197.5t212.5 134.5t268 49.5q134 0 236 -41.5t163 -115.5t91 -168t30 -206q0 -142 -32 -274t-96.5 -246t-155.5 -198.5t-216.5 -132.5t-271.5 -48q-107 0 -192.5 28.5t-143.5 78.5t-96.5 120t-56 150.5t-17.5 173.5zM303 526 q0 -205 88 -307t273 -102q117 0 214.5 44t163.5 117t111.5 169t66.5 199t21 208q0 203 -92 302t-283 99q-108 0 -200.5 -41t-158.5 -111.5t-112.5 -163.5t-69 -198t-22.5 -215zM635 1522l285 290h86l157 -290l-69 -35l-156 151l-236 -151z" />
<glyph unicode="&#xd5;" horiz-adv-x="1482" d="M133 522q0 132 31 258.5t94.5 239t152 197.5t212.5 134.5t268 49.5q134 0 236 -41.5t163 -115.5t91 -168t30 -206q0 -142 -32 -274t-96.5 -246t-155.5 -198.5t-216.5 -132.5t-271.5 -48q-107 0 -192.5 28.5t-143.5 78.5t-96.5 120t-56 150.5t-17.5 173.5zM303 526 q0 -205 88 -307t273 -102q117 0 214.5 44t163.5 117t111.5 169t66.5 199t21 208q0 203 -92 302t-283 99q-108 0 -200.5 -41t-158.5 -111.5t-112.5 -163.5t-69 -198t-22.5 -215zM600 1528q72 241 205 241q43 0 141.5 -45t124.5 -45q32 0 54 29.5t44 87.5l74 -24 q-73 -242 -205 -242q-43 0 -141.5 45t-124.5 45q-32 0 -54 -29.5t-44 -87.5z" />
<glyph unicode="&#xd6;" horiz-adv-x="1482" d="M133 522q0 132 31 258.5t94.5 239t152 197.5t212.5 134.5t268 49.5q134 0 236 -41.5t163 -115.5t91 -168t30 -206q0 -142 -32 -274t-96.5 -246t-155.5 -198.5t-216.5 -132.5t-271.5 -48q-107 0 -192.5 28.5t-143.5 78.5t-96.5 120t-56 150.5t-17.5 173.5zM303 526 q0 -205 88 -307t273 -102q117 0 214.5 44t163.5 117t111.5 169t66.5 199t21 208q0 203 -92 302t-283 99q-108 0 -200.5 -41t-158.5 -111.5t-112.5 -163.5t-69 -198t-22.5 -215zM610 1647q0 48 33 78t76 30t69.5 -28.5t26.5 -67.5q0 -45 -30 -79t-76 -34q-44 0 -71.5 30 t-27.5 71zM1020 1647q0 49 33 78.5t75 29.5q43 0 70 -29t27 -67q0 -44 -30.5 -78.5t-76.5 -34.5q-44 0 -71 29.5t-27 71.5z" />
<glyph unicode="&#xd7;" d="M219 324l297 297l-297 299l78 77l297 -299l297 299l78 -77l-297 -299l297 -297l-78 -78l-297 297l-297 -297z" />
<glyph unicode="&#xd8;" horiz-adv-x="1482" d="M6 -70l217 238q-90 137 -90 354q0 132 31 258.5t94.5 239t152 197.5t212.5 134.5t268 49.5q216 0 352 -113l139 154h148l-213 -234q94 -137 94 -338q0 -142 -32 -274t-96.5 -246t-155.5 -198.5t-216.5 -132.5t-271.5 -48q-216 0 -344 115l-141 -156h-148zM303 526 q0 -140 37 -227l795 870q-92 86 -269 86q-108 0 -200.5 -41t-158.5 -111.5t-112.5 -163.5t-69 -198t-22.5 -215zM403 205q85 -88 261 -88q117 0 214.5 44t163.5 117t111.5 169t66.5 199t21 208q0 135 -41 225z" />
<glyph unicode="&#xd9;" horiz-adv-x="1366" d="M143 348q0 52 9 107l161 917h164l-158 -891q-10 -55 -10 -110q0 -254 332 -254q326 0 395 383l156 872h164l-162 -917q-86 -484 -590 -484q-205 0 -333 97.5t-128 279.5zM489 1673l144 113l319 -240l-53 -59z" />
<glyph unicode="&#xda;" horiz-adv-x="1366" d="M143 348q0 52 9 107l161 917h164l-158 -891q-10 -55 -10 -110q0 -254 332 -254q326 0 395 383l156 872h164l-162 -917q-86 -484 -590 -484q-205 0 -333 97.5t-128 279.5zM711 1546l319 240l144 -113l-410 -186z" />
<glyph unicode="&#xdb;" horiz-adv-x="1366" d="M143 348q0 52 9 107l161 917h164l-158 -891q-10 -55 -10 -110q0 -254 332 -254q326 0 395 383l156 872h164l-162 -917q-86 -484 -590 -484q-205 0 -333 97.5t-128 279.5zM573 1522l285 290h86l158 -290l-70 -35l-155 151l-236 -151z" />
<glyph unicode="&#xdc;" horiz-adv-x="1366" d="M143 348q0 52 9 107l161 917h164l-158 -891q-10 -55 -10 -110q0 -254 332 -254q326 0 395 383l156 872h164l-162 -917q-86 -484 -590 -484q-205 0 -333 97.5t-128 279.5zM549 1647q0 49 33 78.5t75 29.5q43 0 70 -29t27 -67q0 -44 -30.5 -78.5t-76.5 -34.5 q-44 0 -71 29.5t-27 71.5zM958 1647q0 48 33 78t76 30t69.5 -28.5t26.5 -67.5q0 -45 -30 -79t-76 -34q-44 0 -71.5 30t-27.5 71z" />
<glyph unicode="&#xdd;" horiz-adv-x="1218" d="M209 1372h176l254 -676l461 676h188l-592 -833l-92 -539h-164l97 549zM618 1546l320 240l143 -113l-409 -186z" />
<glyph unicode="&#xde;" horiz-adv-x="1114" d="M86 0l242 1372h164l-52 -287h244q176 0 272.5 -86t96.5 -233q0 -241 -149 -360t-433 -119h-172l-49 -287h-164zM324 424h182q182 0 283.5 81t101.5 247q0 196 -254 196h-221z" />
<glyph unicode="&#xdf;" horiz-adv-x="1212" d="M-195 -446l39 120q54 -28 111 -28q34 0 59 11t41.5 28.5t29.5 50t21 64.5t17 83l166 961h-160l25 127h155l13 63q18 100 52.5 180t89.5 142.5t137 96.5t187 34q163 0 252.5 -78t89.5 -180q0 -57 -20.5 -107t-53.5 -87.5t-72.5 -71t-79 -62.5t-72.5 -56.5t-53.5 -60 t-20.5 -65.5q0 -39 27 -73t67 -58.5t87 -56.5t87 -64.5t67 -85.5t27 -117q0 -133 -92.5 -213t-255.5 -80q-168 0 -303 99l57 116q42 -35 114 -63.5t144 -28.5q85 0 140 45t55 115q0 49 -37.5 90t-90.5 73t-106.5 68t-91 91t-37.5 124q0 55 20 103.5t51.5 84.5t70 68.5 t76.5 62t69.5 59t51.5 65.5t20 76q0 62 -56 97.5t-143 35.5q-252 0 -315 -357l-193 -1120q-31 -181 -99.5 -268.5t-207.5 -87.5q-91 0 -156 35z" />
<glyph unicode="&#xe0;" horiz-adv-x="1056" d="M96 322q0 184 63.5 337.5t186 246.5t279.5 93q174 0 319 -94l-113 -667q-14 -86 -14 -105q0 -28 23 -37.5t88 -11.5v-84q-99 -29 -172 -29q-50 0 -70 19.5t-20 60.5q0 36 10 92q-68 -80 -153 -126t-161 -46q-129 0 -197.5 95t-68.5 256zM246 334q0 -104 36 -166t109 -62 q76 0 162 72t149 168l82 485q-60 43 -166 43q-105 0 -190.5 -72t-133.5 -195.5t-48 -272.5zM385 1473l180 53l172 -346l-69 -37z" />
<glyph unicode="&#xe1;" horiz-adv-x="1056" d="M96 322q0 184 63.5 337.5t186 246.5t279.5 93q174 0 319 -94l-113 -667q-14 -86 -14 -105q0 -28 23 -37.5t88 -11.5v-84q-99 -29 -172 -29q-50 0 -70 19.5t-20 60.5q0 36 10 92q-68 -80 -153 -126t-161 -46q-129 0 -197.5 95t-68.5 256zM246 334q0 -104 36 -166t109 -62 q76 0 162 72t149 168l82 485q-60 43 -166 43q-105 0 -190.5 -72t-133.5 -195.5t-48 -272.5zM543 1184l250 342l170 -62l-351 -321z" />
<glyph unicode="&#xe2;" horiz-adv-x="1056" d="M96 322q0 184 63.5 337.5t186 246.5t279.5 93q174 0 319 -94l-113 -667q-14 -86 -14 -105q0 -28 23 -37.5t88 -11.5v-84q-99 -29 -172 -29q-50 0 -70 19.5t-20 60.5q0 36 10 92q-68 -80 -153 -126t-161 -46q-129 0 -197.5 95t-68.5 256zM246 334q0 -104 36 -166t109 -62 q76 0 162 72t149 168l82 485q-60 43 -166 43q-105 0 -190.5 -72t-133.5 -195.5t-48 -272.5zM379 1178l285 342h86l157 -342l-69 -35l-156 192l-236 -192z" />
<glyph unicode="&#xe3;" horiz-adv-x="1056" d="M96 322q0 184 63.5 337.5t186 246.5t279.5 93q174 0 319 -94l-113 -667q-14 -86 -14 -105q0 -28 23 -37.5t88 -11.5v-84q-99 -29 -172 -29q-50 0 -70 19.5t-20 60.5q0 36 10 92q-68 -80 -153 -126t-161 -46q-129 0 -197.5 95t-68.5 256zM246 334q0 -104 36 -166t109 -62 q76 0 162 72t149 168l82 485q-60 43 -166 43q-105 0 -190.5 -72t-133.5 -195.5t-48 -272.5zM322 1208q73 242 204 242q43 0 142 -45t125 -45q32 0 54 29.5t44 87.5l74 -25q-73 -242 -205 -242q-43 0 -141.5 45t-124.5 45q-33 0 -55.5 -29.5t-43.5 -86.5z" />
<glyph unicode="&#xe4;" horiz-adv-x="1056" d="M96 322q0 184 63.5 337.5t186 246.5t279.5 93q174 0 319 -94l-113 -667q-14 -86 -14 -105q0 -28 23 -37.5t88 -11.5v-84q-99 -29 -172 -29q-50 0 -70 19.5t-20 60.5q0 36 10 92q-68 -80 -153 -126t-161 -46q-129 0 -197.5 95t-68.5 256zM246 334q0 -104 36 -166t109 -62 q76 0 162 72t149 168l82 485q-60 43 -166 43q-105 0 -190.5 -72t-133.5 -195.5t-48 -272.5zM346 1313q0 48 33 78t76 30t69.5 -28.5t26.5 -67.5q0 -44 -30.5 -78.5t-76.5 -34.5q-44 0 -71 29.5t-27 71.5zM756 1313q0 49 33 78.5t75 29.5q43 0 70 -29t27 -67 q0 -44 -30.5 -78.5t-76.5 -34.5q-44 0 -71 29.5t-27 71.5z" />
<glyph unicode="&#xe5;" horiz-adv-x="1056" d="M96 322q0 184 63.5 337.5t186 246.5t279.5 93q174 0 319 -94l-113 -667q-14 -86 -14 -105q0 -28 23 -37.5t88 -11.5v-84q-99 -29 -172 -29q-50 0 -70 19.5t-20 60.5q0 36 10 92q-68 -80 -153 -126t-161 -46q-129 0 -197.5 95t-68.5 256zM246 334q0 -104 36 -166t109 -62 q76 0 162 72t149 168l82 485q-60 43 -166 43q-105 0 -190.5 -72t-133.5 -195.5t-48 -272.5zM455 1292q0 95 62.5 164.5t162.5 69.5q78 0 126 -43.5t48 -114.5q0 -95 -62 -164t-163 -69q-78 0 -126 43.5t-48 113.5zM559 1303q0 -38 23 -58t57 -20q51 0 81 39.5t30 93.5 q0 38 -23 58t-57 20q-51 0 -81 -39.5t-30 -93.5z" />
<glyph unicode="&#xe6;" horiz-adv-x="1468" d="M51 180q0 286 606 344l21 138q8 62 8 90q0 56 -34.5 83t-121.5 27q-136 0 -297 -82l-28 119q88 49 192 74.5t191 25.5q217 0 241 -159q153 159 336 159q110 0 186 -54t76 -157q0 -326 -639 -372q-2 -20 -2 -64q0 -125 46.5 -186.5t160.5 -61.5q67 0 153.5 29.5 t160.5 79.5l34 -125q-170 -117 -372 -117q-231 0 -303 185q-60 -81 -151 -133t-200 -52q-106 0 -185 56t-79 153zM205 201q0 -47 38.5 -75t100.5 -28q41 0 84.5 17t86 51.5t76.5 95.5t50 141q-77 -5 -149.5 -18.5t-139 -36.5t-107 -61.5t-40.5 -85.5zM811 532q92 7 171 24 t146 44.5t106 71t40 98.5q0 102 -111 102q-108 0 -208 -96t-144 -244z" />
<glyph unicode="&#xe7;" horiz-adv-x="901" d="M92 324q0 137 40.5 260.5t111 215t173.5 145.5t222 54q62 0 121.5 -19t99.5 -50l-51 -121q-77 65 -188 65q-101 0 -189 -76t-139 -199t-51 -259q0 -236 209 -236q132 0 272 93l35 -123q-44 -32 -121.5 -60t-149.5 -39l-108 -106q84 -1 124 -39t40 -98q0 -89 -78.5 -151 t-183.5 -62q-92 0 -162 39l28 71q59 -32 132 -32q51 0 82.5 20.5t31.5 58.5q0 43 -43.5 63t-136.5 23l-8 37l168 174q-281 30 -281 351z" />
<glyph unicode="&#xe8;" horiz-adv-x="921" d="M92 326q0 148 45.5 276t120 213.5t170.5 134.5t197 49q112 0 184 -54t72 -150q0 -168 -161 -275.5t-478 -116.5q-2 -18 -2 -55q0 -124 46.5 -184t164.5 -60q68 0 153.5 29.5t155.5 79.5l35 -125q-92 -65 -191 -91t-176 -26q-175 0 -255.5 95t-80.5 260zM264 520 q80 3 155 18t147.5 43t116.5 79t44 118q0 45 -30 69.5t-87 24.5q-106 0 -204.5 -100.5t-141.5 -251.5zM274 1473l181 53l172 -346l-70 -37z" />
<glyph unicode="&#xe9;" horiz-adv-x="921" d="M92 326q0 148 45.5 276t120 213.5t170.5 134.5t197 49q112 0 184 -54t72 -150q0 -168 -161 -275.5t-478 -116.5q-2 -18 -2 -55q0 -124 46.5 -184t164.5 -60q68 0 153.5 29.5t155.5 79.5l35 -125q-92 -65 -191 -91t-176 -26q-175 0 -255.5 95t-80.5 260zM264 520 q80 3 155 18t147.5 43t116.5 79t44 118q0 45 -30 69.5t-87 24.5q-106 0 -204.5 -100.5t-141.5 -251.5zM432 1184l250 342l170 -62l-350 -321z" />
<glyph unicode="&#xea;" horiz-adv-x="921" d="M92 326q0 148 45.5 276t120 213.5t170.5 134.5t197 49q112 0 184 -54t72 -150q0 -168 -161 -275.5t-478 -116.5q-2 -18 -2 -55q0 -124 46.5 -184t164.5 -60q68 0 153.5 29.5t155.5 79.5l35 -125q-92 -65 -191 -91t-176 -26q-175 0 -255.5 95t-80.5 260zM264 520 q80 3 155 18t147.5 43t116.5 79t44 118q0 45 -30 69.5t-87 24.5q-106 0 -204.5 -100.5t-141.5 -251.5zM340 1178l285 342h86l157 -342l-69 -35l-156 192l-235 -192z" />
<glyph unicode="&#xeb;" horiz-adv-x="921" d="M92 326q0 148 45.5 276t120 213.5t170.5 134.5t197 49q112 0 184 -54t72 -150q0 -168 -161 -275.5t-478 -116.5q-2 -18 -2 -55q0 -124 46.5 -184t164.5 -60q68 0 153.5 29.5t155.5 79.5l35 -125q-92 -65 -191 -91t-176 -26q-175 0 -255.5 95t-80.5 260zM264 520 q80 3 155 18t147.5 43t116.5 79t44 118q0 45 -30 69.5t-87 24.5q-106 0 -204.5 -100.5t-141.5 -251.5zM295 1313q0 49 33 78.5t75 29.5q43 0 70 -29t27 -67q0 -44 -30.5 -78.5t-76.5 -34.5q-44 0 -71 29.5t-27 71.5zM705 1313q0 49 33 78.5t75 29.5q43 0 69.5 -28.5 t26.5 -67.5q0 -45 -30 -79t-76 -34q-44 0 -71 29.5t-27 71.5z" />
<glyph unicode="&#xec;" horiz-adv-x="528" d="M59 1473l181 53l172 -346l-70 -37zM121 49q0 30 16 123l101 576q12 75 12 88q0 29 -26.5 39t-84.5 12l17 84q96 28 176 28q47 0 62.5 -16t15.5 -49q0 -44 -19 -156l-102 -565q-10 -64 -10 -82q0 -28 27.5 -37.5t82.5 -9.5v-84q-34 -13 -89 -21t-89 -8q-90 0 -90 78z" />
<glyph unicode="&#xed;" horiz-adv-x="528" d="M121 49q0 30 16 123l101 576q12 75 12 88q0 29 -26.5 39t-84.5 12l17 84q96 28 176 28q47 0 62.5 -16t15.5 -49q0 -44 -19 -156l-102 -565q-10 -64 -10 -82q0 -28 27.5 -37.5t82.5 -9.5v-84q-34 -13 -89 -21t-89 -8q-90 0 -90 78zM215 1184l250 342l170 -62l-350 -321z " />
<glyph unicode="&#xee;" horiz-adv-x="528" d="M57 1178l285 342h86l158 -342l-70 -35l-156 192l-235 -192zM121 49q0 30 16 123l101 576q12 75 12 88q0 29 -26.5 39t-84.5 12l17 84q96 28 176 28q47 0 62.5 -16t15.5 -49q0 -44 -19 -156l-102 -565q-10 -64 -10 -82q0 -28 27.5 -37.5t82.5 -9.5v-84q-34 -13 -89 -21 t-89 -8q-90 0 -90 78z" />
<glyph unicode="&#xef;" horiz-adv-x="528" d="M57 1313q0 48 33 78t76 30t69.5 -28.5t26.5 -67.5q0 -45 -30 -79t-76 -34q-44 0 -71.5 30t-27.5 71zM121 49q0 30 16 123l101 576q12 75 12 88q0 29 -26.5 39t-84.5 12l17 84q96 28 176 28q47 0 62.5 -16t15.5 -49q0 -44 -19 -156l-102 -565q-10 -64 -10 -82 q0 -28 27.5 -37.5t82.5 -9.5v-84q-34 -13 -89 -21t-89 -8q-90 0 -90 78zM467 1313q0 49 33 78.5t75 29.5q43 0 70 -29t27 -67q0 -44 -30.5 -78.5t-76.5 -34.5q-44 0 -71 29.5t-27 71.5z" />
<glyph unicode="&#xf0;" horiz-adv-x="1019" d="M92 346q0 117 33.5 226.5t94.5 197t157 140.5t211 53q107 0 190 -39q-33 155 -110 262l-295 -129l16 117l209 92q-71 69 -182 125l67 112q139 -53 252 -178l228 100l-17 -116l-145 -64q143 -213 143 -479q0 -113 -21.5 -225t-66 -215t-106 -182t-148 -126t-186.5 -47 q-155 0 -239.5 100.5t-84.5 274.5zM242 360q0 -117 47.5 -190.5t144.5 -73.5q77 0 146.5 63t115 159.5t72.5 208.5t27 214v39q-89 56 -193 56q-107 0 -190.5 -67t-126.5 -175t-43 -234z" />
<glyph unicode="&#xf1;" horiz-adv-x="1107" d="M109 0l129 748q12 75 12 88q0 29 -24.5 39t-86.5 12l17 84q110 28 174 28q47 0 63.5 -16t16.5 -49q0 -18 -9 -92q144 157 314 157q115 0 182.5 -72t67.5 -192q0 -82 -23 -217l-51 -305q-10 -59 -10 -82q0 -29 26.5 -38t83.5 -9v-84q-104 -29 -180 -29q-50 0 -70 19.5 t-20 60.5q0 15 16 123l54 315q28 176 28 228q0 64 -33.5 105.5t-101.5 41.5q-84 0 -172.5 -70t-146.5 -161l-111 -633h-145zM307 1208q73 242 205 242q43 0 141.5 -45t124.5 -45q32 0 54.5 30t44.5 87l73 -25q-73 -242 -205 -242q-43 0 -141.5 45t-124.5 45q-32 0 -54 -29.5 t-44 -86.5z" />
<glyph unicode="&#xf2;" horiz-adv-x="1017" d="M92 336q0 97 19 190.5t60.5 179.5t100 151t143.5 103.5t185 38.5q151 0 238.5 -94t87.5 -270q0 -97 -19 -191t-60.5 -180t-100 -151t-143.5 -103.5t-185 -38.5q-151 0 -238.5 94t-87.5 271zM242 344q0 -248 200 -248q135 0 234.5 151.5t99.5 379.5q0 247 -201 247 q-135 0 -234 -151t-99 -379zM330 1473l180 53l172 -346l-70 -37z" />
<glyph unicode="&#xf3;" horiz-adv-x="1017" d="M92 336q0 97 19 190.5t60.5 179.5t100 151t143.5 103.5t185 38.5q151 0 238.5 -94t87.5 -270q0 -97 -19 -191t-60.5 -180t-100 -151t-143.5 -103.5t-185 -38.5q-151 0 -238.5 94t-87.5 271zM242 344q0 -248 200 -248q135 0 234.5 151.5t99.5 379.5q0 247 -201 247 q-135 0 -234 -151t-99 -379zM442 1184l250 342l170 -62l-350 -321z" />
<glyph unicode="&#xf4;" horiz-adv-x="1017" d="M92 336q0 97 19 190.5t60.5 179.5t100 151t143.5 103.5t185 38.5q151 0 238.5 -94t87.5 -270q0 -97 -19 -191t-60.5 -180t-100 -151t-143.5 -103.5t-185 -38.5q-151 0 -238.5 94t-87.5 271zM242 344q0 -248 200 -248q135 0 234.5 151.5t99.5 379.5q0 247 -201 247 q-135 0 -234 -151t-99 -379zM332 1178l284 342h86l158 -342l-69 -35l-156 192l-236 -192z" />
<glyph unicode="&#xf5;" horiz-adv-x="1017" d="M92 336q0 97 19 190.5t60.5 179.5t100 151t143.5 103.5t185 38.5q151 0 238.5 -94t87.5 -270q0 -97 -19 -191t-60.5 -180t-100 -151t-143.5 -103.5t-185 -38.5q-151 0 -238.5 94t-87.5 271zM242 344q0 -248 200 -248q135 0 234.5 151.5t99.5 379.5q0 247 -201 247 q-135 0 -234 -151t-99 -379zM276 1208q73 242 205 242q43 0 142 -45t125 -45q32 0 54 29.5t44 87.5l74 -25q-73 -242 -205 -242q-43 0 -141.5 45t-124.5 45q-33 0 -55.5 -29.5t-43.5 -86.5z" />
<glyph unicode="&#xf6;" horiz-adv-x="1017" d="M92 336q0 97 19 190.5t60.5 179.5t100 151t143.5 103.5t185 38.5q151 0 238.5 -94t87.5 -270q0 -97 -19 -191t-60.5 -180t-100 -151t-143.5 -103.5t-185 -38.5q-151 0 -238.5 94t-87.5 271zM242 344q0 -248 200 -248q135 0 234.5 151.5t99.5 379.5q0 247 -201 247 q-135 0 -234 -151t-99 -379zM307 1313q0 48 33 78t76 30t69.5 -28.5t26.5 -67.5q0 -45 -30 -79t-76 -34q-44 0 -71.5 30t-27.5 71zM717 1313q0 49 33 78.5t75 29.5q43 0 70 -29t27 -67q0 -44 -30.5 -78.5t-76.5 -34.5q-44 0 -71 29.5t-27 71.5z" />
<glyph unicode="&#xf7;" d="M133 569v107h922v-107h-922zM481 295q0 46 33.5 79.5t79.5 33.5t79.5 -33.5t33.5 -79.5t-33.5 -79.5t-79.5 -33.5t-79.5 33.5t-33.5 79.5zM481 950q0 46 33.5 79.5t79.5 33.5t79.5 -33.5t33.5 -79.5t-33.5 -79t-79.5 -33t-79.5 33t-33.5 79z" />
<glyph unicode="&#xf8;" horiz-adv-x="1030" d="M-43 -51l176 194q-35 81 -35 193q0 97 19 190.5t60.5 179.5t100 151t143.5 103.5t185 38.5q141 0 228 -84l96 107h143l-178 -197q37 -75 37 -190q0 -97 -19 -191t-60.5 -180t-100 -151t-143.5 -103.5t-185 -38.5q-142 0 -229 84l-97 -106h-141zM248 344q0 -50 4 -70 l483 533q-50 67 -153 67q-88 0 -164 -66.5t-123 -189.5t-47 -274zM293 164q51 -68 156 -68q135 0 234 151.5t99 379.5q0 23 -4 69z" />
<glyph unicode="&#xf9;" horiz-adv-x="1095" d="M102 887l17 84q86 28 174 28q82 0 82 -67q0 -31 -21 -154l-65 -389q-17 -122 -17 -149q0 -60 37 -97t97 -37q88 0 176 73t151 171l103 621h147l-129 -758q-8 -47 -8 -82q0 -28 28 -37.5t82 -9.5v-84q-107 -29 -168 -29q-51 0 -72.5 19.5t-21.5 58.5q0 5 11 96 q-70 -80 -156 -127t-166 -47q-116 0 -185 68.5t-69 185.5q0 72 12 154l60 369q12 75 12 88q0 29 -26.5 39t-84.5 12zM317 1473l181 53l172 -346l-70 -37z" />
<glyph unicode="&#xfa;" horiz-adv-x="1095" d="M102 887l17 84q86 28 174 28q82 0 82 -67q0 -31 -21 -154l-65 -389q-17 -122 -17 -149q0 -60 37 -97t97 -37q88 0 176 73t151 171l103 621h147l-129 -758q-8 -47 -8 -82q0 -28 28 -37.5t82 -9.5v-84q-107 -29 -168 -29q-51 0 -72.5 19.5t-21.5 58.5q0 5 11 96 q-70 -80 -156 -127t-166 -47q-116 0 -185 68.5t-69 185.5q0 72 12 154l60 369q12 75 12 88q0 29 -26.5 39t-84.5 12zM510 1184l250 342l170 -62l-350 -321z" />
<glyph unicode="&#xfb;" horiz-adv-x="1095" d="M102 887l17 84q86 28 174 28q82 0 82 -67q0 -31 -21 -154l-65 -389q-17 -122 -17 -149q0 -60 37 -97t97 -37q88 0 176 73t151 171l103 621h147l-129 -758q-8 -47 -8 -82q0 -28 28 -37.5t82 -9.5v-84q-107 -29 -168 -29q-51 0 -72.5 19.5t-21.5 58.5q0 5 11 96 q-70 -80 -156 -127t-166 -47q-116 0 -185 68.5t-69 185.5q0 72 12 154l60 369q12 75 12 88q0 29 -26.5 39t-84.5 12zM340 1178l285 342h86l157 -342l-69 -35l-156 192l-235 -192z" />
<glyph unicode="&#xfc;" horiz-adv-x="1095" d="M102 887l17 84q86 28 174 28q82 0 82 -67q0 -31 -21 -154l-65 -389q-17 -122 -17 -149q0 -60 37 -97t97 -37q88 0 176 73t151 171l103 621h147l-129 -758q-8 -47 -8 -82q0 -28 28 -37.5t82 -9.5v-84q-107 -29 -168 -29q-51 0 -72.5 19.5t-21.5 58.5q0 5 11 96 q-70 -80 -156 -127t-166 -47q-116 0 -185 68.5t-69 185.5q0 72 12 154l60 369q12 75 12 88q0 29 -26.5 39t-84.5 12zM322 1313q0 49 33 78.5t75 29.5q43 0 69.5 -28.5t26.5 -67.5q0 -45 -30 -79t-76 -34q-44 0 -71 29.5t-27 71.5zM731 1313q0 48 33 78t76 30t69.5 -28.5 t26.5 -67.5q0 -44 -30.5 -78.5t-76.5 -34.5q-44 0 -71 29.5t-27 71.5z" />
<glyph unicode="&#xfd;" horiz-adv-x="937" d="M-82 -418l37 121q53 -31 108 -31q35 0 67 15.5t55.5 37t51 62.5t45 74t46.5 90l34 69l-163 793q-9 47 -27.5 59t-91.5 15l16 84q68 28 133 28q52 0 72 -26t39 -117l125 -653l180 362q94 189 94 307q0 53 -14 93l129 36q33 -59 33 -137q0 -140 -111 -350l-325 -620 q-27 -52 -40.5 -77t-40.5 -69.5t-45.5 -67t-48.5 -52.5t-58 -44.5t-65.5 -25.5t-78.5 -11q-88 0 -156 35zM426 1184l250 342l170 -62l-350 -321z" />
<glyph unicode="&#xfe;" horiz-adv-x="1044" d="M6 -453l328 1907l153 33l-112 -647q152 159 309 159q132 0 200 -96.5t68 -247.5q0 -189 -65 -344t-187.5 -247.5t-279.5 -92.5q-102 0 -191 29l-77 -453h-146zM254 133q67 -37 166 -37q113 0 201.5 76.5t135 199.5t46.5 267q0 98 -36.5 161.5t-113.5 63.5 q-75 0 -165.5 -70t-147.5 -161z" />
<glyph unicode="&#xff;" horiz-adv-x="937" d="M-82 -418l37 121q53 -31 108 -31q35 0 67 15.5t55.5 37t51 62.5t45 74t46.5 90l34 69l-163 793q-9 47 -27.5 59t-91.5 15l16 84q68 28 133 28q52 0 72 -26t39 -117l125 -653l180 362q94 189 94 307q0 53 -14 93l129 36q33 -59 33 -137q0 -140 -111 -350l-325 -620 q-27 -52 -40.5 -77t-40.5 -69.5t-45.5 -67t-48.5 -52.5t-58 -44.5t-65.5 -25.5t-78.5 -11q-88 0 -156 35zM250 1313q0 49 33 78.5t75 29.5q43 0 70 -29t27 -67q0 -44 -30.5 -78.5t-76.5 -34.5q-44 0 -71 29.5t-27 71.5zM659 1313q0 48 33 78t76 30t69.5 -28.5t26.5 -67.5 q0 -45 -30 -79t-76 -34q-44 0 -71.5 30t-27.5 71z" />
<glyph unicode="&#x152;" horiz-adv-x="1783" d="M133 537q0 139 32.5 264.5t97.5 229.5t156.5 180t217 118.5t272.5 42.5h920l-23 -137h-610l-78 -444h490l-23 -138h-491l-90 -516h612l-23 -137h-911q-136 0 -242.5 40.5t-172.5 113.5t-100 170t-34 213zM303 547q0 -191 104.5 -301.5t297.5 -110.5h133l194 1102h-158 q-113 0 -208 -39t-161 -106t-112 -155.5t-68 -187t-22 -202.5z" />
<glyph unicode="&#x153;" horiz-adv-x="1583" d="M92 336q0 97 19 190.5t60.5 179.5t100 151t143.5 103.5t185 38.5q230 0 299 -208q76 99 177.5 153.5t209.5 54.5q112 0 184 -54t72 -150q0 -169 -161.5 -277t-477.5 -115q-2 -18 -2 -55q0 -124 46.5 -184t164.5 -60q68 0 153.5 29.5t155.5 79.5l35 -125q-93 -65 -191 -91 t-175 -26q-237 0 -308 189q-137 -189 -364 -189q-151 0 -238.5 94t-87.5 271zM242 344q0 -248 200 -248q135 0 234.5 151.5t99.5 379.5q0 247 -201 247q-135 0 -234 -151t-99 -379zM926 520q80 3 155 18t147.5 43t116.5 79t44 118q0 45 -30 69.5t-87 24.5 q-106 0 -204.5 -100.5t-141.5 -251.5z" />
<glyph unicode="&#x178;" horiz-adv-x="1218" d="M209 1372h176l254 -676l461 676h188l-592 -833l-92 -539h-164l97 549zM467 1647q0 49 33 78.5t75 29.5q43 0 70 -29t27 -67q0 -44 -30.5 -78.5t-76.5 -34.5q-44 0 -71 29.5t-27 71.5zM877 1647q0 49 33 78.5t75 29.5q43 0 69.5 -28.5t26.5 -67.5q0 -45 -30 -79t-76 -34 q-44 0 -71 29.5t-27 71.5z" />
<glyph unicode="&#x2c6;" horiz-adv-x="819" d="M256 1178l285 342h86l157 -342l-69 -35l-156 192l-235 -192z" />
<glyph unicode="&#x2dc;" horiz-adv-x="819" d="M225 1208q73 242 205 242q43 0 141.5 -45t124.5 -45q32 0 54.5 30t44.5 87l73 -25q-73 -242 -204 -242q-43 0 -142 45t-125 45q-32 0 -54 -29.5t-44 -86.5z" />
<glyph unicode="&#x2000;" horiz-adv-x="926" />
<glyph unicode="&#x2001;" horiz-adv-x="1853" />
<glyph unicode="&#x2002;" horiz-adv-x="926" />
<glyph unicode="&#x2003;" horiz-adv-x="1853" />
<glyph unicode="&#x2004;" horiz-adv-x="617" />
<glyph unicode="&#x2005;" horiz-adv-x="463" />
<glyph unicode="&#x2006;" horiz-adv-x="308" />
<glyph unicode="&#x2007;" horiz-adv-x="308" />
<glyph unicode="&#x2008;" horiz-adv-x="231" />
<glyph unicode="&#x2009;" horiz-adv-x="370" />
<glyph unicode="&#x200a;" horiz-adv-x="102" />
<glyph unicode="&#x2010;" horiz-adv-x="716" d="M63 451l23 122h573l-22 -122h-574z" />
<glyph unicode="&#x2011;" horiz-adv-x="716" d="M63 451l23 122h573l-22 -122h-574z" />
<glyph unicode="&#x2012;" horiz-adv-x="716" d="M63 451l23 122h573l-22 -122h-574z" />
<glyph unicode="&#x2013;" horiz-adv-x="1228" d="M63 451l23 122h1085l-22 -122h-1086z" />
<glyph unicode="&#x2014;" horiz-adv-x="1843" d="M63 451l23 122h1700l-23 -122h-1700z" />
<glyph unicode="&#x2018;" horiz-adv-x="491" d="M203 938v35q0 255 272 428l60 -68q-86 -69 -129.5 -150.5t-43.5 -191.5v-53h-159z" />
<glyph unicode="&#x2019;" horiz-adv-x="491" d="M180 977q86 69 129 150.5t43 191.5v53h160v-35q0 -255 -272 -428z" />
<glyph unicode="&#x201a;" horiz-adv-x="452" d="M-70 -186q86 69 129 150.5t43 191.5v53h160v-35q0 -255 -272 -428z" />
<glyph unicode="&#x201c;" horiz-adv-x="827" d="M203 938v35q0 255 272 428l60 -68q-86 -69 -129.5 -150.5t-43.5 -191.5v-53h-159zM539 938v35q0 255 272 428l59 -68q-86 -69 -129 -150.5t-43 -191.5v-53h-159z" />
<glyph unicode="&#x201d;" horiz-adv-x="827" d="M180 977q86 69 129 150.5t43 191.5v53h160v-35q0 -255 -272 -428zM516 977q86 69 129 150.5t43 191.5v53h160v-35q0 -255 -273 -428z" />
<glyph unicode="&#x201e;" horiz-adv-x="788" d="M-70 -186q86 69 129 150.5t43 191.5v53h160v-35q0 -255 -272 -428zM266 -186q86 69 129 150.5t43 191.5v53h160v-35q0 -255 -272 -428z" />
<glyph unicode="&#x2022;" horiz-adv-x="819" d="M166 608q0 88 44 154.5t108.5 98.5t134.5 32q114 0 184 -75.5t70 -178.5q0 -115 -79 -203t-202 -88q-120 0 -190 75.5t-70 184.5z" />
<glyph unicode="&#x2026;" horiz-adv-x="1536" d="M72 90q0 59 40.5 95t90.5 36q52 0 84 -35t32 -82q0 -53 -36.5 -93t-92.5 -40q-55 0 -86.5 34.5t-31.5 84.5zM584 90q0 59 40.5 95t90.5 36q52 0 84 -35t32 -82q0 -53 -36.5 -93t-92.5 -40q-55 0 -86.5 34.5t-31.5 84.5zM1096 90q0 59 40.5 95t90.5 36q52 0 84 -35t32 -82 q0 -53 -36.5 -93t-92.5 -40q-55 0 -86.5 34.5t-31.5 84.5z" />
<glyph unicode="&#x202f;" horiz-adv-x="370" />
<glyph unicode="&#x2039;" horiz-adv-x="700" d="M102 487l439 424l77 -71l-342 -361l226 -348l-94 -68z" />
<glyph unicode="&#x203a;" horiz-adv-x="700" d="M82 135l342 361l-225 348l94 67l305 -424l-438 -424z" />
<glyph unicode="&#x205f;" horiz-adv-x="463" />
<glyph unicode="&#x20ac;" d="M92 492l19 100h143q8 59 25 141h-144l19 101h153q76 230 233 374t369 144q67 0 138.5 -21.5t107.5 -48.5l-51 -135q-89 61 -207 61q-142 0 -249.5 -103.5t-170.5 -270.5h418l-18 -101h-431q-16 -63 -26 -141h432l-18 -100h-422v-23q0 -170 63 -262t189 -92q120 0 249 71 l31 -133q-148 -82 -295 -82q-131 0 -223.5 66t-135 173.5t-42.5 246.5v35h-156z" />
<glyph unicode="&#x2122;" horiz-adv-x="1800" d="M184 1272l19 100h653l-18 -100h-273l-116 -660h-113l117 660h-269zM854 612l135 760h131l166 -586l367 586h127l-133 -760h-113l100 545l-350 -545h-59l-160 551l-98 -551h-113z" />
<glyph unicode="&#xe000;" horiz-adv-x="1003" d="M0 0v1004h1004v-1004h-1004z" />
<glyph unicode="&#xfb01;" horiz-adv-x="1222" d="M-195 -446l39 120q54 -28 111 -28q34 0 59.5 11t42 29.5t29.5 50.5t21 64.5t16 81.5l166 961h-160l25 127h157l15 86q16 99 48.5 176.5t71 124t86.5 76.5t92 41.5t91 11.5q37 0 77 -10t60 -23l-49 -119q-39 25 -92 25q-188 0 -244 -328l-10 -61h233l-20 -127h-236 l-166 -969q-31 -180 -99.5 -268t-207.5 -88q-91 0 -156 35zM815 49q0 30 16 123l101 576q12 75 12 88q0 29 -26 39t-84 12l16 84q96 28 176 28q47 0 62.5 -16t15.5 -49q0 -44 -19 -156l-102 -565q-10 -64 -10 -82q0 -28 27.5 -37.5t82.5 -9.5v-84q-34 -13 -89 -21t-89 -8 q-90 0 -90 78zM975 1313q0 51 35.5 82.5t79.5 31.5q46 0 74 -30t28 -72q0 -48 -32 -83.5t-81 -35.5q-48 0 -76 31t-28 76z" />
<glyph unicode="&#xfb02;" horiz-adv-x="1200" d="M-195 -446l39 120q54 -28 111 -28q34 0 59.5 11t42 29.5t29.5 50.5t21 64.5t16 81.5l166 961h-160l25 127h157l15 86q16 99 48.5 176.5t71 124t86.5 76.5t92 41.5t91 11.5q37 0 77 -10t60 -23l-49 -119q-39 25 -92 25q-188 0 -244 -328l-10 -61h233l-20 -127h-236 l-166 -969q-31 -180 -99.5 -268t-207.5 -88q-91 0 -156 35zM786 45q0 28 17 127l225 1282l154 33l-226 -1272q-10 -59 -10 -84q0 -29 27 -38t86 -9v-84q-34 -10 -91.5 -19.5t-88.5 -9.5q-93 0 -93 74z" />
</font>
</defs>
</svg>
