<?xml version="1.0" standalone="no"?>
<!DOCTYPE svg PUBLIC "-//W3C//DTD SVG 1.1//EN" "http://www.w3.org/Graphics/SVG/1.1/DTD/svg11.dtd" >
<svg xmlns="http://www.w3.org/2000/svg">
<metadata></metadata>
<defs>
<font id="gandhi_sansbold_italic" horiz-adv-x="1126" >
<font-face units-per-em="2048" ascent="1567" descent="-481" />
<missing-glyph horiz-adv-x="450" />
<glyph horiz-adv-x="2048" />
<glyph horiz-adv-x="2048" />
<glyph unicode="&#xd;" horiz-adv-x="2048" />
<glyph unicode=" "  horiz-adv-x="450" />
<glyph unicode="&#x09;" horiz-adv-x="450" />
<glyph unicode="&#xa0;" horiz-adv-x="450" />
<glyph unicode="!" horiz-adv-x="591" d="M68 115q0 65 44.5 110t108.5 45q66 0 106 -41.5t40 -101.5q0 -65 -45 -110.5t-109 -45.5q-66 0 -105.5 41.5t-39.5 102.5zM176 428l88 944h328l-246 -944h-170z" />
<glyph unicode="&#x22;" horiz-adv-x="894" d="M201 864l10 459h295l-152 -459h-153zM590 864l10 459h295l-152 -459h-153z" />
<glyph unicode="#" d="M29 336l34 196h197l64 187h-201l35 196h233l98 285h195l-98 -285h196l99 285h194l-98 -285h164l-35 -196h-197l-63 -187h201l-35 -196h-234l-96 -285h-195l97 285h-197l-96 -285h-195l97 285h-164zM455 532h196l64 187h-197z" />
<glyph unicode="$" d="M63 72l74 219q141 -84 312 -98l69 395q-37 23 -56.5 36t-53 38t-52 43.5t-42 47t-36 55.5t-21.5 62.5t-9 73.5q0 181 112.5 287t301.5 121l38 215h154l-39 -219q179 -20 275 -80l-76 -219q-92 55 -238 75l-63 -360q49 -30 81 -52t73 -57.5t65.5 -69t41.5 -80t17 -97.5 q0 -77 -23.5 -146t-72 -129t-133.5 -101.5t-197 -54.5l-37 -210h-153l35 206q-92 5 -187.5 31t-159.5 68zM504 975q0 -59 71 -117l48 262q-119 -30 -119 -145zM606 211q121 47 121 154q0 69 -72 131z" />
<glyph unicode="%" horiz-adv-x="1748" d="M174 973q0 164 107.5 270.5t277.5 106.5q136 0 224.5 -71t88.5 -202q0 -164 -107.5 -270.5t-277.5 -106.5q-136 0 -224.5 71t-88.5 202zM268 92l1147 1260l133 -121l-1147 -1260zM393 971q0 -44 25.5 -77.5t83.5 -33.5q71 0 111 66t40 155q0 44 -24 77.5t-82 33.5 q-71 0 -112.5 -66.5t-41.5 -154.5zM944 244q0 164 107.5 270.5t277.5 106.5q136 0 224.5 -71t88.5 -202q0 -164 -107.5 -270.5t-277.5 -106.5q-136 0 -224.5 71t-88.5 202zM1163 242q0 -44 25.5 -77.5t83.5 -33.5q71 0 111 66t40 155q0 44 -24 77.5t-82 33.5 q-71 0 -112.5 -66.5t-41.5 -154.5z" />
<glyph unicode="&#x26;" horiz-adv-x="1361" d="M57 309q0 78 28.5 148t81 125.5t116 99.5t141.5 80q-43 72 -63.5 129.5t-20.5 124.5q0 146 112 233.5t289 87.5q147 0 246.5 -74.5t99.5 -191.5q0 -65 -26 -122t-74 -102.5t-101.5 -80t-121.5 -66.5l156 -247q79 122 104 295h260q-34 -134 -99.5 -266.5t-148.5 -219.5 q28 -40 47 -51.5t50 -11.5h73v-195q-74 -18 -180 -18q-63 0 -105 21.5t-83 80.5q-88 -55 -193.5 -86t-200.5 -31q-172 0 -279.5 91.5t-107.5 246.5zM309 332q0 -72 46.5 -115t121.5 -43q123 0 254 86l-203 330q-90 -45 -154.5 -112t-64.5 -146zM602 1018q0 -51 66 -158 q159 86 159 176q0 44 -29 68t-75 24q-52 0 -86.5 -30t-34.5 -80z" />
<glyph unicode="'" horiz-adv-x="505" d="M201 864l10 459h295l-152 -459h-153z" />
<glyph unicode="(" horiz-adv-x="894" d="M102 438q0 398 200 694t581 478l80 -166q-285 -158 -450 -413.5t-165 -581.5q0 -414 318 -607l-93 -166q-93 45 -174.5 114t-149.5 163t-107.5 219.5t-39.5 265.5z" />
<glyph unicode=")" horiz-adv-x="894" d="M-41 -158q284 158 449 414t165 582q0 414 -317 606l92 166q93 -45 174.5 -114t149.5 -163t107.5 -219.5t39.5 -265.5q0 -398 -199.5 -694t-580.5 -478z" />
<glyph unicode="*" horiz-adv-x="866" d="M117 928l344 71l-307 91l151 206l191 -249l-39 325h252l-156 -332l278 250l84 -223l-344 -72l308 -90l-152 -207l-190 250l38 -325h-251l155 331l-278 -249z" />
<glyph unicode="+" d="M133 522v197h359v358h200v-358h363v-197h-363v-356h-200v356h-359z" />
<glyph unicode="," horiz-adv-x="512" d="M-72 -199q156 153 156 322q0 17 -6 86h264q4 -24 4 -68q0 -116 -89.5 -230.5t-225.5 -201.5z" />
<glyph unicode="-" horiz-adv-x="716" d="M57 428l29 172h573l-28 -172h-574z" />
<glyph unicode="." horiz-adv-x="512" d="M47 115q0 65 45 110t109 45q66 0 105.5 -41.5t39.5 -101.5q0 -65 -44.5 -110.5t-108.5 -45.5q-66 0 -106 42t-40 102z" />
<glyph unicode="/" horiz-adv-x="1118" d="M-154 -481l1176 2068h209l-1178 -2068h-207z" />
<glyph unicode="0" d="M100 438q0 131 21.5 257.5t70 246.5t118.5 210t176.5 145t234.5 55q182 0 276.5 -127t94.5 -340q0 -131 -21.5 -257.5t-70 -246.5t-118.5 -210t-176.5 -145t-234.5 -55q-182 0 -276.5 127t-94.5 340zM371 444q0 -245 139 -245q90 0 163 103t110.5 257.5t37.5 319.5 q0 245 -139 245q-90 0 -163 -103t-110.5 -257.5t-37.5 -319.5z" />
<glyph unicode="1" d="M135 0l33 186l250 17l157 897l-266 -33l35 193l399 75h136l-199 -1130l262 -19l-33 -186h-774z" />
<glyph unicode="2" d="M37 0v129q103 77 203 160t201 180.5t176.5 186.5t123 177t47.5 154q0 61 -41 98t-100 37q-73 0 -157.5 -43.5t-151.5 -101.5l-107 194q74 66 200 123.5t257 57.5q162 0 262.5 -87.5t100.5 -234.5q0 -95 -40 -196.5t-99.5 -185t-140.5 -168t-149.5 -142.5t-140.5 -111h461 l-51 -227h-854z" />
<glyph unicode="3" d="M61 139l148 185q50 -54 123 -91.5t151 -37.5q91 0 148 50t57 130q0 92 -78 143t-211 51h-57l35 191q109 12 196 43.5t142 86t55 122.5q0 52 -39.5 85t-103.5 33q-141 0 -265 -118l-102 178q75 71 179 116.5t220 45.5q95 0 176.5 -35.5t135 -110.5t53.5 -176 q0 -118 -83 -215t-204 -133q92 -35 152.5 -117.5t60.5 -187.5q0 -101 -35.5 -180.5t-96.5 -127.5t-138 -73t-166 -25q-132 0 -258.5 49.5t-194.5 118.5z" />
<glyph unicode="4" d="M47 317v144l830 874h170l-142 -803h144l-37 -215h-144l-55 -317h-254l57 317h-569zM416 532h239l58 320z" />
<glyph unicode="5" d="M68 135l153 187q49 -61 123.5 -96.5t142.5 -35.5q104 0 169 54.5t65 144.5q0 209 -301 209h-209l188 725h650l-56 -225h-426l-71 -293h22q211 0 334 -99t123 -288q0 -198 -131 -322.5t-361 -124.5q-121 0 -229 43.5t-186 120.5z" />
<glyph unicode="6" d="M113 418q0 185 73 347t199.5 279t291 196t351.5 112l33 -219q-412 -95 -586 -338q96 28 182 28q173 0 268 -97.5t95 -248.5q0 -105 -33.5 -197.5t-94.5 -161t-153 -108t-204 -39.5q-192 0 -307 125.5t-115 321.5zM365 449q0 -113 46.5 -188t139.5 -75q95 0 159 71t64 177 q0 84 -47.5 135.5t-138.5 51.5q-107 0 -211 -46q-12 -61 -12 -126z" />
<glyph unicode="7" d="M104 0l723 1098h-610l55 225h848v-156l-704 -1167h-312z" />
<glyph unicode="8" d="M92 301q0 259 297 399q-129 122 -129 265q0 166 116.5 276.5t309.5 110.5q170 0 276.5 -82.5t106.5 -216.5q0 -238 -266 -371q82 -64 128 -135.5t46 -165.5q0 -183 -130.5 -296.5t-330.5 -113.5q-190 0 -307 94t-117 236zM344 326q0 -64 49 -101t131 -37q85 0 145 47 t60 121q0 52 -40.5 97t-121.5 106q-223 -85 -223 -233zM512 977q0 -49 30.5 -88.5t88.5 -83.5q77 40 128.5 95t51.5 118q0 55 -40.5 87t-102.5 32q-67 0 -111.5 -46t-44.5 -114z" />
<glyph unicode="9" d="M131 190q406 90 584 338q-82 -28 -180 -28q-173 0 -268 97.5t-95 248.5q0 105 33.5 197.5t94.5 161t153 108t204 39.5q192 0 307 -125.5t115 -321.5q0 -185 -73 -347t-199.5 -279t-291 -196t-351.5 -112zM418 889q0 -84 47.5 -135.5t138.5 -51.5q112 0 209 43 q14 60 14 129q0 113 -46.5 188t-139.5 75q-95 0 -159 -71t-64 -177z" />
<glyph unicode=":" horiz-adv-x="512" d="M51 115q0 65 45 110t109 45q66 0 105.5 -41.5t39.5 -101.5q0 -65 -44.5 -110.5t-108.5 -45.5q-66 0 -106 42t-40 102zM141 700q0 65 45 110.5t109 45.5q66 0 105.5 -41.5t39.5 -101.5q0 -65 -44.5 -110.5t-108.5 -45.5q-66 0 -106 41.5t-40 101.5z" />
<glyph unicode=";" horiz-adv-x="512" d="M-72 -199q156 153 156 322q0 17 -6 86h264q4 -24 4 -68q0 -116 -89.5 -230.5t-225.5 -201.5zM141 700q0 65 45 110.5t109 45.5q66 0 105.5 -41.5t39.5 -101.5q0 -65 -44.5 -110.5t-108.5 -45.5q-66 0 -106 41.5t-40 101.5z" />
<glyph unicode="&#x3c;" d="M174 573v103l754 399l86 -174l-557 -276l557 -277l-86 -174z" />
<glyph unicode="=" d="M133 313v197h922v-197h-922zM133 735v197h922v-197h-922z" />
<glyph unicode="&#x3e;" d="M174 348l557 277l-557 276l86 174l754 -399v-103l-754 -399z" />
<glyph unicode="?" horiz-adv-x="882" d="M172 115q0 65 45 110t109 45q66 0 105.5 -41.5t39.5 -101.5q0 -65 -45 -110.5t-109 -45.5q-66 0 -105.5 41.5t-39.5 102.5zM197 1300q64 41 166 71t210 30q152 0 244 -76t92 -199q0 -66 -25 -124.5t-64.5 -102.5t-87.5 -84t-96 -77.5t-87.5 -74.5t-64.5 -82.5t-25 -95.5 v-57h-232v98q0 74 43 144.5t104 125t122 104t104 100t43 94.5t-31.5 67t-89.5 23q-53 0 -115 -21.5t-112 -54.5z" />
<glyph unicode="@" horiz-adv-x="1966" d="M78 350q0 239 76.5 433.5t213 322.5t323 197t407.5 69q133 0 252 -26.5t221.5 -82.5t177.5 -137t117.5 -197.5t42.5 -256.5q0 -315 -189 -508t-501 -193q-43 0 -77 7t-60.5 28t-26.5 55q0 27 6 68q-50 -71 -126 -114.5t-153 -43.5q-126 0 -198 93t-72 280q0 101 20 196 t64 181.5t108 150.5t157.5 102t205.5 38q98 0 200 -27.5t171 -75.5l-99 -567q-26 -152 -26 -182q0 -27 30 -27q111 0 204.5 73t146.5 197t53 271q0 139 -52.5 246t-145.5 172t-212 98t-260 33q-243 0 -431.5 -100.5t-296 -293.5t-107.5 -450q0 -325 180.5 -506.5 t511.5 -181.5q165 0 327 53.5t283 132.5l70 -141q-122 -80 -323.5 -137.5t-381.5 -57.5q-165 0 -303 43.5t-234.5 119.5t-163.5 179t-98.5 221t-31.5 246zM758 373q0 -189 102 -189q62 0 134 67t116 155l59 358q-53 33 -131 33q-72 0 -128.5 -41.5t-88 -107.5t-47.5 -136.5 t-16 -138.5z" />
<glyph unicode="A" horiz-adv-x="1349" d="M-43 0l799 1372h159l318 -1372h-270l-70 332h-467l-188 -332h-281zM547 543h301l-82 385z" />
<glyph unicode="B" horiz-adv-x="1200" d="M61 0l240 1372h434q398 0 398 -305q0 -123 -71.5 -207t-199.5 -117q119 -22 180.5 -96.5t61.5 -197.5q0 -110 -41.5 -196.5t-115.5 -141t-173 -83t-217 -28.5h-496zM365 238h184q274 0 274 204q0 170 -254 170h-139zM469 831h117q117 0 190.5 45t73.5 138q0 65 -40 93 t-124 28h-166z" />
<glyph unicode="C" horiz-adv-x="1300" d="M109 571q0 171 53 321t151.5 263.5t252 179.5t341.5 66q215 0 398 -86l-80 -228q-153 82 -307 82q-126 0 -228.5 -46.5t-168.5 -126.5t-102 -186t-36 -226q0 -190 99.5 -287.5t287.5 -97.5q87 0 191 25.5t172 58.5l30 -220q-74 -37 -204.5 -64.5t-251.5 -27.5 q-292 0 -445 156.5t-153 443.5z" />
<glyph unicode="D" horiz-adv-x="1421" d="M61 0l240 1372h461q289 0 450.5 -140t161.5 -421q0 -137 -26.5 -255t-86.5 -222t-150 -177t-225 -115t-304 -42h-521zM365 238h194q259 0 397 153.5t138 407.5q0 168 -92 252t-283 84h-199z" />
<glyph unicode="E" horiz-adv-x="1062" d="M61 0l240 1372h791l-43 -237h-527l-51 -299h434l-41 -230h-434l-63 -368h551l-41 -238h-816z" />
<glyph unicode="F" horiz-adv-x="1026" d="M61 0l240 1372h786l-43 -237h-522l-53 -308h428l-41 -231h-426l-104 -596h-265z" />
<glyph unicode="G" horiz-adv-x="1366" d="M109 561q0 242 100.5 433t284.5 299t421 108q131 0 247.5 -26t197.5 -64l-82 -226q-62 33 -158 58.5t-194 25.5q-245 0 -394 -161t-149 -420q0 -196 98 -292.5t287 -96.5q98 0 170 20l49 268h-235l43 230h491l-121 -670q-87 -30 -216 -53t-247 -23q-276 0 -434.5 152 t-158.5 438z" />
<glyph unicode="H" horiz-adv-x="1433" d="M61 0l240 1372h262l-92 -526h608l92 526h263l-240 -1372h-262l106 612h-608l-106 -612h-263z" />
<glyph unicode="I" horiz-adv-x="563" d="M61 0l240 1372h262l-239 -1372h-263z" />
<glyph unicode="J" horiz-adv-x="575" d="M-152 -47q65 30 104.5 56t77 68t61 102t38.5 147l184 1046h256l-188 -1061q-22 -125 -63.5 -218.5t-102 -156.5t-128.5 -103.5t-159 -70.5z" />
<glyph unicode="K" horiz-adv-x="1259" d="M61 0l240 1372h262l-239 -1372h-263zM463 713l551 659h303l-576 -657l285 -486q21 -34 38.5 -46.5t53.5 -12.5h41v-170q-99 -16 -176 -16q-64 0 -104 31t-78 98z" />
<glyph unicode="L" horiz-adv-x="1038" d="M61 0l240 1372h262l-198 -1134h561l-41 -238h-824z" />
<glyph unicode="M" horiz-adv-x="1679" d="M61 0l240 1372h283l239 -913l570 913h286l-239 -1372h-254l145 831l-518 -831h-123l-227 850l-146 -850h-256z" />
<glyph unicode="N" horiz-adv-x="1415" d="M61 0l240 1372h283l426 -842l145 842h260l-239 -1372h-189l-495 983l-170 -983h-261z" />
<glyph unicode="O" horiz-adv-x="1462" d="M109 502q0 147 31 280.5t95 246.5t155.5 196t218.5 129.5t278 46.5q254 0 391 -145t137 -386q0 -147 -31 -280.5t-95 -246.5t-155.5 -196t-218.5 -129.5t-278 -46.5q-254 0 -391 145t-137 386zM379 518q0 -152 75 -234.5t205 -82.5q110 0 203.5 56.5t154.5 149 t94.5 208.5t33.5 239q0 151 -75.5 234t-205.5 83q-110 0 -203.5 -56.5t-154 -149t-94 -208.5t-33.5 -239z" />
<glyph unicode="P" horiz-adv-x="1134" d="M61 0l240 1372h412q216 0 326 -83t110 -259q0 -236 -152 -358.5t-417 -122.5h-160l-94 -549h-265zM459 774h119q301 0 301 219q0 142 -177 142h-180z" />
<glyph unicode="Q" horiz-adv-x="1462" d="M109 504q1 147 32.5 279.5t95.5 245.5t155 196t218 129.5t277 46.5q254 0 391 -146t137 -387q0 -216 -67 -398t-205 -311t-330 -169q32 -58 61 -102.5t65.5 -88.5t76.5 -68t80 -24h51v-172q-88 -16 -182 -16q-48 0 -90.5 19t-79 50.5t-81 94t-83.5 126.5t-99 171 q-206 29 -314.5 169t-108.5 355zM379 518q0 -152 75 -234.5t205 -82.5q110 0 203.5 56.5t154.5 149t94.5 208.5t33.5 239q0 151 -75.5 234t-205.5 83q-110 0 -203 -56.5t-153.5 -149t-94.5 -209t-34 -238.5z" />
<glyph unicode="R" horiz-adv-x="1234" d="M61 0l240 1372h428q199 0 306.5 -87t107.5 -267q0 -154 -104.5 -259t-282.5 -134q36 -6 64.5 -32t41 -49t25.5 -57l92 -225q19 -48 40.5 -70t51.5 -22h49v-170q-72 -16 -194 -16q-69 0 -111 35t-70 104l-141 358q-19 50 -44 66t-73 16h-65l-98 -563h-263zM461 788h131 q121 0 200.5 52t79.5 147q0 82 -52.5 115t-149.5 33h-148z" />
<glyph unicode="S" horiz-adv-x="1024" d="M-14 76l75 225q76 -48 173.5 -74t181.5 -26q99 0 166 47t67 131q0 39 -21 75t-54.5 63t-77 57t-89 57t-89 63t-77 74.5t-54.5 92.5t-21 116q0 204 135 314t354 110q98 0 201 -26t162 -62l-76 -228q-55 34 -147 59t-170 25q-86 0 -137.5 -39.5t-51.5 -119.5q0 -38 27 -74 t70 -67t95.5 -64t105 -71.5t95.5 -81.5t70 -102.5t27 -127.5q0 -87 -30.5 -165t-93 -143.5t-171 -104t-250.5 -38.5q-99 0 -210 28.5t-185 76.5z" />
<glyph unicode="T" horiz-adv-x="1267" d="M184 1133l43 239h1125l-43 -239h-430l-197 -1133h-264l196 1133h-430z" />
<glyph unicode="U" horiz-adv-x="1409" d="M119 406q0 53 14 135l148 831h264l-144 -811q-14 -91 -14 -133q0 -217 275 -217q150 0 236 82.5t112 228.5l149 850h264l-159 -919q-40 -233 -201.5 -357.5t-425.5 -124.5q-105 0 -195.5 24.5t-164 74.5t-116 136t-42.5 200z" />
<glyph unicode="V" horiz-adv-x="1306" d="M174 1372h266l181 -928l503 928h283l-776 -1372h-160z" />
<glyph unicode="W" horiz-adv-x="1904" d="M184 1372h269l120 -880l355 694l-29 186h266l117 -885l440 885h283l-729 -1372h-166l-125 805l-426 -805h-166z" />
<glyph unicode="X" horiz-adv-x="1331" d="M-25 0l549 737l-278 635h297l178 -463l338 463h307l-504 -653l314 -719h-297l-217 541l-375 -541h-312z" />
<glyph unicode="Y" horiz-adv-x="1249" d="M205 1372h280l183 -579l376 579h299l-589 -854l-90 -518h-263l95 541z" />
<glyph unicode="Z" horiz-adv-x="1251" d="M27 182l829 951h-629l43 239h985v-174l-872 -960h723l-41 -238h-1036z" />
<glyph unicode="[" horiz-adv-x="858" d="M4 -322l342 1942h635l-31 -176h-399l-279 -1589h398l-31 -177h-635z" />
<glyph unicode="\" horiz-adv-x="1122" d="M244 1587h200l576 -2068h-201z" />
<glyph unicode="]" horiz-adv-x="860" d="M-76 -322l31 177h399l279 1589h-397l30 176h635l-342 -1942h-635z" />
<glyph unicode="^" d="M143 598l400 754h102l399 -754l-174 -86l-276 557l-277 -557z" />
<glyph unicode="_" d="M-143 -348l28 172h1141l-29 -172h-1140z" />
<glyph unicode="`" horiz-adv-x="819" d="M336 1470l264 74l107 -360l-105 -37z" />
<glyph unicode="a" horiz-adv-x="1089" d="M72 344q0 101 20 196t64 181.5t108 150.5t157.5 102t205.5 38q98 0 199.5 -27.5t170.5 -75.5l-112 -653q-17 -100 -17 -113q0 -18 21 -24.5t84 -9.5v-109q-119 -29 -228 -29q-63 0 -97 19.5t-34 70.5q0 20 7 68q-50 -71 -126 -114.5t-153 -43.5q-126 0 -198 93t-72 280z M317 373q0 -189 103 -189q62 0 134 67t116 155l59 358q-53 33 -131 33q-58 0 -106.5 -28t-80 -72t-53.5 -101t-31.5 -113.5t-9.5 -109.5z" />
<glyph unicode="b" horiz-adv-x="1056" d="M61 74l236 1372l252 41l-107 -627q119 152 281 152q133 0 199.5 -102.5t66.5 -270.5q0 -103 -21 -199.5t-65 -182t-107.5 -149t-154 -100.5t-197.5 -37q-215 0 -383 103zM334 223q55 -37 129 -37t131 42.5t88 110.5t46 140t15 144q0 45 -8.5 82.5t-31.5 65.5t-58 28 q-119 0 -250 -209z" />
<glyph unicode="c" horiz-adv-x="899" d="M68 342q0 139 36.5 260t105.5 212.5t176 144.5t239 53q68 0 137.5 -21.5t109.5 -50.5l-84 -211q-34 28 -89 48t-107 20q-84 0 -149.5 -64t-97.5 -158t-32 -196q0 -93 36.5 -139.5t101.5 -46.5q98 0 260 94l57 -211q-53 -36 -159.5 -70.5t-190.5 -34.5q-159 0 -254.5 89.5 t-95.5 281.5z" />
<glyph unicode="d" horiz-adv-x="1099" d="M72 344q0 101 20 196t64 181.5t108 150.5t157.5 102t205.5 38q91 0 141 -15l74 449l250 41l-207 -1231q-17 -100 -17 -113q0 -18 21 -24.5t84 -9.5v-109q-99 -29 -228 -29q-68 0 -99.5 21t-31.5 69q0 20 7 68q-50 -71 -126 -114.5t-153 -43.5q-126 0 -198 93t-72 280z M317 373q0 -189 103 -189q62 0 134 67t116 155l59 358q-53 33 -131 33q-58 0 -106.5 -28t-80 -72t-53.5 -101t-31.5 -113.5t-9.5 -109.5z" />
<glyph unicode="e" horiz-adv-x="940" d="M68 350q0 98 23 193t70 180t112 149.5t155.5 102t194.5 37.5q56 0 104.5 -12.5t89 -38.5t63.5 -72.5t23 -108.5q0 -160 -161 -263.5t-429 -110.5v-25q0 -38 4.5 -66.5t16.5 -58.5t39.5 -46.5t68.5 -16.5q75 0 167.5 36.5t150.5 75.5l57 -213q-66 -46 -181.5 -83.5 t-217.5 -37.5q-350 0 -350 379zM342 573q138 16 223.5 62t85.5 117q0 30 -20 46.5t-56 16.5q-60 0 -128.5 -65t-104.5 -177z" />
<glyph unicode="f" horiz-adv-x="737" d="M-233 -434l69 211q26 -14 66 -25.5t69 -11.5q57 0 83.5 42t45.5 152l144 846h-164l39 203h160l14 82q17 99 49.5 175.5t71 122t87.5 74.5t94.5 39.5t96.5 10.5q105 0 189 -41l-101 -201q-42 25 -92 25q-128 0 -156 -223l-10 -64h223l-34 -203h-224l-153 -897 q-33 -197 -113 -280.5t-223 -83.5q-113 0 -231 47z" />
<glyph unicode="g" horiz-adv-x="1060" d="M27 -401l71 213q63 -30 148 -54t149 -24q83 0 128.5 59.5t68.5 177.5l29 158q-68 -87 -137.5 -122.5t-149.5 -35.5q-68 0 -119.5 29t-82 81.5t-45.5 119t-15 147.5q0 98 19.5 191.5t63 180t105.5 151t154.5 103t203.5 38.5q212 0 379 -103l-159 -927q-22 -124 -51 -206 t-78 -142.5t-121.5 -87.5t-177.5 -27q-94 0 -206.5 25.5t-176.5 54.5zM317 373q0 -189 103 -189q62 0 134 67t116 155l59 358q-53 33 -131 33q-58 0 -106.5 -28t-80 -72t-53.5 -101t-31.5 -113.5t-9.5 -109.5z" />
<glyph unicode="h" horiz-adv-x="1118" d="M57 0l246 1446l250 41l-109 -633q60 72 140 115t168 43q128 0 191 -79t63 -206q0 -71 -15 -152l-53 -323q-16 -96 -16 -111q0 -17 22 -23t82 -9v-109q-93 -29 -231 -29q-131 0 -131 97q0 29 8 73l73 398q15 81 15 131q0 129 -92 129q-68 0 -144 -66.5t-125 -146.5 l-98 -586h-244z" />
<glyph unicode="i" horiz-adv-x="591" d="M96 68q0 4 13 92l100 567q14 83 14 113q0 18 -22 25t-80 9l22 107q32 9 96.5 20t110.5 11q58 0 93.5 -18.5t35.5 -71.5q0 -32 -16 -131l-92 -539q-17 -91 -17 -107q0 -19 22.5 -26t82.5 -10v-109q-19 -6 -98 -17.5t-136 -11.5q-129 0 -129 97zM248 1313q0 69 46.5 116.5 t115.5 47.5t110 -43t41 -107q0 -69 -46.5 -116.5t-115.5 -47.5t-110 43t-41 107z" />
<glyph unicode="j" horiz-adv-x="550" d="M-254 -432l66 201q71 -43 125 -43q56 0 79 43.5t45 164.5l142 793q14 83 14 113q0 18 -22 25t-80 9l22 107q32 9 96.5 20t110.5 11q58 0 93.5 -18.5t35.5 -71.5q0 -32 -16 -131l-152 -879q-36 -208 -111 -300.5t-219 -92.5q-133 0 -229 49zM242 1323q0 74 50.5 119 t115.5 45q67 0 107 -42.5t40 -103.5q0 -69 -45 -118t-117 -49q-69 0 -110 43t-41 106z" />
<glyph unicode="k" horiz-adv-x="1085" d="M57 0l246 1446l250 41l-252 -1487h-244zM420 537l371 446h299l-416 -448l155 -361q17 -38 42 -50.5t87 -14.5v-109q-127 -29 -194 -29q-62 0 -94 24.5t-56 84.5z" />
<glyph unicode="l" horiz-adv-x="552" d="M68 61q0 28 10 93l217 1292l250 41l-207 -1231q-16 -94 -16 -113q0 -18 21 -24.5t83 -9.5v-109q-99 -29 -227 -29q-68 0 -99.5 21t-31.5 69z" />
<glyph unicode="m" horiz-adv-x="1716" d="M84 0l125 725q14 89 14 113q0 20 -20.5 26.5t-81.5 9.5l22 107q86 31 207 31q62 0 95.5 -20.5t33.5 -69.5q0 -18 -8 -72q143 162 309 162q189 0 240 -174q145 174 330 174q124 0 189 -81.5t65 -207.5q0 -48 -21 -182l-47 -289q-16 -96 -16 -107q0 -19 21.5 -26t82.5 -10 v-109q-96 -29 -231 -29q-131 0 -131 97q0 32 8 73l71 383q19 93 19 154q0 121 -94 121q-62 0 -128 -54.5t-108 -123.5l-102 -621h-252l100 539q15 81 15 131q0 27 -3.5 47.5t-13 40t-29.5 30.5t-49 11q-41 0 -83 -21t-77 -56t-62.5 -71.5t-49.5 -75.5l-96 -575h-244z" />
<glyph unicode="n" horiz-adv-x="1144" d="M84 0l125 725q14 89 14 113q0 20 -20.5 26.5t-81.5 9.5l22 107q86 31 207 31q62 0 95.5 -20.5t33.5 -69.5q0 -14 -8 -68q61 72 140 115t167 43q128 0 191 -79t63 -206q0 -77 -14 -152l-53 -323q-17 -102 -17 -111q0 -16 22.5 -22.5t82.5 -9.5v-109q-93 -29 -232 -29 q-131 0 -131 97q0 29 8 73l74 398q14 75 14 131q0 129 -92 129q-68 0 -143.5 -66.5t-124.5 -146.5l-98 -586h-244z" />
<glyph unicode="o" horiz-adv-x="1011" d="M68 375q0 100 20.5 192.5t63 173.5t103 141t146 95t187.5 35q170 0 263 -108t93 -296q0 -100 -20.5 -192.5t-63 -173.5t-103 -141t-146 -95t-187.5 -35q-170 0 -263 108t-93 296zM313 377q0 -92 35 -146.5t107 -54.5q102 0 172.5 123t70.5 307q0 93 -34.5 147t-106.5 54 q-102 0 -173 -123t-71 -307z" />
<glyph unicode="p" horiz-adv-x="1089" d="M6 -453l203 1178q14 89 14 113q0 20 -20.5 26.5t-81.5 9.5l22 107q86 31 207 31q62 0 95.5 -20.5t33.5 -69.5q0 -8 -2.5 -31t-3.5 -33q121 154 283 154q133 0 199.5 -102.5t66.5 -270.5q0 -103 -21 -199.5t-65 -182t-107.5 -149t-154 -100.5t-197.5 -37q-64 0 -151 19 l-76 -443h-244zM365 223q50 -37 131 -37q74 0 131 42.5t88 110.5t46 140t15 144q0 45 -8.5 82.5t-31.5 65.5t-58 28q-120 0 -252 -211z" />
<glyph unicode="q" horiz-adv-x="1060" d="M72 344q0 101 20 196t64 181.5t108 150.5t157.5 102t205.5 38q98 0 199.5 -27.5t170.5 -75.5l-235 -1362h-244l103 582q-50 -71 -126 -114.5t-153 -43.5q-126 0 -198 93t-72 280zM317 373q0 -189 103 -189q62 0 134 67t116 155l59 358q-53 33 -131 33q-58 0 -106.5 -28 t-80 -72t-53.5 -101t-31.5 -113.5t-9.5 -109.5z" />
<glyph unicode="r" horiz-adv-x="819" d="M84 0l125 725q14 89 14 113q0 20 -20.5 26.5t-81.5 9.5l22 107q86 31 207 31q62 0 95.5 -20.5t33.5 -69.5q0 -4 -12 -103q68 82 143.5 137.5t137.5 55.5q48 0 71 -35l-59 -232q-33 11 -66 11q-57 0 -117.5 -35t-148.5 -131l-100 -590h-244z" />
<glyph unicode="s" horiz-adv-x="833" d="M-4 74l90 192q53 -35 138 -65.5t155 -30.5q56 0 86.5 23.5t30.5 60.5q0 32 -27.5 62.5t-68.5 54.5t-89.5 57.5t-89.5 67.5t-68.5 87t-27.5 115q0 147 102 230.5t256 83.5q86 0 172.5 -26t130.5 -56l-88 -193q-44 27 -108 48.5t-117 21.5q-46 0 -75 -23t-29 -61 q0 -29 20.5 -56t53 -49.5t71.5 -46.5t78 -53t71.5 -62t53 -80t20.5 -102q0 -140 -103 -221.5t-272 -81.5q-102 0 -207.5 32.5t-158.5 70.5z" />
<glyph unicode="t" horiz-adv-x="745" d="M68 780l36 203h166l125 244h150l-43 -244h227l-33 -203h-231l-74 -426q-18 -111 -18 -129q0 -37 43 -37q52 0 159 58l50 -201q-48 -26 -137 -50t-160 -24q-82 0 -141.5 42t-59.5 116q0 37 18 156l86 495h-163z" />
<glyph unicode="u" horiz-adv-x="1142" d="M88 874l23 107q28 9 92.5 20t120.5 11q68 0 97.5 -20.5t29.5 -69.5q0 -20 -17 -113l-63 -356q-19 -116 -19 -152q0 -115 92 -115q51 0 110 41.5t99 90.5t62 92l96 573h244l-125 -727q-17 -96 -17 -113q0 -18 21 -24.5t84 -9.5v-109q-119 -29 -227 -29q-63 0 -97.5 20 t-34.5 70q0 24 7 72q-67 -80 -147 -121t-159 -41q-127 0 -189 81.5t-62 209.5q0 70 16 172l51 297q14 84 14 107q0 19 -21 26t-81 10z" />
<glyph unicode="v" horiz-adv-x="1003" d="M57 874l27 109q29 9 93 19t102 10q61 0 80.5 -32.5t31.5 -121.5l70 -506l143 230q74 120 100.5 178t26.5 100q0 28 -16 82l217 70q14 -25 29.5 -72t15.5 -82q0 -60 -25.5 -127t-91.5 -168l-373 -563h-206l-121 801q-6 45 -24 58.5t-79 14.5z" />
<glyph unicode="w" horiz-adv-x="1513" d="M57 874l27 109q114 29 190 29q35 0 56.5 -8t34 -30.5t18.5 -48t12 -73.5l62 -485l129 237q54 100 75 159t21 105q0 44 -16 84l233 60l96 -647l138 233q106 177 106 264q0 39 -18 80l217 70q17 -27 33 -73.5t16 -86.5q0 -62 -24 -124t-87 -163l-350 -565h-205l-67 473 l-277 -473h-201l-112 799q-6 47 -23.5 60.5t-83.5 14.5z" />
<glyph unicode="x" horiz-adv-x="1040" d="M-14 0l399 539l-106 266q-18 43 -44.5 56t-87.5 13l23 109q114 29 199 29q50 0 78.5 -28.5t54.5 -96.5l65 -180l185 276h282l-377 -496l127 -290q24 -56 47.5 -71.5t98.5 -16.5v-109q-88 -29 -215 -29q-59 0 -94 35t-72 127l-74 178l-203 -311h-286z" />
<glyph unicode="y" horiz-adv-x="1015" d="M-86 -438l66 205q82 -37 124 -37q61 0 100.5 40t112.5 169l21 38l-172 818q-9 48 -28 63.5t-77 15.5l23 107q102 31 190 31q61 0 85 -27.5t42 -112.5l113 -559l137 303q48 108 63 155.5t15 82.5q0 30 -20 88l221 70q19 -26 34 -67t15 -81q0 -114 -119 -346l-323 -641 q-176 -358 -418 -358q-114 0 -205 43z" />
<glyph unicode="z" horiz-adv-x="983" d="M37 0v137l532 651h-432l29 195h739v-139l-543 -649h510l-30 -195h-805z" />
<glyph unicode="{" horiz-adv-x="919" d="M43 573l25 150q106 18 162 46t87.5 82t49.5 153l49 284q17 99 54.5 166t95.5 102.5t123.5 49.5t154.5 14h176l-31 -176h-125q-46 0 -69 -2t-51.5 -11t-43 -28t-28.5 -53t-23 -86l-45 -267q-28 -154 -97.5 -236.5t-215.5 -109.5q107 -35 154 -92.5t47 -152.5 q0 -69 -35 -245t-35 -210q0 -26 8.5 -44.5t21.5 -28.5t36.5 -15t44 -6.5t53.5 -1.5h123l-31 -177h-156q-84 0 -144 10t-106 35t-69 69.5t-23 109.5q0 51 36 246t36 251q0 81 -45.5 116t-163.5 58z" />
<glyph unicode="|" horiz-adv-x="614" d="M227 -481v2068h201v-2068h-201z" />
<glyph unicode="}" horiz-adv-x="919" d="M-86 -322l31 177h125q46 0 69 2t51.5 11t43 28t28.5 53t23 86l45 266q28 154 97.5 236.5t215.5 109.5q-107 35 -154 93t-47 153q0 69 35 245t35 210q0 26 -8.5 44.5t-21.5 28.5t-36.5 15t-44 6.5t-53.5 1.5h-123l31 176h156q172 0 257 -48.5t85 -174.5q0 -51 -36 -246.5 t-36 -251.5q0 -81 45.5 -116t163.5 -58l-25 -150q-80 -14 -128 -31t-84 -49t-55 -78.5t-32 -121.5l-49 -285q-17 -99 -54.5 -166t-95.5 -102.5t-123.5 -49.5t-154.5 -14h-176z" />
<glyph unicode="~" d="M133 502q14 51 33 95t46.5 86t67 66.5t85.5 24.5q59 0 148 -30t169 -59.5t117 -29.5q45 0 69.5 27t40.5 84l146 -43q-14 -51 -33 -95t-46.5 -86t-67 -66.5t-85.5 -24.5q-59 0 -148 29.5t-169 59t-117 29.5q-45 0 -69.5 -27t-40.5 -83z" />
<glyph unicode="&#xa1;" horiz-adv-x="468" d="M-72 -389l246 944h170l-88 -944h-328zM154 856q0 65 44.5 110.5t108.5 45.5q66 0 106 -42t40 -102q0 -65 -45 -110t-109 -45q-66 0 -105.5 41.5t-39.5 101.5z" />
<glyph unicode="&#xa2;" d="M154 342q0 279 140 456.5t363 207.5l37 208h154l-37 -208q63 -8 124 -26t93 -40l-82 -207q-75 42 -174 58l-102 -586q104 25 196 82l58 -211q-45 -32 -128.5 -61.5t-166.5 -39.5l-37 -208h-154l37 210q-144 19 -232.5 106.5t-88.5 258.5zM399 379q0 -68 29 -117t86 -63 l102 579q-99 -42 -158 -160t-59 -239z" />
<glyph unicode="&#xa3;" d="M43 0v162q56 25 97 46.5t91.5 56.5t82 71.5t53.5 88.5t22 110q0 29 -6 59h-217l24 141h166q-12 59 -12 127q0 229 142.5 359.5t371.5 130.5q122 0 205 -27l-68 -231q-81 30 -182 30q-98 0 -156.5 -60t-58.5 -179q0 -48 20 -150h316l-29 -141h-264q2 -12 2 -35 q0 -114 -58.5 -189t-176.5 -132h499l-41 -238h-823z" />
<glyph unicode="&#xa4;" d="M74 283l168 143q-17 50 -17 111q0 164 92 286l-114 146l129 110l117 -143q89 47 200 47q116 0 189 -49l163 145l105 -129l-170 -143q16 -50 16 -102q0 -159 -92 -281l123 -152l-135 -108l-119 143q-91 -51 -207 -51q-112 0 -182 45l-160 -137zM436 561q0 -121 119 -121 q83 0 134.5 68.5t51.5 161.5q0 39 -12 66.5t-32 40.5t-39.5 18.5t-41.5 5.5q-83 0 -131.5 -74.5t-48.5 -165.5z" />
<glyph unicode="&#xa5;" d="M119 319l24 142h285l18 102h-284l24 142h209l-235 618h274l180 -518l357 518h295l-457 -618h201l-25 -142h-276l-19 -102h277l-25 -142h-276l-56 -319h-262l55 319h-284z" />
<glyph unicode="&#xa6;" horiz-adv-x="614" d="M227 276h201v-757h-201v757zM227 829v758h201v-758h-201z" />
<glyph unicode="&#xa7;" horiz-adv-x="1021" d="M47 -123l84 193q113 -64 231 -64q125 0 125 80q0 25 -20.5 51.5t-53 52t-72 53t-79 60t-72 68.5t-53 82.5t-20.5 97.5q0 67 25 122.5t69 93.5t97 63t116 40q-135 115 -135 236q0 145 107 220t280 75q95 0 183 -23t140 -53l-84 -192q-44 25 -107 44t-124 19 q-125 0 -125 -80q0 -29 27.5 -60.5t68.5 -59.5t89.5 -65.5t89.5 -75.5t68.5 -91.5t27.5 -112.5q0 -130 -87 -209t-222 -110q137 -117 137 -236q0 -145 -107 -220t-280 -75q-95 0 -183.5 23t-140.5 53zM373 600q0 -69 100 -151q81 10 141 50t60 103q0 38 -26.5 73.5 t-76.5 78.5q-79 -12 -138.5 -52.5t-59.5 -101.5z" />
<glyph unicode="&#xa8;" horiz-adv-x="819" d="M182 1313q0 66 45 111.5t111 45.5t105.5 -41.5t39.5 -101.5q0 -66 -44.5 -112t-110.5 -46t-106 42t-40 102zM633 1313q0 66 44.5 111.5t110.5 45.5t106 -41.5t40 -101.5q0 -66 -45 -112t-111 -46t-105.5 41.5t-39.5 102.5z" />
<glyph unicode="&#xa9;" horiz-adv-x="1609" d="M119 688q0 150 57 283t153 227t228.5 148.5t278.5 54.5q196 0 359.5 -91.5t260 -255.5t96.5 -366q0 -196 -96 -361t-260.5 -260.5t-359.5 -95.5q-146 0 -278.5 56.5t-228.5 152t-153 228.5t-57 280zM274 688q0 -159 74 -288.5t202.5 -202t285.5 -72.5q119 0 223 42.5 t178.5 117t117 179t42.5 224.5q0 158 -72.5 287t-201.5 203.5t-287 74.5q-155 0 -283.5 -73.5t-203.5 -203.5t-75 -288zM467 674q0 186 108 297.5t291 111.5q123 0 217 -51l-26 -166q-88 52 -185 52q-53 0 -92.5 -17.5t-61 -43t-34.5 -61t-16.5 -63.5t-3.5 -59 q0 -40 10 -75.5t32.5 -70t68.5 -55t110 -20.5q116 0 200 43l15 -160q-41 -24 -107 -37.5t-125 -13.5q-181 0 -291 101t-110 288z" />
<glyph unicode="&#xaa;" horiz-adv-x="774" d="M150 934q0 89 23 170t68.5 148.5t122 108t173.5 40.5q156 0 272 -72l-82 -452q-12 -62 -12 -82q0 -14 15.5 -19t60.5 -8v-76q-20 -5 -76 -11.5t-94 -6.5q-20 0 -38.5 3.5t-36.5 19t-18 40.5q0 19 4 47q-34 -50 -86.5 -80t-107.5 -30q-88 0 -138 64.5t-50 195.5zM336 948 q0 -114 74 -114q41 0 84.5 42.5t72.5 100.5l43 254q-32 20 -92 20q-49 0 -86 -30t-57 -77.5t-29.5 -97t-9.5 -98.5z" />
<glyph unicode="&#xab;" horiz-adv-x="1196" d="M78 487l442 431l129 -127l-284 -314l180 -301l-162 -113zM567 487l443 431l129 -127l-285 -314l180 -301l-162 -113z" />
<glyph unicode="&#xac;" d="M123 686v184h921v-495h-188v311h-733z" />
<glyph unicode="&#xad;" horiz-adv-x="716" d="M57 428l29 172h573l-28 -172h-574z" />
<glyph unicode="&#xae;" horiz-adv-x="1609" d="M119 688q0 150 57 283t153 227t228.5 148.5t278.5 54.5q196 0 359.5 -91.5t260 -255.5t96.5 -366q0 -196 -96 -361t-260.5 -260.5t-359.5 -95.5q-146 0 -278.5 56.5t-228.5 152t-153 228.5t-57 280zM274 688q0 -159 74 -288.5t202.5 -202t285.5 -72.5q119 0 223 42.5 t178.5 117t117 179t42.5 224.5q0 158 -72.5 287t-201.5 203.5t-287 74.5q-155 0 -283.5 -73.5t-203.5 -203.5t-75 -288zM582 305v760h272q256 0 256 -215q0 -78 -46 -131.5t-138 -71.5q34 -7 55 -23.5t39 -48.5l76 -137q19 -37 51 -37h31v-104q-31 -8 -115 -8q-76 0 -117 78 l-104 186q-13 26 -26.5 34.5t-37.5 8.5h-18v-291h-178zM760 741h57q59 0 89 27.5t30 75.5q0 54 -28 72t-91 18h-57v-193z" />
<glyph unicode="&#xaf;" horiz-adv-x="819" d="M260 1208l33 195h553l-33 -195h-553z" />
<glyph unicode="&#xb0;" d="M311 995q0 153 101 255t264 102q133 0 218 -82.5t85 -216.5q0 -153 -101 -254t-264 -101q-133 0 -218 81.5t-85 215.5zM479 995q0 -65 43 -109t103 -44q80 0 133 58t53 153q0 65 -43 110t-102 45q-80 0 -133.5 -59t-53.5 -154z" />
<glyph unicode="&#xb1;" d="M133 0v184h922v-184h-922zM133 598v197h359v325h200v-325h363v-197h-363v-291h-200v291h-359z" />
<glyph unicode="&#xb2;" horiz-adv-x="819" d="M111 670v102q84 50 168.5 109t168 127t135.5 134t52 113q0 35 -22 56.5t-66 21.5q-92 0 -213 -82l-84 144q57 46 145.5 79t182.5 33q117 0 191.5 -60t74.5 -157q0 -58 -24.5 -115.5t-60 -103t-88.5 -92.5t-96.5 -78t-97.5 -65h287l-39 -166h-614z" />
<glyph unicode="&#xb3;" horiz-adv-x="819" d="M137 762l111 133q33 -33 85 -56.5t109 -23.5q61 0 93 25t32 63q0 105 -202 105h-41l28 137q144 11 203 45.5t59 91.5q0 28 -23.5 44.5t-66.5 16.5q-103 0 -178 -67l-82 135q124 96 283 96q109 0 189.5 -53t80.5 -154q0 -88 -64 -145t-151 -68q72 -12 116 -63t44 -123 q0 -116 -84.5 -183t-218.5 -67q-94 0 -179.5 32.5t-142.5 78.5z" />
<glyph unicode="&#xb4;" horiz-adv-x="819" d="M332 1188l186 352l268 -76l-360 -321z" />
<glyph unicode="&#xb5;" horiz-adv-x="1177" d="M55 -203q0 35 11 107l145 827q14 82 14 107q0 19 -21 26t-81 10l22 107q28 9 92.5 20t120.5 11q68 0 97.5 -20.5t29.5 -69.5q0 -25 -16 -113l-63 -356q-19 -116 -19 -152q0 -115 92 -115q51 0 110 41.5t99 90.5t62 92l96 573h244l-125 -727q-17 -96 -17 -113 q0 -18 21 -24.5t84 -9.5v-109q-119 -29 -228 -29q-63 0 -97 19.5t-34 70.5q0 31 6 72q-67 -80 -146.5 -121t-158.5 -41q-41 0 -80 13l-16 -78q-6 -34 -6 -60q0 -53 26.5 -88t81.5 -69l-102 -170q-244 62 -244 278z" />
<glyph unicode="&#xb6;" horiz-adv-x="1443" d="M164 891q0 101 28.5 182.5t79 136.5t121 92t152.5 53.5t176 16.5h784l-35 -188h-172l-237 -1356h-240l238 1358h-154l-237 -1358h-240l127 723q-182 0 -286.5 97t-104.5 243zM389 915q0 -44 16 -77t37.5 -49.5t52 -26.5t51 -12t42.5 -2l78 438q-123 0 -200 -72t-77 -199z " />
<glyph unicode="&#xb7;" horiz-adv-x="514" d="M135 639q0 65 45 110.5t109 45.5q66 0 105.5 -41.5t39.5 -102.5q0 -65 -44.5 -110t-108.5 -45q-66 0 -106 41.5t-40 101.5z" />
<glyph unicode="&#xb8;" horiz-adv-x="819" d="M25 -442l41 100q60 -31 124 -31q38 0 57 17.5t19 44.5q0 59 -149 59l-15 53l197 199h147l-122 -119q81 0 130.5 -38.5t49.5 -104.5q0 -101 -89 -160t-212 -59q-106 0 -178 39z" />
<glyph unicode="&#xb9;" horiz-adv-x="819" d="M180 670l27 139l170 14l104 496l-182 -21l29 146l286 47h111l-137 -668l178 -14l-25 -139h-561z" />
<glyph unicode="&#xba;" horiz-adv-x="774" d="M147 958q0 91 23.5 170t68.5 140.5t118.5 97t166.5 35.5q121 0 198 -76.5t77 -210.5q0 -91 -23.5 -170t-68.5 -140t-118.5 -96.5t-166.5 -35.5q-121 0 -198 76t-77 210zM334 958q0 -57 27.5 -93t82.5 -36q70 0 119 81.5t49 203.5q0 60 -28.5 94.5t-81.5 34.5 q-70 0 -119 -81.5t-49 -203.5z" />
<glyph unicode="&#xbb;" horiz-adv-x="1196" d="M57 190l285 314l-180 301l162 113l305 -424l-443 -431zM547 190l284 314l-180 301l162 113l305 -424l-442 -431z" />
<glyph unicode="&#xbc;" horiz-adv-x="2048" d="M102 514l27 139l170 15l104 495l-182 -20l29 145l287 47h110l-137 -667l178 -15l-24 -139h-562zM461 92l1147 1260l133 -121l-1147 -1260zM1214 176v115l596 536h136l-103 -497h86l-28 -154h-89l-34 -176h-205l39 176h-398zM1481 330h166l39 174z" />
<glyph unicode="&#xbd;" horiz-adv-x="2048" d="M102 514l27 139l170 15l104 495l-182 -20l29 145l287 47h110l-137 -667l178 -15l-24 -139h-562zM383 92l1147 1260l133 -121l-1147 -1260zM1210 0v102q84 50 169 109t168.5 127t135.5 134.5t52 113.5q0 35 -22 56.5t-66 21.5q-92 0 -213 -82l-84 143q57 46 145 79.5 t182 33.5q117 0 192 -60t75 -157q0 -58 -24.5 -115.5t-60 -103.5t-88.5 -92.5t-96.5 -78t-97.5 -65.5h287l-39 -166h-615z" />
<glyph unicode="&#xbe;" horiz-adv-x="2048" d="M102 590l111 133q33 -33 85.5 -56.5t109.5 -23.5q61 0 92.5 25t31.5 63q0 105 -202 105h-41l28 137q144 11 203.5 45.5t59.5 91.5q0 28 -23.5 44.5t-67.5 16.5q-103 0 -178 -67l-82 135q124 96 283 96q109 0 189.5 -53t80.5 -154q0 -88 -64 -145t-151 -68q72 -12 116 -63 t44 -123q0 -116 -84.5 -183t-218.5 -67q-94 0 -179.5 32.5t-142.5 78.5zM465 92l1147 1260l133 -121l-1147 -1260zM1214 176v115l596 536h136l-103 -497h86l-28 -154h-89l-34 -176h-205l39 176h-398zM1481 330h166l39 174z" />
<glyph unicode="&#xbf;" horiz-adv-x="780" d="M-86 -143q0 66 25 124.5t64.5 102.5t87.5 84t96.5 77.5t88 74.5t64.5 82.5t25 95.5v57h231v-98q0 -74 -43 -144.5t-104 -125t-122 -104t-104 -100t-43 -94.5t31.5 -67t89.5 -23q53 0 115 21.5t112 54.5l99 -192q-63 -41 -166 -71t-211 -30q-152 0 -244 76t-92 199z M352 856q0 65 45 110.5t109 45.5q66 0 105.5 -41.5t39.5 -102.5q0 -65 -44.5 -110t-108.5 -45q-66 0 -106 41.5t-40 101.5z" />
<glyph unicode="&#xc0;" horiz-adv-x="1349" d="M-43 0l799 1372h159l318 -1372h-270l-70 332h-467l-188 -332h-281zM489 1653l222 186l299 -266l-82 -86zM547 543h301l-82 385z" />
<glyph unicode="&#xc1;" horiz-adv-x="1349" d="M-43 0l799 1372h159l318 -1372h-270l-70 332h-467l-188 -332h-281zM547 543h301l-82 385zM639 1573l309 266l221 -186l-448 -166z" />
<glyph unicode="&#xc2;" horiz-adv-x="1349" d="M-43 0l799 1372h159l318 -1372h-270l-70 332h-467l-188 -332h-281zM547 543h301l-82 385zM569 1520l244 290h166l123 -290l-101 -35l-127 129l-204 -129z" />
<glyph unicode="&#xc3;" horiz-adv-x="1349" d="M-43 0l799 1372h159l318 -1372h-270l-70 332h-467l-188 -332h-281zM543 1542q48 135 101 201.5t124 66.5q40 0 131 -42t123 -42q28 0 49 20t43 60l82 -26q-48 -135 -101 -202t-124 -67q-41 0 -131.5 42t-122.5 42q-28 0 -49 -19.5t-43 -59.5zM547 543h301l-82 385z" />
<glyph unicode="&#xc4;" horiz-adv-x="1349" d="M-43 0l799 1372h159l318 -1372h-270l-70 332h-467l-188 -332h-281zM483 1651q0 66 45 111.5t111 45.5t105.5 -41.5t39.5 -101.5q0 -66 -44.5 -112t-110.5 -46t-106 42t-40 102zM547 543h301l-82 385zM934 1651q0 66 45 111.5t111 45.5t105.5 -41.5t39.5 -101.5 q0 -66 -45 -112t-111 -46t-105.5 41.5t-39.5 102.5z" />
<glyph unicode="&#xc5;" horiz-adv-x="1349" d="M-43 0l799 1372h159l318 -1372h-270l-70 332h-467l-188 -332h-281zM547 543h301l-82 385zM621 1634q0 104 73.5 171t179.5 67q91 0 153.5 -50.5t62.5 -140.5q0 -104 -74 -170.5t-180 -66.5q-91 0 -153 50t-62 140zM774 1640q0 -34 20 -54.5t54 -20.5q35 0 61.5 33 t26.5 77q0 34 -20 55t-54 21q-35 0 -61.5 -33.5t-26.5 -77.5z" />
<glyph unicode="&#xc6;" horiz-adv-x="1857" d="M-53 0l1145 1372h794l-43 -237h-526l-51 -299h434l-41 -230h-434l-64 -368h551l-41 -238h-815l57 330h-360l-264 -330h-342zM723 541h227l64 360z" />
<glyph unicode="&#xc7;" horiz-adv-x="1300" d="M109 571q0 171 53 321t151.5 263.5t252 179.5t341.5 66q215 0 398 -86l-80 -228q-153 82 -307 82q-126 0 -228.5 -46.5t-168.5 -126.5t-102 -186t-36 -226q0 -190 99.5 -287.5t287.5 -97.5q87 0 191 25.5t172 58.5l30 -220q-61 -31 -165.5 -56t-211.5 -32l-96 -94 q81 0 130.5 -38.5t49.5 -104.5q0 -101 -89 -160t-212 -59q-106 0 -178 39l41 100q60 -31 125 -31q38 0 57 17.5t19 44.5q0 59 -150 59l-14 53l170 174q-259 19 -394.5 173t-135.5 423z" />
<glyph unicode="&#xc8;" horiz-adv-x="1062" d="M61 0l240 1372h791l-43 -237h-527l-51 -299h434l-41 -230h-434l-63 -368h551l-41 -238h-816zM395 1653l221 186l299 -266l-81 -86z" />
<glyph unicode="&#xc9;" horiz-adv-x="1062" d="M61 0l240 1372h791l-43 -237h-527l-51 -299h434l-41 -230h-434l-63 -368h551l-41 -238h-816zM467 1573l309 266l221 -186l-448 -166z" />
<glyph unicode="&#xca;" horiz-adv-x="1062" d="M61 0l240 1372h791l-43 -237h-527l-51 -299h434l-41 -230h-434l-63 -368h551l-41 -238h-816zM410 1520l243 290h166l123 -290l-100 -35l-127 129l-205 -129z" />
<glyph unicode="&#xcb;" horiz-adv-x="1067" d="M61 0l240 1372h791l-43 -237h-527l-51 -299h434l-41 -230h-434l-63 -368h551l-41 -238h-816zM344 1651q0 66 45 111.5t111 45.5t105.5 -41.5t39.5 -101.5q0 -66 -45 -112t-111 -46t-105.5 41.5t-39.5 102.5zM795 1651q0 66 44.5 111.5t110.5 45.5t106 -41.5t40 -101.5 q0 -66 -45 -112t-111 -46t-105.5 41.5t-39.5 102.5z" />
<glyph unicode="&#xcc;" horiz-adv-x="563" d="M61 0l240 1372h262l-239 -1372h-263zM90 1653l221 186l299 -266l-82 -86z" />
<glyph unicode="&#xcd;" horiz-adv-x="563" d="M61 0l240 1372h262l-239 -1372h-263zM315 1573l310 266l221 -186l-449 -166z" />
<glyph unicode="&#xce;" horiz-adv-x="563" d="M61 0l240 1372h262l-239 -1372h-263zM180 1520l244 290h166l123 -290l-101 -35l-127 129l-204 -129z" />
<glyph unicode="&#xcf;" horiz-adv-x="563" d="M61 0l240 1372h262l-239 -1372h-263zM90 1651q0 66 45 111.5t111 45.5t105.5 -41.5t39.5 -101.5q0 -66 -44.5 -112t-110.5 -46t-106 42t-40 102zM541 1651q0 66 44.5 111.5t110.5 45.5t106 -41.5t40 -101.5q0 -66 -45 -112t-111 -46t-105.5 41.5t-39.5 102.5z" />
<glyph unicode="&#xd0;" horiz-adv-x="1445" d="M47 647l25 144h151l103 581h460q289 0 451 -140t162 -421q0 -137 -26.5 -255t-86.5 -222t-150.5 -177t-225.5 -115t-304 -42h-520l113 647h-152zM389 238h195q259 0 396.5 153t137.5 408q0 168 -92 252t-283 84h-198l-62 -344h252l-24 -144h-252z" />
<glyph unicode="&#xd1;" horiz-adv-x="1415" d="M61 0l240 1372h283l426 -842l145 842h260l-239 -1372h-189l-495 983l-170 -983h-261zM557 1542q48 135 101 201.5t124 66.5q40 0 131 -42t123 -42q28 0 49 20t43 60l82 -26q-48 -135 -101 -202t-124 -67q-41 0 -132 42t-122 42q-28 0 -49 -19.5t-43 -59.5z" />
<glyph unicode="&#xd2;" horiz-adv-x="1462" d="M109 502q0 147 31 280.5t95 246.5t155.5 196t218.5 129.5t278 46.5q254 0 391 -145t137 -386q0 -147 -31 -280.5t-95 -246.5t-155.5 -196t-218.5 -129.5t-278 -46.5q-254 0 -391 145t-137 386zM379 518q0 -152 75 -234.5t205 -82.5q110 0 203.5 56.5t154.5 149 t94.5 208.5t33.5 239q0 151 -75.5 234t-205.5 83q-110 0 -203.5 -56.5t-154 -149t-94 -208.5t-33.5 -239zM565 1653l221 186l299 -266l-81 -86z" />
<glyph unicode="&#xd3;" horiz-adv-x="1462" d="M109 502q0 147 31 280.5t95 246.5t155.5 196t218.5 129.5t278 46.5q254 0 391 -145t137 -386q0 -147 -31 -280.5t-95 -246.5t-155.5 -196t-218.5 -129.5t-278 -46.5q-254 0 -391 145t-137 386zM379 518q0 -152 75 -234.5t205 -82.5q110 0 203.5 56.5t154.5 149 t94.5 208.5t33.5 239q0 151 -75.5 234t-205.5 83q-110 0 -203.5 -56.5t-154 -149t-94 -208.5t-33.5 -239zM616 1573l310 266l221 -186l-449 -166z" />
<glyph unicode="&#xd4;" horiz-adv-x="1462" d="M109 502q0 147 31 280.5t95 246.5t155.5 196t218.5 129.5t278 46.5q254 0 391 -145t137 -386q0 -147 -31 -280.5t-95 -246.5t-155.5 -196t-218.5 -129.5t-278 -46.5q-254 0 -391 145t-137 386zM379 518q0 -152 75 -234.5t205 -82.5q110 0 203.5 56.5t154.5 149 t94.5 208.5t33.5 239q0 151 -75.5 234t-205.5 83q-110 0 -203.5 -56.5t-154 -149t-94 -208.5t-33.5 -239zM635 1520l244 290h165l123 -290l-100 -35l-127 129l-205 -129z" />
<glyph unicode="&#xd5;" horiz-adv-x="1462" d="M109 502q0 147 31 280.5t95 246.5t155.5 196t218.5 129.5t278 46.5q254 0 391 -145t137 -386q0 -147 -31 -280.5t-95 -246.5t-155.5 -196t-218.5 -129.5t-278 -46.5q-254 0 -391 145t-137 386zM379 518q0 -152 75 -234.5t205 -82.5q110 0 203.5 56.5t154.5 149 t94.5 208.5t33.5 239q0 151 -75.5 234t-205.5 83q-110 0 -203.5 -56.5t-154 -149t-94 -208.5t-33.5 -239zM590 1542q48 135 101 201.5t124 66.5q41 0 132 -42t122 -42q28 0 49 20t43 60l82 -26q-48 -135 -101 -202t-124 -67q-40 0 -131 42t-123 42q-28 0 -49 -19.5 t-43 -59.5z" />
<glyph unicode="&#xd6;" horiz-adv-x="1462" d="M109 502q0 147 31 280.5t95 246.5t155.5 196t218.5 129.5t278 46.5q254 0 391 -145t137 -386q0 -147 -31 -280.5t-95 -246.5t-155.5 -196t-218.5 -129.5t-278 -46.5q-254 0 -391 145t-137 386zM379 518q0 -152 75 -234.5t205 -82.5q110 0 203.5 56.5t154.5 149 t94.5 208.5t33.5 239q0 151 -75.5 234t-205.5 83q-110 0 -203.5 -56.5t-154 -149t-94 -208.5t-33.5 -239zM535 1651q0 66 44.5 111.5t110.5 45.5t106 -41.5t40 -101.5q0 -66 -45 -112t-111 -46t-105.5 41.5t-39.5 102.5zM985 1651q0 66 45 111.5t111 45.5t105.5 -41.5 t39.5 -101.5q0 -66 -45 -112t-111 -46t-105.5 41.5t-39.5 102.5z" />
<glyph unicode="&#xd7;" d="M184 344l265 266l-265 267l146 141l262 -264l264 264l145 -141l-266 -267l266 -266l-145 -141l-264 264l-262 -264z" />
<glyph unicode="&#xd8;" horiz-adv-x="1482" d="M-14 -70l221 244q-88 131 -88 328q0 147 31 280.5t95 246.5t155.5 196t218.5 129.5t278 46.5q200 0 338 -98l127 139h197l-224 -246q90 -134 90 -326q0 -147 -31 -280.5t-95 -246.5t-155.5 -196t-218.5 -129.5t-278 -46.5q-206 0 -338 99l-127 -140h-196zM389 518 q0 -75 17 -127l653 717q-72 63 -185 63q-110 0 -203.5 -56.5t-154 -149t-94 -208.5t-33.5 -239zM485 262q70 -61 185 -61q110 0 203.5 56.5t154 149t94 208.5t33.5 239q0 70 -18 125z" />
<glyph unicode="&#xd9;" horiz-adv-x="1409" d="M119 406q0 53 14 135l148 831h264l-144 -811q-14 -91 -14 -133q0 -217 275 -217q150 0 236 82.5t112 228.5l149 850h264l-159 -919q-40 -233 -201.5 -357.5t-425.5 -124.5q-105 0 -195.5 24.5t-164 74.5t-116 136t-42.5 200zM451 1653l221 186l299 -266l-82 -86z" />
<glyph unicode="&#xda;" horiz-adv-x="1409" d="M119 406q0 53 14 135l148 831h264l-144 -811q-14 -91 -14 -133q0 -217 275 -217q150 0 236 82.5t112 228.5l149 850h264l-159 -919q-40 -233 -201.5 -357.5t-425.5 -124.5q-105 0 -195.5 24.5t-164 74.5t-116 136t-42.5 200zM713 1573l309 266l221 -186l-448 -166z" />
<glyph unicode="&#xdb;" horiz-adv-x="1409" d="M119 406q0 53 14 135l148 831h264l-144 -811q-14 -91 -14 -133q0 -217 275 -217q150 0 236 82.5t112 228.5l149 850h264l-159 -919q-40 -233 -201.5 -357.5t-425.5 -124.5q-105 0 -195.5 24.5t-164 74.5t-116 136t-42.5 200zM590 1520l244 290h165l123 -290l-100 -35 l-127 129l-205 -129z" />
<glyph unicode="&#xdc;" horiz-adv-x="1409" d="M119 406q0 53 14 135l148 831h264l-144 -811q-14 -91 -14 -133q0 -217 275 -217q150 0 236 82.5t112 228.5l149 850h264l-159 -919q-40 -233 -201.5 -357.5t-425.5 -124.5q-105 0 -195.5 24.5t-164 74.5t-116 136t-42.5 200zM498 1651q0 66 44.5 111.5t110.5 45.5 t106 -41.5t40 -101.5q0 -66 -45 -112t-111 -46t-105.5 41.5t-39.5 102.5zM948 1651q0 66 45 111.5t111 45.5t105.5 -41.5t39.5 -101.5q0 -66 -44.5 -112t-110.5 -46t-106 42t-40 102z" />
<glyph unicode="&#xdd;" horiz-adv-x="1249" d="M205 1372h280l183 -579l376 579h299l-589 -854l-90 -518h-263l95 541zM639 1573l309 266l221 -186l-448 -166z" />
<glyph unicode="&#xde;" horiz-adv-x="1134" d="M61 0l240 1372h262l-51 -287h166q420 0 420 -346q0 -237 -151 -357t-406 -120h-172l-45 -262h-263zM408 487h118q142 0 221.5 51.5t79.5 161.5q0 148 -178 148h-178z" />
<glyph unicode="&#xdf;" horiz-adv-x="1294" d="M-233 -434l69 211q26 -14 66 -25.5t69 -11.5q57 0 83.5 42t45.5 152l144 846h-164l39 203h157l11 53q36 213 168 332t344 119q199 0 313.5 -76.5t114.5 -202.5q0 -57 -21 -107t-54 -86.5t-73 -68.5t-80.5 -59.5t-73.5 -52.5t-54 -53.5t-21 -57.5t20.5 -56t53 -49.5 t71.5 -46.5t78.5 -53t72 -62t53 -80t20.5 -102q0 -140 -103 -221.5t-272 -81.5q-102 0 -208 32.5t-159 70.5l90 192q53 -35 138 -65.5t155 -30.5q56 0 86.5 23.5t30.5 60.5q0 32 -27.5 62.5t-68.5 54.5t-89.5 57.5t-89.5 67.5t-68.5 87t-27.5 115q0 64 24.5 122.5t62 98.5 t80.5 79t80.5 67.5t62 61t24.5 61.5q0 42 -42.5 67t-113.5 25q-105 0 -170.5 -73.5t-89.5 -211.5l-190 -1112q-33 -197 -113 -280.5t-223 -83.5q-113 0 -231 47z" />
<glyph unicode="&#xe0;" horiz-adv-x="1089" d="M72 344q0 101 20 196t64 181.5t108 150.5t157.5 102t205.5 38q98 0 199.5 -27.5t170.5 -75.5l-112 -653q-17 -100 -17 -113q0 -18 21 -24.5t84 -9.5v-109q-119 -29 -228 -29q-63 0 -97 19.5t-34 70.5q0 20 7 68q-50 -71 -126 -114.5t-153 -43.5q-126 0 -198 93t-72 280z M317 373q0 -189 103 -189q62 0 134 67t116 155l59 358q-53 33 -131 33q-58 0 -106.5 -28t-80 -72t-53.5 -101t-31.5 -113.5t-9.5 -109.5zM387 1470l264 74l107 -360l-105 -37z" />
<glyph unicode="&#xe1;" horiz-adv-x="1089" d="M72 344q0 101 20 196t64 181.5t108 150.5t157.5 102t205.5 38q98 0 199.5 -27.5t170.5 -75.5l-112 -653q-17 -100 -17 -113q0 -18 21 -24.5t84 -9.5v-109q-119 -29 -228 -29q-63 0 -97 19.5t-34 70.5q0 20 7 68q-50 -71 -126 -114.5t-153 -43.5q-126 0 -198 93t-72 280z M317 373q0 -189 103 -189q62 0 134 67t116 155l59 358q-53 33 -131 33q-58 0 -106.5 -28t-80 -72t-53.5 -101t-31.5 -113.5t-9.5 -109.5zM518 1188l187 352l268 -76l-361 -321z" />
<glyph unicode="&#xe2;" horiz-adv-x="1089" d="M72 344q0 101 20 196t64 181.5t108 150.5t157.5 102t205.5 38q98 0 199.5 -27.5t170.5 -75.5l-112 -653q-17 -100 -17 -113q0 -18 21 -24.5t84 -9.5v-109q-119 -29 -228 -29q-63 0 -97 19.5t-34 70.5q0 20 7 68q-50 -71 -126 -114.5t-153 -43.5q-126 0 -198 93t-72 280z M317 373q0 -189 103 -189q62 0 134 67t116 155l59 358q-53 33 -131 33q-58 0 -106.5 -28t-80 -72t-53.5 -101t-31.5 -113.5t-9.5 -109.5zM379 1178l244 342h165l123 -342l-100 -35l-127 160l-205 -160z" />
<glyph unicode="&#xe3;" horiz-adv-x="1089" d="M72 344q0 101 20 196t64 181.5t108 150.5t157.5 102t205.5 38q98 0 199.5 -27.5t170.5 -75.5l-112 -653q-17 -100 -17 -113q0 -18 21 -24.5t84 -9.5v-109q-119 -29 -228 -29q-63 0 -97 19.5t-34 70.5q0 20 7 68q-50 -71 -126 -114.5t-153 -43.5q-126 0 -198 93t-72 280z M317 373q0 -189 103 -189q62 0 134 67t116 155l59 358q-53 33 -131 33q-58 0 -106.5 -28t-80 -72t-53.5 -101t-31.5 -113.5t-9.5 -109.5zM340 1210q48 135 101 202t124 67q41 0 131.5 -42t122.5 -42q28 0 49 20t43 60l82 -27q-48 -135 -101 -201.5t-124 -66.5q-40 0 -131 42 t-123 42q-28 0 -49 -20t-43 -60z" />
<glyph unicode="&#xe4;" horiz-adv-x="1089" d="M72 344q0 101 20 196t64 181.5t108 150.5t157.5 102t205.5 38q98 0 199.5 -27.5t170.5 -75.5l-112 -653q-17 -100 -17 -113q0 -18 21 -24.5t84 -9.5v-109q-119 -29 -228 -29q-63 0 -97 19.5t-34 70.5q0 20 7 68q-50 -71 -126 -114.5t-153 -43.5q-126 0 -198 93t-72 280z M285 1313q0 66 44.5 111.5t110.5 45.5t106 -41.5t40 -101.5q0 -66 -45 -112t-111 -46t-105.5 41.5t-39.5 102.5zM317 373q0 -189 103 -189q62 0 134 67t116 155l59 358q-53 33 -131 33q-58 0 -106.5 -28t-80 -72t-53.5 -101t-31.5 -113.5t-9.5 -109.5zM735 1313 q0 66 45 111.5t111 45.5t105.5 -41.5t39.5 -101.5q0 -66 -44.5 -112t-110.5 -46t-106 42t-40 102z" />
<glyph unicode="&#xe5;" horiz-adv-x="1089" d="M72 344q0 101 20 196t64 181.5t108 150.5t157.5 102t205.5 38q98 0 199.5 -27.5t170.5 -75.5l-112 -653q-17 -100 -17 -113q0 -18 21 -24.5t84 -9.5v-109q-119 -29 -228 -29q-63 0 -97 19.5t-34 70.5q0 20 7 68q-50 -71 -126 -114.5t-153 -43.5q-126 0 -198 93t-72 280z M317 373q0 -189 103 -189q62 0 134 67t116 155l59 358q-53 33 -131 33q-58 0 -106.5 -28t-80 -72t-53.5 -101t-31.5 -113.5t-9.5 -109.5zM426 1311q0 104 74 170.5t180 66.5q91 0 153 -50t62 -140q0 -104 -74 -171t-180 -67q-91 0 -153 50.5t-62 140.5zM580 1317 q0 -34 20 -55t53 -21q35 0 61.5 33.5t26.5 77.5q0 34 -19.5 54.5t-53.5 20.5q-35 0 -61.5 -33t-26.5 -77z" />
<glyph unicode="&#xe6;" horiz-adv-x="1486" d="M37 190q0 59 21 108.5t53.5 84.5t83.5 63.5t99.5 46t113 31.5t112 21t109.5 14l10 62q8 64 8 73q0 49 -29.5 70.5t-95.5 21.5q-135 0 -297 -79l-43 190q84 52 194.5 83.5t209.5 31.5q215 0 270 -117q142 117 311 117q133 0 208 -59.5t75 -172.5q0 -160 -161 -263.5 t-429 -110.5v-25q0 -38 4.5 -66.5t16.5 -58.5t39.5 -46.5t68.5 -16.5q75 0 167.5 36.5t150.5 75.5l57 -213q-66 -46 -181.5 -83.5t-217.5 -37.5q-245 0 -318 183q-63 -86 -156.5 -134.5t-199.5 -48.5q-119 0 -186.5 59t-67.5 160zM299 219q0 -31 25.5 -49t64.5 -18 q67 0 129.5 60t99.5 185q-70 -7 -123.5 -19t-100 -32t-71 -52t-24.5 -75zM889 573q138 16 223.5 62t85.5 117q0 30 -20 46.5t-56 16.5q-60 0 -128.5 -65t-104.5 -177z" />
<glyph unicode="&#xe7;" horiz-adv-x="899" d="M68 342q0 139 36.5 260t105.5 212.5t176 144.5t239 53q68 0 137.5 -21.5t109.5 -50.5l-84 -211q-34 28 -89 48t-107 20q-84 0 -149.5 -64t-97.5 -158t-32 -196q0 -93 36.5 -139.5t101.5 -46.5q98 0 260 94l57 -211q-41 -28 -118.5 -56.5t-153.5 -39.5l-101 -99 q81 0 130.5 -38.5t49.5 -104.5q0 -101 -89 -160t-212 -59q-106 0 -178 39l41 100q60 -31 125 -31q38 0 57 17.5t19 44.5q0 59 -150 59l-14 53l174 174q-130 18 -205 107.5t-75 259.5z" />
<glyph unicode="&#xe8;" horiz-adv-x="940" d="M68 350q0 98 23 193t70 180t112 149.5t155.5 102t194.5 37.5q56 0 104.5 -12.5t89 -38.5t63.5 -72.5t23 -108.5q0 -160 -161 -263.5t-429 -110.5v-25q0 -38 4.5 -66.5t16.5 -58.5t39.5 -46.5t68.5 -16.5q75 0 167.5 36.5t150.5 75.5l57 -213q-66 -46 -181.5 -83.5 t-217.5 -37.5q-350 0 -350 379zM272 1470l265 74l106 -360l-104 -37zM342 573q138 16 223.5 62t85.5 117q0 30 -20 46.5t-56 16.5q-60 0 -128.5 -65t-104.5 -177z" />
<glyph unicode="&#xe9;" horiz-adv-x="940" d="M68 350q0 98 23 193t70 180t112 149.5t155.5 102t194.5 37.5q56 0 104.5 -12.5t89 -38.5t63.5 -72.5t23 -108.5q0 -160 -161 -263.5t-429 -110.5v-25q0 -38 4.5 -66.5t16.5 -58.5t39.5 -46.5t68.5 -16.5q75 0 167.5 36.5t150.5 75.5l57 -213q-66 -46 -181.5 -83.5 t-217.5 -37.5q-350 0 -350 379zM342 573q138 16 223.5 62t85.5 117q0 30 -20 46.5t-56 16.5q-60 0 -128.5 -65t-104.5 -177zM414 1188l186 352l268 -76l-360 -321z" />
<glyph unicode="&#xea;" horiz-adv-x="940" d="M68 350q0 98 23 193t70 180t112 149.5t155.5 102t194.5 37.5q56 0 104.5 -12.5t89 -38.5t63.5 -72.5t23 -108.5q0 -160 -161 -263.5t-429 -110.5v-25q0 -38 4.5 -66.5t16.5 -58.5t39.5 -46.5t68.5 -16.5q75 0 167.5 36.5t150.5 75.5l57 -213q-66 -46 -181.5 -83.5 t-217.5 -37.5q-350 0 -350 379zM309 1178l244 342h166l123 -342l-101 -35l-127 160l-204 -160zM342 573q138 16 223.5 62t85.5 117q0 30 -20 46.5t-56 16.5q-60 0 -128.5 -65t-104.5 -177z" />
<glyph unicode="&#xeb;" horiz-adv-x="940" d="M68 350q0 98 23 193t70 180t112 149.5t155.5 102t194.5 37.5q56 0 104.5 -12.5t89 -38.5t63.5 -72.5t23 -108.5q0 -160 -161 -263.5t-429 -110.5v-25q0 -38 4.5 -66.5t16.5 -58.5t39.5 -46.5t68.5 -16.5q75 0 167.5 36.5t150.5 75.5l57 -213q-66 -46 -181.5 -83.5 t-217.5 -37.5q-350 0 -350 379zM219 1313q0 66 45 111.5t111 45.5t105.5 -41.5t39.5 -101.5q0 -66 -44.5 -112t-110.5 -46t-106 42t-40 102zM342 573q138 16 223.5 62t85.5 117q0 30 -20 46.5t-56 16.5q-60 0 -128.5 -65t-104.5 -177zM670 1313q0 66 44.5 111.5t110.5 45.5 t106 -41.5t40 -101.5q0 -66 -45 -112t-111 -46t-105.5 41.5t-39.5 102.5z" />
<glyph unicode="&#xec;" horiz-adv-x="591" d="M96 68q0 4 13 92l100 567q14 83 14 113q0 18 -22 25t-80 9l22 107q32 9 96.5 20t110.5 11q58 0 93.5 -18.5t35.5 -71.5q0 -32 -16 -131l-92 -539q-17 -91 -17 -107q0 -19 22.5 -26t82.5 -10v-109q-19 -6 -98 -17.5t-136 -11.5q-129 0 -129 97zM96 1470l264 74l107 -360 l-105 -37z" />
<glyph unicode="&#xed;" horiz-adv-x="591" d="M96 68q0 4 13 92l100 567q14 83 14 113q0 18 -22 25t-80 9l22 107q32 9 96.5 20t110.5 11q58 0 93.5 -18.5t35.5 -71.5q0 -32 -16 -131l-92 -539q-17 -91 -17 -107q0 -19 22.5 -26t82.5 -10v-109q-19 -6 -98 -17.5t-136 -11.5q-129 0 -129 97zM236 1188l186 352l268 -76 l-360 -321z" />
<glyph unicode="&#xee;" horiz-adv-x="591" d="M80 1178l244 342h165l123 -342l-100 -35l-127 160l-205 -160zM96 68q0 4 13 92l100 567q14 83 14 113q0 18 -22 25t-80 9l22 107q32 9 96.5 20t110.5 11q58 0 93.5 -18.5t35.5 -71.5q0 -32 -16 -131l-92 -539q-17 -91 -17 -107q0 -19 22.5 -26t82.5 -10v-109 q-19 -6 -98 -17.5t-136 -11.5q-129 0 -129 97z" />
<glyph unicode="&#xef;" horiz-adv-x="591" d="M-6 1313q0 66 45 111.5t111 45.5t105.5 -41.5t39.5 -101.5q0 -66 -45 -112t-111 -46t-105.5 41.5t-39.5 102.5zM96 68q0 4 13 92l100 567q14 83 14 113q0 18 -22 25t-80 9l22 107q32 9 96.5 20t110.5 11q58 0 93.5 -18.5t35.5 -71.5q0 -32 -16 -131l-92 -539 q-17 -91 -17 -107q0 -19 22.5 -26t82.5 -10v-109q-19 -6 -98 -17.5t-136 -11.5q-129 0 -129 97zM444 1313q0 66 45 111.5t111 45.5t105.5 -41.5t39.5 -101.5q0 -66 -44.5 -112t-110.5 -46t-106 42t-40 102z" />
<glyph unicode="&#xf0;" horiz-adv-x="1056" d="M68 358q0 125 36 235t102.5 193t167.5 131t224 48q54 0 111 -11q-36 92 -97 162l-266 -96l25 164l116 43q-72 47 -147 71l125 205q170 -64 293 -178l266 96l-23 -164l-141 -51q144 -208 144 -483q0 -146 -41 -281t-114.5 -240t-185.5 -168t-245 -63q-169 0 -259.5 101 t-90.5 286zM322 367q0 -183 122 -183q71 0 131 54t96.5 137.5t56.5 174.5t22 173q-79 27 -146 27q-70 0 -125.5 -33t-89 -88.5t-50.5 -122t-17 -139.5z" />
<glyph unicode="&#xf1;" horiz-adv-x="1144" d="M84 0l125 725q14 89 14 113q0 20 -20.5 26.5t-81.5 9.5l22 107q86 31 207 31q62 0 95.5 -20.5t33.5 -69.5q0 -14 -8 -68q61 72 140 115t167 43q128 0 191 -79t63 -206q0 -77 -14 -152l-53 -323q-17 -102 -17 -111q0 -16 22.5 -22.5t82.5 -9.5v-109q-93 -29 -232 -29 q-131 0 -131 97q0 29 8 73l74 398q14 75 14 131q0 129 -92 129q-68 0 -143.5 -66.5t-124.5 -146.5l-98 -586h-244zM326 1210q48 135 101 202t124 67q41 0 132 -42t122 -42q28 0 49 20t43 60l82 -27q-48 -135 -101 -201.5t-124 -66.5q-40 0 -131 42t-123 42q-28 0 -49 -20 t-43 -60z" />
<glyph unicode="&#xf2;" horiz-adv-x="1011" d="M68 375q0 100 20.5 192.5t63 173.5t103 141t146 95t187.5 35q170 0 263 -108t93 -296q0 -100 -20.5 -192.5t-63 -173.5t-103 -141t-146 -95t-187.5 -35q-170 0 -263 108t-93 296zM313 377q0 -92 35 -146.5t107 -54.5q102 0 172.5 123t70.5 307q0 93 -34.5 147t-106.5 54 q-102 0 -173 -123t-71 -307zM328 1470l264 74l106 -360l-104 -37z" />
<glyph unicode="&#xf3;" horiz-adv-x="1011" d="M68 375q0 100 20.5 192.5t63 173.5t103 141t146 95t187.5 35q170 0 263 -108t93 -296q0 -100 -20.5 -192.5t-63 -173.5t-103 -141t-146 -95t-187.5 -35q-170 0 -263 108t-93 296zM313 377q0 -92 35 -146.5t107 -54.5q102 0 172.5 123t70.5 307q0 93 -34.5 147t-106.5 54 q-102 0 -173 -123t-71 -307zM442 1188l187 352l268 -76l-360 -321z" />
<glyph unicode="&#xf4;" horiz-adv-x="1011" d="M68 375q0 100 20.5 192.5t63 173.5t103 141t146 95t187.5 35q170 0 263 -108t93 -296q0 -100 -20.5 -192.5t-63 -173.5t-103 -141t-146 -95t-187.5 -35q-170 0 -263 108t-93 296zM313 377q0 -92 35 -146.5t107 -54.5q102 0 172.5 123t70.5 307q0 93 -34.5 147t-106.5 54 q-102 0 -173 -123t-71 -307zM324 1178l243 342h166l123 -342l-100 -35l-127 160l-205 -160z" />
<glyph unicode="&#xf5;" horiz-adv-x="1011" d="M68 375q0 100 20.5 192.5t63 173.5t103 141t146 95t187.5 35q170 0 263 -108t93 -296q0 -100 -20.5 -192.5t-63 -173.5t-103 -141t-146 -95t-187.5 -35q-170 0 -263 108t-93 296zM293 1210q48 135 101 202t124 67q40 0 131 -42t123 -42q28 0 49 20t43 60l82 -27 q-48 -135 -101 -201.5t-124 -66.5q-41 0 -132 42t-122 42q-28 0 -49 -20t-43 -60zM313 377q0 -92 35 -146.5t107 -54.5q102 0 172.5 123t70.5 307q0 93 -34.5 147t-106.5 54q-102 0 -173 -123t-71 -307z" />
<glyph unicode="&#xf6;" horiz-adv-x="1011" d="M68 375q0 100 20.5 192.5t63 173.5t103 141t146 95t187.5 35q170 0 263 -108t93 -296q0 -100 -20.5 -192.5t-63 -173.5t-103 -141t-146 -95t-187.5 -35q-170 0 -263 108t-93 296zM254 1313q0 66 45 111.5t111 45.5t105.5 -41.5t39.5 -101.5q0 -66 -45 -112t-111 -46 t-105.5 41.5t-39.5 102.5zM313 377q0 -92 35 -146.5t107 -54.5q102 0 172.5 123t70.5 307q0 93 -34.5 147t-106.5 54q-102 0 -173 -123t-71 -307zM705 1313q0 66 44.5 111.5t110.5 45.5t106 -41.5t40 -101.5q0 -66 -45 -112t-111 -46t-105.5 41.5t-39.5 102.5z" />
<glyph unicode="&#xf7;" d="M133 520v199h922v-199h-922zM459 283q0 58 38.5 97.5t94.5 39.5q58 0 97.5 -39t39.5 -98q0 -56 -39.5 -94.5t-97.5 -38.5q-56 0 -94.5 39t-38.5 94zM459 961q0 57 38.5 96t94.5 39q58 0 97.5 -39t39.5 -96t-39.5 -96.5t-97.5 -39.5q-56 0 -94.5 39.5t-38.5 96.5z" />
<glyph unicode="&#xf8;" horiz-adv-x="1032" d="M-68 -51l189 207q-43 90 -43 219q0 100 20.5 192.5t63 173.5t103 141t146 95t187.5 35q137 0 227 -74l88 96h185l-189 -207q45 -95 45 -219q0 -100 -20.5 -192.5t-63 -173.5t-103 -141t-146 -95t-187.5 -35q-139 0 -231 76l-88 -98h-183zM324 381l344 381q-36 45 -101 45 q-102 0 -172.5 -121.5t-70.5 -304.5zM362 223q35 -47 103 -47q102 0 172.5 121.5t71.5 306.5z" />
<glyph unicode="&#xf9;" horiz-adv-x="1142" d="M88 874l23 107q28 9 92.5 20t120.5 11q68 0 97.5 -20.5t29.5 -69.5q0 -20 -17 -113l-63 -356q-19 -116 -19 -152q0 -115 92 -115q51 0 110 41.5t99 90.5t62 92l96 573h244l-125 -727q-17 -96 -17 -113q0 -18 21 -24.5t84 -9.5v-109q-119 -29 -227 -29q-63 0 -97.5 20 t-34.5 70q0 24 7 72q-67 -80 -147 -121t-159 -41q-127 0 -189 81.5t-62 209.5q0 70 16 172l51 297q14 84 14 107q0 19 -21 26t-81 10zM336 1470l264 74l107 -360l-105 -37z" />
<glyph unicode="&#xfa;" horiz-adv-x="1142" d="M88 874l23 107q28 9 92.5 20t120.5 11q68 0 97.5 -20.5t29.5 -69.5q0 -20 -17 -113l-63 -356q-19 -116 -19 -152q0 -115 92 -115q51 0 110 41.5t99 90.5t62 92l96 573h244l-125 -727q-17 -96 -17 -113q0 -18 21 -24.5t84 -9.5v-109q-119 -29 -227 -29q-63 0 -97.5 20 t-34.5 70q0 24 7 72q-67 -80 -147 -121t-159 -41q-127 0 -189 81.5t-62 209.5q0 70 16 172l51 297q14 84 14 107q0 19 -21 26t-81 10zM489 1188l187 352l268 -76l-360 -321z" />
<glyph unicode="&#xfb;" horiz-adv-x="1142" d="M88 874l23 107q28 9 92.5 20t120.5 11q68 0 97.5 -20.5t29.5 -69.5q0 -20 -17 -113l-63 -356q-19 -116 -19 -152q0 -115 92 -115q51 0 110 41.5t99 90.5t62 92l96 573h244l-125 -727q-17 -96 -17 -113q0 -18 21 -24.5t84 -9.5v-109q-119 -29 -227 -29q-63 0 -97.5 20 t-34.5 70q0 24 7 72q-67 -80 -147 -121t-159 -41q-127 0 -189 81.5t-62 209.5q0 70 16 172l51 297q14 84 14 107q0 19 -21 26t-81 10zM371 1178l243 342h166l123 -342l-100 -35l-127 160l-205 -160z" />
<glyph unicode="&#xfc;" horiz-adv-x="1142" d="M88 874l23 107q28 9 92.5 20t120.5 11q68 0 97.5 -20.5t29.5 -69.5q0 -20 -17 -113l-63 -356q-19 -116 -19 -152q0 -115 92 -115q51 0 110 41.5t99 90.5t62 92l96 573h244l-125 -727q-17 -96 -17 -113q0 -18 21 -24.5t84 -9.5v-109q-119 -29 -227 -29q-63 0 -97.5 20 t-34.5 70q0 24 7 72q-67 -80 -147 -121t-159 -41q-127 0 -189 81.5t-62 209.5q0 70 16 172l51 297q14 84 14 107q0 19 -21 26t-81 10zM266 1313q0 66 45 111.5t111 45.5t105.5 -41.5t39.5 -101.5q0 -66 -44.5 -112t-110.5 -46t-106 42t-40 102zM717 1313q0 66 44.5 111.5 t110.5 45.5t106 -41.5t40 -101.5q0 -66 -45 -112t-111 -46t-105.5 41.5t-39.5 102.5z" />
<glyph unicode="&#xfd;" horiz-adv-x="1015" d="M-86 -438l66 205q82 -37 124 -37q61 0 100.5 40t112.5 169l21 38l-172 818q-9 48 -28 63.5t-77 15.5l23 107q102 31 190 31q61 0 85 -27.5t42 -112.5l113 -559l137 303q48 108 63 155.5t15 82.5q0 30 -20 88l221 70q19 -26 34 -67t15 -81q0 -114 -119 -346l-323 -641 q-176 -358 -418 -358q-114 0 -205 43zM457 1188l186 352l268 -76l-360 -321z" />
<glyph unicode="&#xfe;" horiz-adv-x="1062" d="M-20 -453l323 1899l252 41l-106 -627q119 152 280 152q133 0 199.5 -102.5t66.5 -270.5q0 -130 -34 -247.5t-99 -212.5t-171.5 -151.5t-239.5 -56.5q-62 0 -152 19l-74 -443h-245zM340 223q55 -37 129 -37t131 42.5t88.5 110t46.5 140t15 144.5q0 71 -24 123.5t-75 52.5 q-119 0 -250 -209z" />
<glyph unicode="&#xff;" horiz-adv-x="1015" d="M-86 -438l66 205q82 -37 124 -37q61 0 100.5 40t112.5 169l21 38l-172 818q-9 48 -28 63.5t-77 15.5l23 107q102 31 190 31q61 0 85 -27.5t42 -112.5l113 -559l137 303q48 108 63 155.5t15 82.5q0 30 -20 88l221 70q19 -26 34 -67t15 -81q0 -114 -119 -346l-323 -641 q-176 -358 -418 -358q-114 0 -205 43zM201 1313q0 66 44.5 111.5t110.5 45.5t106 -41.5t40 -101.5q0 -66 -45 -112t-111 -46t-105.5 41.5t-39.5 102.5zM651 1313q0 66 45 111.5t111 45.5t105.5 -41.5t39.5 -101.5q0 -66 -44.5 -112t-110.5 -46t-106 42t-40 102z" />
<glyph unicode="&#x152;" horiz-adv-x="1794" d="M109 498q0 142 30.5 271t94 239.5t154 191t217 126.5t276.5 46h942l-43 -237h-527l-51 -299h434l-41 -230h-434l-63 -368h551l-41 -238h-969q-267 0 -398.5 130.5t-131.5 367.5zM375 524q0 -156 65.5 -225.5t216.5 -69.5h174l160 914h-129q-97 0 -178 -34t-137.5 -93 t-95.5 -138t-57.5 -168.5t-18.5 -185.5z" />
<glyph unicode="&#x153;" horiz-adv-x="1552" d="M68 375q0 100 20.5 192.5t63 173.5t103 141t146 95t187.5 35q197 0 291 -146q149 146 356 146q56 0 104.5 -12.5t89 -38.5t64 -72.5t23.5 -108.5q0 -160 -161 -263.5t-429 -110.5v-25q0 -38 4.5 -66.5t16.5 -58.5t39.5 -46.5t68.5 -16.5q75 0 167 36.5t150 75.5l58 -213 q-66 -46 -182 -83.5t-218 -37.5q-197 0 -282 119q-132 -119 -324 -119q-170 0 -263 108t-93 296zM313 377q0 -92 35 -146.5t107 -54.5q102 0 172.5 123t70.5 307q0 93 -34.5 147t-106.5 54q-102 0 -173 -123t-71 -307zM954 573q138 16 224 62.5t86 116.5q0 30 -20 46.5 t-56 16.5q-60 0 -129 -65t-105 -177z" />
<glyph unicode="&#x178;" horiz-adv-x="1249" d="M205 1372h280l183 -579l376 579h299l-589 -854l-90 -518h-263l95 541zM410 1651q0 66 44.5 111.5t110.5 45.5t106 -41.5t40 -101.5q0 -66 -45 -112t-111 -46t-105.5 41.5t-39.5 102.5zM860 1651q0 66 45 111.5t111 45.5t105.5 -41.5t39.5 -101.5q0 -66 -44.5 -112 t-110.5 -46t-106 42t-40 102z" />
<glyph unicode="&#x2c6;" horiz-adv-x="819" d="M254 1178l244 342h166l122 -342l-100 -35l-127 160l-205 -160z" />
<glyph unicode="&#x2dc;" horiz-adv-x="819" d="M221 1210q48 135 101 202t124 67q40 0 131 -42t123 -42q49 0 93 80l81 -27q-48 -135 -101 -201.5t-124 -66.5q-41 0 -132 42t-122 42q-28 0 -49 -20t-43 -60z" />
<glyph unicode="&#x2000;" horiz-adv-x="936" />
<glyph unicode="&#x2001;" horiz-adv-x="1872" />
<glyph unicode="&#x2002;" horiz-adv-x="936" />
<glyph unicode="&#x2003;" horiz-adv-x="1872" />
<glyph unicode="&#x2004;" horiz-adv-x="624" />
<glyph unicode="&#x2005;" horiz-adv-x="468" />
<glyph unicode="&#x2006;" horiz-adv-x="312" />
<glyph unicode="&#x2007;" horiz-adv-x="312" />
<glyph unicode="&#x2008;" horiz-adv-x="234" />
<glyph unicode="&#x2009;" horiz-adv-x="374" />
<glyph unicode="&#x200a;" horiz-adv-x="104" />
<glyph unicode="&#x2010;" horiz-adv-x="716" d="M57 428l29 172h573l-28 -172h-574z" />
<glyph unicode="&#x2011;" horiz-adv-x="716" d="M57 428l29 172h573l-28 -172h-574z" />
<glyph unicode="&#x2012;" horiz-adv-x="716" d="M57 428l29 172h573l-28 -172h-574z" />
<glyph unicode="&#x2013;" horiz-adv-x="1228" d="M57 428l29 172h1085l-28 -172h-1086z" />
<glyph unicode="&#x2014;" horiz-adv-x="1843" d="M57 428l29 172h1700l-29 -172h-1700z" />
<glyph unicode="&#x2018;" horiz-adv-x="520" d="M178 944q0 132 91.5 260.5t224.5 220.5l112 -92q-72 -73 -119 -166.5t-47 -189.5q0 -17 6 -86h-264q-4 24 -4 53z" />
<glyph unicode="&#x2019;" horiz-adv-x="520" d="M156 958q72 73 119 167t47 190q0 5 -7 86h265q4 -24 4 -53q0 -132 -91.5 -261t-224.5 -221z" />
<glyph unicode="&#x201a;" horiz-adv-x="518" d="M-94 -233q72 73 119 166.5t47 189.5q0 17 -6 86h264q4 -24 4 -53q0 -132 -91.5 -261t-224.5 -221z" />
<glyph unicode="&#x201c;" horiz-adv-x="897" d="M178 944q0 132 91.5 260.5t224.5 220.5l112 -92q-72 -73 -119 -166.5t-47 -189.5q0 -17 6 -86h-264q-4 24 -4 53zM555 944q0 132 91 260.5t224 220.5l113 -92q-72 -73 -119 -166.5t-47 -189.5q0 -17 6 -86h-264q-4 24 -4 53z" />
<glyph unicode="&#x201d;" horiz-adv-x="897" d="M156 958q72 73 119 167t47 190q0 5 -7 86h265q4 -24 4 -53q0 -132 -91.5 -261t-224.5 -221zM532 958q72 73 119 167t47 190q0 17 -6 86h264q5 -30 5 -53q0 -132 -91.5 -261t-224.5 -221z" />
<glyph unicode="&#x201e;" horiz-adv-x="876" d="M-94 -233q72 73 119 166.5t47 189.5q0 17 -6 86h264q4 -24 4 -53q0 -132 -91.5 -261t-224.5 -221zM283 -233q72 73 119 166.5t47 189.5q0 5 -7 86h265q4 -24 4 -53q0 -132 -91.5 -261t-224.5 -221z" />
<glyph unicode="&#x2022;" horiz-adv-x="825" d="M141 633q0 132 89.5 223.5t218.5 91.5q130 0 209 -82.5t79 -201.5q0 -132 -89 -224t-218 -92q-130 0 -209.5 83t-79.5 202z" />
<glyph unicode="&#x2026;" horiz-adv-x="1536" d="M47 115q0 65 45 110t109 45q66 0 105.5 -41.5t39.5 -101.5q0 -65 -44.5 -110.5t-108.5 -45.5q-66 0 -106 42t-40 102zM559 115q0 65 45 110t109 45q66 0 105.5 -41.5t39.5 -101.5q0 -65 -44.5 -110.5t-108.5 -45.5q-66 0 -106 42t-40 102zM1071 115q0 65 45 110t109 45 q66 0 105.5 -41.5t39.5 -101.5q0 -65 -44.5 -110.5t-108.5 -45.5q-66 0 -106 42t-40 102z" />
<glyph unicode="&#x202f;" horiz-adv-x="374" />
<glyph unicode="&#x2039;" horiz-adv-x="706" d="M78 487l442 431l129 -127l-284 -314l180 -301l-162 -113z" />
<glyph unicode="&#x203a;" horiz-adv-x="706" d="M57 190l285 314l-180 301l162 113l305 -424l-443 -431z" />
<glyph unicode="&#x205f;" horiz-adv-x="468" />
<glyph unicode="&#x20ac;" d="M92 469l25 141h102q2 20 9.5 56.5t9.5 46.5h-107l25 141h120q37 108 91.5 197t127.5 157t168.5 106t204.5 38q159 0 287 -76l-86 -213q-101 65 -213 65q-111 0 -188.5 -75t-124.5 -199h354l-25 -141h-370q-15 -90 -17 -103h373l-24 -141h-357q2 -129 45 -196.5t154 -67.5 q128 0 219 65l53 -217q-129 -82 -289 -82q-213 0 -331.5 114.5t-118.5 342.5v41h-117z" />
<glyph unicode="&#x2122;" horiz-adv-x="1818" d="M160 1231l26 141h678l-26 -141h-256l-109 -619h-168l109 619h-254zM858 612l133 760h174l142 -524l338 524h178l-133 -760h-166l78 439l-285 -439h-100l-123 443l-76 -443h-160z" />
<glyph unicode="&#xe000;" horiz-adv-x="1013" d="M0 0v1014h1014v-1014h-1014z" />
<glyph unicode="&#xfb01;" horiz-adv-x="1329" d="M-233 -434l69 211q26 -14 66 -25.5t69 -11.5q57 0 83.5 42t45.5 152l144 846h-164l39 203h160l14 82q17 99 49.5 175.5t71 122t87.5 74.5t94.5 39.5t96.5 10.5q105 0 189 -41l-101 -201q-42 25 -92 25q-128 0 -156 -223l-10 -64h223l-34 -203h-224l-153 -897 q-33 -197 -113 -280.5t-223 -83.5q-113 0 -231 47zM834 68q0 11 12 92l100 567q15 89 15 113q0 18 -22.5 25t-80.5 9l23 107q33 9 96.5 20t109.5 11q58 0 94 -18.5t36 -71.5q0 -26 -17 -131l-92 -539q-16 -86 -16 -107q0 -19 22 -26t82 -10v-109q-19 -6 -97.5 -17.5 t-135.5 -11.5q-129 0 -129 97zM985 1313q0 69 46.5 116.5t115.5 47.5t110 -43t41 -107q0 -69 -46 -116.5t-115 -47.5t-110.5 43.5t-41.5 106.5z" />
<glyph unicode="&#xfb02;" horiz-adv-x="1290" d="M-233 -434l69 211q26 -14 66 -25.5t69 -11.5q57 0 83.5 42t45.5 152l144 846h-164l39 203h160l14 82q17 99 49.5 175.5t71 122t87.5 74.5t94.5 39.5t96.5 10.5q105 0 189 -41l-101 -201q-42 25 -92 25q-128 0 -156 -223l-10 -64h223l-34 -203h-224l-153 -897 q-33 -197 -113 -280.5t-223 -83.5q-113 0 -231 47zM805 61q0 28 10 93l217 1292l250 41l-207 -1231q-16 -94 -16 -113q0 -18 21 -24.5t83 -9.5v-109q-99 -29 -227 -29q-68 0 -99.5 21t-31.5 69z" />
</font>
</defs>
</svg>
